STARTFONT 2.1
FONT -ADECW-Screen-Medium-R-Normal--24-240-75-75-M-240-DEC.DTSCS.1990-2
SIZE 24 75 75
FONTBOUNDINGBOX 24 24 0 -4

STARTPROPERTIES 26
FONTNAME_REGISTRY ""
FAMILY_NAME "Screen"
FOUNDRY "ADECW"
WEIGHT_NAME "Medium"
SLANT "R"
SETWIDTH_NAME "Normal"
ADD_STYLE_NAME ""
PIXEL_SIZE 24
POINT_SIZE 240
RESOLUTION_X 75
RESOLUTION_Y 75
SPACING "M"
AVERAGE_WIDTH 240
CHARSET_REGISTRY "DEC.DTSCS.1990"
CHARSET_ENCODING "2"
DEVICE_FONT_NAME "Screen-DEC.DTSCS.1990-2"
CHARSET_COLLECTIONS "DEC.DTSCS.1990 2"
FULL_NAME "Screen DEC.DTSCS.1990 2"
COPYRIGHT "Copyright (c) 1990 Digital Equipment Corporation"
CAP_HEIGHT 18
X_HEIGHT 13
WEIGHT 10
QUAD_WIDTH 24
DEFAULT_CHAR 58596
FONT_DESCENT 4
FONT_ASCENT 20
ENDPROPERTIES

CHARS 6320

STARTCHAR A1A1
ENCODING 41377
SWIDTH 960 0
DWIDTH 24 0
BBX 24 24 0 -4
BITMAP
000000
001800
001C00
001800
001800
001800
001800
001800
001800
001800
001800
001800
001800
001800
001800
001800
001800
001800
001800
001800
001800
001800
001800
000000
ENDCHAR

STARTCHAR A1A2
ENCODING 41378
SWIDTH 960 0
DWIDTH 24 0
BBX 24 24 0 -4
BITMAP
000000
000000
000000
000000
000000
000000
000000
020000
018000
00E000
007800
003C00
001E00
000E00
000600
000000
000000
000000
000000
000000
000000
000000
000000
000000
ENDCHAR

STARTCHAR A1A3
ENCODING 41379
SWIDTH 960 0
DWIDTH 24 0
BBX 24 24 0 -4
BITMAP
000000
000600
000700
000600
000600
000600
000C00
000C00
000C00
001800
001800
003000
003000
006000
006000
00C000
018000
030000
060000
180000
600000
000000
000000
000000
ENDCHAR

STARTCHAR A1A4
ENCODING 41380
SWIDTH 960 0
DWIDTH 24 0
BBX 24 24 0 -4
BITMAP
000000
001800
001C00
001800
001800
001800
001800
001800
001800
001800
001800
001800
001800
001800
001800
001800
001800
001800
001800
001800
00F800
003800
003000
000000
ENDCHAR

STARTCHAR A1A5
ENCODING 41381
SWIDTH 960 0
DWIDTH 24 0
BBX 24 24 0 -4
BITMAP
000000
000008
00001C
7FFFFE
001800
001800
001800
001800
001800
001800
001800
001800
001800
001800
001800
001800
001800
001800
001800
001800
001800
001800
001800
000000
ENDCHAR

STARTCHAR A1A6
ENCODING 41382
SWIDTH 960 0
DWIDTH 24 0
BBX 24 24 0 -4
BITMAP
000000
001800
001C00
001800
001800
001800
001800
001800
001800
001800
001800
001800
001800
001800
001800
001800
001800
001800
001800
001800
001804
00180E
7FFFFE
000000
ENDCHAR

STARTCHAR A1A7
ENCODING 41383
SWIDTH 960 0
DWIDTH 24 0
BBX 24 24 0 -4
BITMAP
000000
180018
1FFFFC
180018
180018
180018
180018
180018
180018
180018
180018
180018
180018
180018
180018
180018
180018
180018
180018
180038
1803F8
1800F0
180060
000000
ENDCHAR

STARTCHAR A1A8
ENCODING 41384
SWIDTH 960 0
DWIDTH 24 0
BBX 24 24 0 -4
BITMAP
000000
000000
000000
000000
000000
100018
1FFFFC
10000E
30001E
70003C
600070
000000
000000
000000
000000
000000
000000
000000
000000
000000
000000
000000
000000
000000
ENDCHAR

STARTCHAR A1A9
ENCODING 41385
SWIDTH 960 0
DWIDTH 24 0
BBX 24 24 0 -4
BITMAP
000000
000008
00001C
7FFFFE
300000
300000
300000
300000
300000
300000
300000
300000
300000
300000
300000
300000
300000
300000
300000
3FFFFE
1FFFFC
000000
000000
000000
ENDCHAR

STARTCHAR A1AA
ENCODING 41386
SWIDTH 960 0
DWIDTH 24 0
BBX 24 24 0 -4
BITMAP
000000
000000
020060
03FFF0
030060
030060
030060
030060
030060
030060
030060
030060
030060
030060
030060
0307E0
0301C0
030180
030000
030000
030000
030000
030000
000000
ENDCHAR

STARTCHAR A1AB
ENCODING 41387
SWIDTH 960 0
DWIDTH 24 0
BBX 24 24 0 -4
BITMAP
000000
000000
003000
003800
003000
003000
003000
006000
006000
00C000
00C000
018000
030300
060180
0C00C0
180070
301FF8
7FFC3C
3F001C
1C000C
000000
000000
000000
000000
ENDCHAR

STARTCHAR A1AC
ENCODING 41388
SWIDTH 960 0
DWIDTH 24 0
BBX 24 24 0 -4
BITMAP
000000
003000
003800
007800
006C00
00C600
018300
030180
0600E0
0C3078
18383E
60301C
003000
003000
003000
003000
003000
003000
003000
003000
003000
003000
003000
000000
ENDCHAR

STARTCHAR A1AD
ENCODING 41389
SWIDTH 960 0
DWIDTH 24 0
BBX 24 24 0 -4
BITMAP
000000
030000
038000
070008
06001C
0FFFFE
0C0C00
180C00
100C00
200C00
400C00
000C00
000C00
000C00
000C00
000C00
000C00
000C00
000C00
000C00
00FC00
001C00
001800
000000
ENDCHAR

STARTCHAR A1AE
ENCODING 41390
SWIDTH 960 0
DWIDTH 24 0
BBX 24 24 0 -4
BITMAP
000000
000060
000070
082060
0430C0
0218C0
021980
011980
010300
008300
00C600
006600
003C00
001C00
001C00
003E00
006700
00C380
0181E0
0300FE
06007C
180018
600000
000000
ENDCHAR

STARTCHAR A1AF
ENCODING 41391
SWIDTH 960 0
DWIDTH 24 0
BBX 24 24 0 -4
BITMAP
000000
003000
007800
00E000
058600
07FF00
060600
060600
060600
060600
060600
060600
060600
060600
060600
060600
0C0604
0C0604
0C0604
180604
18060C
3007FE
6003FC
000000
ENDCHAR

STARTCHAR A1B0
ENCODING 41392
SWIDTH 960 0
DWIDTH 24 0
BBX 24 24 0 -4
BITMAP
000000
000C00
000E00
0C0C00
0E0C00
0C0C00
0C0C00
0C0C00
0C0C00
0C0C00
0C0C00
0C1C00
0FF800
041C00
003C00
003C00
006600
00C300
018180
0300E0
060078
1C001E
70000C
000000
ENDCHAR

STARTCHAR A1B1
ENCODING 41393
SWIDTH 960 0
DWIDTH 24 0
BBX 24 24 0 -4
BITMAP
000000
000040
0000E0
1FFFF0
000000
000008
00001C
7FFFFE
018000
018000
018000
030060
07FFF0
020060
000060
000060
000060
000060
000060
000060
0000E0
001FC0
000180
000000
ENDCHAR

STARTCHAR A1B2
ENCODING 41394
SWIDTH 960 0
DWIDTH 24 0
BBX 24 24 0 -4
BITMAP
000000
000000
000C00
000E00
000C00
001C00
001A00
001B00
003300
003180
006180
0060C0
00C0C0
00C060
018060
030030
060338
0CFF9C
18001E
60000C
000000
000000
000000
000000
ENDCHAR

STARTCHAR A1B3
ENCODING 41395
SWIDTH 960 0
DWIDTH 24 0
BBX 24 24 0 -4
BITMAP
000000
600000
700C00
600E00
600C00
600C00
600C00
600E00
601A00
601B00
601B00
603180
603180
6060C0
6060C0
60C060
618070
63003E
6C001C
600000
60000C
7FFFFE
200000
000000
ENDCHAR

STARTCHAR A1B4
ENCODING 41396
SWIDTH 960 0
DWIDTH 24 0
BBX 24 24 0 -4
BITMAP
000000
606000
703000
601800
601800
601C00
600C00
600E00
601B00
601B00
603180
603180
6060C0
6060C0
60C060
618078
67003E
7C001C
600000
600000
600004
7FFFFE
200000
000000
ENDCHAR

STARTCHAR A1B5
ENCODING 41397
SWIDTH 960 0
DWIDTH 24 0
BBX 24 24 0 -4
BITMAP
000000
006000
006000
006000
046600
07FF00
060600
060600
060600
060600
060600
060600
060600
060600
060600
060600
0C0600
0C0604
0C0604
180604
18060C
3007FE
6003FC
000000
ENDCHAR

STARTCHAR A1B6
ENCODING 41398
SWIDTH 960 0
DWIDTH 24 0
BBX 24 24 0 -4
BITMAP
000000
000000
000030
1FFFF8
003030
003030
103030
083030
043030
026030
016030
00E030
006030
007030
00D830
00CC30
018770
0183F0
0301E0
0603F0
0C3FBE
100F0C
600400
000000
ENDCHAR

STARTCHAR A1B7
ENCODING 41399
SWIDTH 960 0
DWIDTH 24 0
BBX 24 24 0 -4
BITMAP
000000
060300
070380
060300
063300
7FFB00
063300
063300
063300
063300
063300
063300
063300
063300
063300
063300
063304
0C3304
0C3304
183304
18738C
33E3FE
40C1FC
000000
ENDCHAR

STARTCHAR A1B8
ENCODING 41400
SWIDTH 960 0
DWIDTH 24 0
BBX 24 24 0 -4
BITMAP
000000
0300C0
0380E0
0300C0
0300C0
0300C0
0300C0
0300C0
0300C8
0300CC
7FFFFE
0300C0
0300C0
0300C0
0300C0
0300C0
0300C0
0300C0
0300C0
0300C0
0300C0
0300C0
0300C0
000000
ENDCHAR

STARTCHAR A1B9
ENCODING 41401
SWIDTH 960 0
DWIDTH 24 0
BBX 24 24 0 -4
BITMAP
000000
000000
030000
038000
030060
07FFF0
0600E0
0C01C0
0E01C0
1B0380
618380
00C300
006300
003600
001E00
001C00
003C00
007E00
00E700
01C3C0
0381F0
0E00FE
780070
000000
ENDCHAR

STARTCHAR A1BA
ENCODING 41402
SWIDTH 960 0
DWIDTH 24 0
BBX 24 24 0 -4
BITMAP
000000
000000
00C000
00E0C0
00FFF0
00C0E0
61C1C0
1981C0
0F0380
070380
0D8700
30C600
006600
003600
001C00
001C00
003C00
007E00
00E700
01C3C0
0381F0
0E00FE
780070
000000
ENDCHAR

STARTCHAR A1BB
ENCODING 41403
SWIDTH 960 0
DWIDTH 24 0
BBX 24 24 0 -4
BITMAP
000000
000000
000000
000000
000000
004000
006000
003000
003000
101038
3FFFFC
70003E
700070
2000C0
000000
000000
000000
000000
000000
000000
000000
000000
000000
000000
ENDCHAR

STARTCHAR A1BC
ENCODING 41404
SWIDTH 960 0
DWIDTH 24 0
BBX 24 24 0 -4
BITMAP
000000
008208
00C30C
01C71C
018618
038E38
030C38
071C70
061860
0C30C0
1C71C0
38E380
186180
1C71C0
0E38E0
061860
071C70
038E38
01C71C
00E38E
00E38E
004104
000000
000000
ENDCHAR

STARTCHAR A1BD
ENCODING 41405
SWIDTH 960 0
DWIDTH 24 0
BBX 24 24 0 -4
BITMAP
000000
006000
007000
006000
00C100
00C180
018180
070300
0E0300
060600
030600
018C00
00D800
007000
00E000
00C000
0180C0
030060
0E0038
383FFC
7FF81E
3F800E
1E0006
000000
ENDCHAR

STARTCHAR A1BE
ENCODING 41406
SWIDTH 960 0
DWIDTH 24 0
BBX 24 24 0 -4
BITMAP
000000
003000
001808
080C1C
0FFFFE
0C0000
0C0000
0C0000
0C0000
0C0000
0C0000
0C0000
0C0000
0C0000
0C0000
0C0000
0C0000
180000
180000
100000
300000
200000
400000
000000
ENDCHAR

STARTCHAR A1BF
ENCODING 41407
SWIDTH 960 0
DWIDTH 24 0
BBX 24 24 0 -4
BITMAP
000000
020000
7F0000
060000
0C0000
0C0000
180000
180000
330000
3F8000
030000
030000
030000
460000
260000
360000
1C0000
0C0000
0E0000
1B0000
1B8000
31FFFE
607FFC
000000
ENDCHAR

STARTCHAR A1C0
ENCODING 41408
SWIDTH 960 0
DWIDTH 24 0
BBX 24 24 0 -4
BITMAP
000000
000000
000000
000000
000000
000000
000060
1FFFF0
000060
000060
000060
000060
1FFFE0
000060
000060
000060
00006C
7FFFFE
000000
000000
000000
000000
000000
000000
ENDCHAR

STARTCHAR A1C1
ENCODING 41409
SWIDTH 960 0
DWIDTH 24 0
BBX 24 24 0 -4
BITMAP
000000
00C000
00C000
00C000
00C000
00C000
00C180
01FFC0
018180
018180
018180
018180
030180
030300
030300
030300
030300
03FF00
010600
000600
000608
00061C
7FFFFE
000000
ENDCHAR

STARTCHAR A1C2
ENCODING 41410
SWIDTH 960 0
DWIDTH 24 0
BBX 24 24 0 -4
BITMAP
000000
000030
000078
0001F0
000780
001E00
007810
01E038
03807C
3C00F0
0003C0
000F00
001C00
007008
01C01C
07003E
7800F8
0003C0
000780
001E00
007000
03C000
7E0000
000000
ENDCHAR

STARTCHAR A1C3
ENCODING 41411
SWIDTH 960 0
DWIDTH 24 0
BBX 24 24 0 -4
BITMAP
000000
020200
03FF00
030380
030700
030C00
031800
032000
034000
033000
031800
030E00
030700
030300
030300
030700
030E00
037C00
031800
030000
030000
030000
030000
000000
ENDCHAR

STARTCHAR A1C4
ENCODING 41412
SWIDTH 960 0
DWIDTH 24 0
BBX 24 24 0 -4
BITMAP
000000
000C00
000EC0
000C70
000C30
000C04
000C0E
7FFFFE
000C00
000C00
000C00
020C00
010C00
018C00
00DC00
007800
003800
003C00
007600
00E380
0381E0
0F007E
780018
000000
ENDCHAR

STARTCHAR A1C5
ENCODING 41413
SWIDTH 960 0
DWIDTH 24 0
BBX 24 24 0 -4
BITMAP
000000
000600
030700
038600
070600
060600
0C6600
187600
306600
60C600
7FC600
218600
030600
060600
0C0600
180600
306600
603604
7FF604
3C3604
10370C
0007FE
0003FC
000000
ENDCHAR

STARTCHAR A1C6
ENCODING 41414
SWIDTH 960 0
DWIDTH 24 0
BBX 24 24 0 -4
BITMAP
000000
060600
070700
060600
060600
060600
466600
667600
666600
666600
666600
666600
666600
666600
666600
666602
666602
666602
7FE606
204606
00070E
0007FE
0003FC
000000
ENDCHAR

STARTCHAR A1C7
ENCODING 41415
SWIDTH 960 0
DWIDTH 24 0
BBX 24 24 0 -4
BITMAP
000000
007000
003808
00181C
7FFFFE
00C300
00C300
00C300
00C300
00C300
00C300
00C300
00C300
00C300
00C300
018300
018300
018300
030300
030300
060300
180300
000300
000000
ENDCHAR

STARTCHAR A1C8
ENCODING 41416
SWIDTH 960 0
DWIDTH 24 0
BBX 24 24 0 -4
BITMAP
000000
003000
003800
003000
40300C
7FFFFE
60300C
60300C
60780C
606C0C
60CC0C
60C60C
61830C
63038C
6401CC
7800EC
60000C
60000C
60000C
60000C
60007C
60001C
600018
000000
ENDCHAR

STARTCHAR A1C9
ENCODING 41417
SWIDTH 960 0
DWIDTH 24 0
BBX 24 24 0 -4
BITMAP
000000
060000
070000
060000
060030
0C3FF8
0C1030
1C1030
1C1060
3C0860
2C08C0
4C0CC0
0C0580
0C0780
0C0300
0C0700
0C0780
0C0CC0
0C18E0
0C3078
0C603E
0D8018
0C0000
000000
ENDCHAR

STARTCHAR A1CA
ENCODING 41418
SWIDTH 960 0
DWIDTH 24 0
BBX 24 24 0 -4
BITMAP
000000
060000
070180
0601C0
060180
0C0180
0C0180
1C0300
1C0300
3C0300
2C0600
4C0600
0C0600
0C0C00
0C0C00
0C1800
0C1860
0C3030
0C7018
0CFFFC
0C7C0E
0C2006
0C0006
000000
ENDCHAR

STARTCHAR A1CB
ENCODING 41419
SWIDTH 960 0
DWIDTH 24 0
BBX 24 24 0 -4
BITMAP
000000
030180
0381C0
030180
030180
030180
030180
030180
030180
030180
0381C0
0381C0
068340
068340
06C360
0CC660
0CC660
0C6630
186C30
186C18
30381C
20300E
402004
000000
ENDCHAR

STARTCHAR A1CC
ENCODING 41420
SWIDTH 960 0
DWIDTH 24 0
BBX 24 24 0 -4
BITMAP
000000
001800
001C00
003800
003000
006800
00EC00
00C600
018300
030180
0600E0
0C187C
301C38
003800
003000
006800
00EC00
00C600
018380
0301C0
0600F0
0C007C
300038
000000
ENDCHAR

STARTCHAR A1CD
ENCODING 41421
SWIDTH 960 0
DWIDTH 24 0
BBX 24 24 0 -4
BITMAP
000000
0400C0
07FFE0
0600C0
0600C0
0600C0
0600C0
0600D8
3FFFFC
0600C0
0600C0
0600C0
0600C0
0600CC
7FFFFE
0600C0
0600C0
0600C0
0600C0
0600C0
0600C0
0607C0
060180
000000
ENDCHAR

STARTCHAR A1CE
ENCODING 41422
SWIDTH 960 0
DWIDTH 24 0
BBX 24 24 0 -4
BITMAP
000000
10000C
1FFFFE
18180C
18180C
18180C
18180C
18180C
18180C
18180C
18180C
1FFFFC
18000C
18000C
18000C
18000C
18000C
18000C
18000C
18000C
1800FC
18003C
180018
000000
ENDCHAR

STARTCHAR A1CF
ENCODING 41423
SWIDTH 960 0
DWIDTH 24 0
BBX 24 24 0 -4
BITMAP
000000
100008
1FFFFC
30000E
700018
600030
018300
01C380
018300
018300
018300
018300
018300
018300
018300
018300
018300
030300
030304
030304
06038C
1C03FE
7001FC
000000
ENDCHAR

STARTCHAR A1D0
ENCODING 41424
SWIDTH 960 0
DWIDTH 24 0
BBX 24 24 0 -4
BITMAP
000000
000000
300008
1C001C
0DFFFE
0C0300
000300
000300
000300
020300
020300
020300
060300
040300
0C0300
0C0300
180300
780300
180300
180300
181F00
180700
180600
000000
ENDCHAR

STARTCHAR A1D1
ENCODING 41425
SWIDTH 960 0
DWIDTH 24 0
BBX 24 24 0 -4
BITMAP
000000
200060
3FFFF0
300060
300060
37FE60
320760
320660
310660
310C60
318C60
30CC60
30D860
307860
303060
307860
30CC60
318760
3303E4
2601B4
20003C
40001E
40000C
000000
ENDCHAR

STARTCHAR A1D2
ENCODING 41426
SWIDTH 960 0
DWIDTH 24 0
BBX 24 24 0 -4
BITMAP
000000
000000
000060
1FFFF0
00C060
00C060
00C060
10C060
1CC070
0EC078
07C06C
07C066
00C066
018060
018060
030060
030060
060060
060060
0C0060
1800E0
600FC0
000700
000000
ENDCHAR

STARTCHAR A1D3
ENCODING 41427
SWIDTH 960 0
DWIDTH 24 0
BBX 24 24 0 -4
BITMAP
000000
006000
007000
006000
006000
006000
0060C0
7FFFE0
0060C0
0060C0
0060C0
1860D8
1C60CC
3860C6
6060C6
00C0C6
00C0C0
0180C0
0180C0
0300C0
0601C0
0C0F80
700300
000000
ENDCHAR

STARTCHAR A1D4
ENCODING 41428
SWIDTH 960 0
DWIDTH 24 0
BBX 24 24 0 -4
BITMAP
000000
000180
0021C0
7FF180
103180
10318C
1037FE
10618C
08618C
08C18C
0D818C
05818C
07018C
03018C
07018C
07818C
0CC30C
18730C
303E0C
401E0C
000C1C
0008F8
001030
000000
ENDCHAR

STARTCHAR A1D5
ENCODING 41429
SWIDTH 960 0
DWIDTH 24 0
BBX 24 24 0 -4
BITMAP
000000
030000
038000
030000
07000C
07FFFE
06000C
0C600C
18700C
60600C
00600C
00E00C
00F00C
00D80C
01980C
030C0C
06060C
0C038C
1801EC
7000CC
00001C
0001F8
000030
000000
ENDCHAR

STARTCHAR A1D6
ENCODING 41430
SWIDTH 960 0
DWIDTH 24 0
BBX 24 24 0 -4
BITMAP
000000
030000
038000
030000
030000
06000C
0FFFFE
0C000C
18000C
31C00C
40780C
001C0C
000C0C
00000C
00000C
000F0C
00780C
03E00C
01800C
00000C
00001C
0001F8
000030
000000
ENDCHAR

STARTCHAR A1D7
ENCODING 41431
SWIDTH 960 0
DWIDTH 24 0
BBX 24 24 0 -4
BITMAP
000000
200018
3FFFFC
300180
3201C0
310380
308300
30C300
306600
303600
301C00
301C00
301E00
303700
303380
3071C0
30C0E0
318070
330030
340000
300000
3FFFFE
100000
000000
ENDCHAR

STARTCHAR A1D8
ENCODING 41432
SWIDTH 960 0
DWIDTH 24 0
BBX 24 24 0 -4
BITMAP
000000
060300
070380
060300
060300
06030C
065FFE
7FE30C
06030C
06030C
06030C
06030C
06030C
06030C
06030C
06030C
06030C
06060C
06060C
060C0C
06181C
0630F8
064030
000000
ENDCHAR

STARTCHAR A1D9
ENCODING 41433
SWIDTH 960 0
DWIDTH 24 0
BBX 24 24 0 -4
BITMAP
000000
006000
007000
006000
006180
3FFF80
006180
00C184
00C184
018184
01818E
0301FE
0418FC
081C00
301800
001808
00181C
7FFFFE
001800
001800
001800
001800
001800
000000
ENDCHAR

STARTCHAR A1DA
ENCODING 41434
SWIDTH 960 0
DWIDTH 24 0
BBX 24 24 0 -4
BITMAP
000000
00C300
00E380
00C300
00C300
00C300
00C300
00C300
00C300
00C30C
7FC3FE
00C300
00C300
00C300
00C300
00C300
00C300
00C300
00C300
00C300
00C300
00C300
00C300
000000
ENDCHAR

STARTCHAR A1DB
ENCODING 41435
SWIDTH 960 0
DWIDTH 24 0
BBX 24 24 0 -4
BITMAP
000000
10000C
1FFFFE
180000
181800
181C00
181800
181800
181820
1BFFF0
181830
181830
181830
181830
181830
181830
181830
183030
303030
306030
60C070
6183E0
4600C0
000000
ENDCHAR

STARTCHAR A1DC
ENCODING 41436
SWIDTH 960 0
DWIDTH 24 0
BBX 24 24 0 -4
BITMAP
000000
000800
001C00
001800
003008
00301C
7FFFFE
006000
006000
00C000
00C000
018C00
018E00
031800
031800
063180
0660C0
0CC060
198038
63FFFC
01F01E
00E00E
000006
000000
ENDCHAR

STARTCHAR A1DD
ENCODING 41437
SWIDTH 960 0
DWIDTH 24 0
BBX 24 24 0 -4
BITMAP
000000
006000
00F000
00F000
00F000
01E060
038030
0E001C
38000E
7FFFFE
1FF806
0F0006
000000
00C000
01E000
01E000
01C060
038030
0E001C
38000E
7FFFFE
1FF006
0F0006
000000
ENDCHAR

STARTCHAR A1DE
ENCODING 41438
SWIDTH 960 0
DWIDTH 24 0
BBX 24 24 0 -4
BITMAP
000000
00C018
3FEFFC
00C018
00C018
10C418
11C438
198630
198630
198630
0D8360
0D8360
0F03E0
0701C0
0300C0
0301C0
0781E0
0D8360
0D8330
18C338
18C61C
30660E
601804
000000
ENDCHAR

STARTCHAR A1DF
ENCODING 41439
SWIDTH 960 0
DWIDTH 24 0
BBX 24 24 0 -4
BITMAP
000000
0000C0
0FFFF0
0100E0
00C1C0
006380
003600
003C00
007700
03C1E0
1E0078
70001E
0000C0
0FFFF0
0300E0
0181C0
00C380
006600
003C00
007C00
03C700
1E01E0
70007E
000000
ENDCHAR

STARTCHAR A1E0
ENCODING 41440
SWIDTH 960 0
DWIDTH 24 0
BBX 24 24 0 -4
BITMAP
000000
00C000
00E000
00C000
30C018
30DFFC
30C818
30C818
30C830
30C460
30C460
30C6C0
30C2C0
30C380
30C180
30C380
3FC2C0
10C660
00CC78
00C83E
00D018
00C000
00C000
000000
ENDCHAR

STARTCHAR A1E1
ENCODING 41441
SWIDTH 960 0
DWIDTH 24 0
BBX 24 24 0 -4
BITMAP
000000
001800
001C00
001800
001800
001800
001820
001870
1FFFF8
001800
001800
001800
001800
001880
0018C0
001860
001830
001818
001808
001800
001808
00181C
7FFFFE
000000
ENDCHAR

STARTCHAR A1E2
ENCODING 41442
SWIDTH 960 0
DWIDTH 24 0
BBX 24 24 0 -4
BITMAP
000000
003000
183860
1C3070
183060
183060
183060
183060
183060
183060
183060
183060
183060
183060
1FFFE0
083040
003000
003000
003000
003000
003008
00301C
7FFFFE
000000
ENDCHAR

STARTCHAR A1E3
ENCODING 41443
SWIDTH 960 0
DWIDTH 24 0
BBX 24 24 0 -4
BITMAP
000000
000008
00001C
7FFFFE
003000
003000
003000
103030
1FFFF8
183030
183030
183030
183030
183030
183030
183030
183030
1831F0
183060
003000
003000
003000
003000
000000
ENDCHAR

STARTCHAR A1E4
ENCODING 41444
SWIDTH 960 0
DWIDTH 24 0
BBX 24 24 0 -4
BITMAP
000000
000C00
000E60
000C38
000C18
000C00
000C0C
7FFFFE
000600
000600
000600
000300
000300
000300
001980
3FFD80
0000C2
0000C2
000064
00007C
00003C
00001E
000006
000000
ENDCHAR

STARTCHAR A1E5
ENCODING 41445
SWIDTH 960 0
DWIDTH 24 0
BBX 24 24 0 -4
BITMAP
000000
006000
003800
001C00
080C0C
0FFFFE
0C000C
0C000C
0C000C
0C000C
0C000C
0C000C
0FFFFC
0C0008
0C0000
0C0000
0C0000
0C0000
180000
180000
300000
300000
400000
000000
ENDCHAR

STARTCHAR A1E6
ENCODING 41446
SWIDTH 960 0
DWIDTH 24 0
BBX 24 24 0 -4
BITMAP
000000
000008
00001C
0FFFFE
000000
08000C
0FFFFE
0C000C
0C000C
0C000C
0C000C
0C000C
0FFFFC
0C0008
0C0000
0C0000
0C0000
0C0000
180000
180000
300000
300000
400000
000000
ENDCHAR

STARTCHAR A1E7
ENCODING 41447
SWIDTH 960 0
DWIDTH 24 0
BBX 24 24 0 -4
BITMAP
000000
001800
001C00
001800
0018C0
001FE0
001800
001860
07FFF0
030070
0180E0
00C1C0
004180
007300
003600
001C00
001C00
003E00
006300
01C1E0
0700F0
1C007C
600038
000000
ENDCHAR

STARTCHAR A1E8
ENCODING 41448
SWIDTH 960 0
DWIDTH 24 0
BBX 24 24 0 -4
BITMAP
000000
010000
038000
030000
06000C
07FFFE
0C0020
180020
310060
410060
0080C0
00C0C0
006180
003300
001E00
001C00
001E00
003300
0061C0
00C0E0
018078
06003E
38001C
000000
ENDCHAR

STARTCHAR A1E9
ENCODING 41449
SWIDTH 960 0
DWIDTH 24 0
BBX 24 24 0 -4
BITMAP
000000
000020
000070
0FFFF8
001800
001800
001800
003800
003008
00301C
7FFFFE
003600
003600
003600
006600
006604
00C604
00C604
018604
03060C
02070E
0C07FE
3003FC
000000
ENDCHAR

STARTCHAR A1EA
ENCODING 41450
SWIDTH 960 0
DWIDTH 24 0
BBX 24 24 0 -4
BITMAP
000000
000020
100070
1FFFF8
180180
180180
180180
300188
60019C
7FFFFE
200180
000180
030180
018180
00E180
003980
000F80
000380
0001E0
00019C
000F80
000380
000300
000000
ENDCHAR

STARTCHAR A1EB
ENCODING 41451
SWIDTH 960 0
DWIDTH 24 0
BBX 24 24 0 -4
BITMAP
000000
018000
01C000
018000
018000
030060
03FFF0
030C00
060C00
060C00
0C0C00
180C00
300C00
400C60
03FFF0
000C00
000C00
000C00
000C00
000C00
000C18
000C3C
1FFFFE
000000
ENDCHAR

STARTCHAR A1EC
ENCODING 41452
SWIDTH 960 0
DWIDTH 24 0
BBX 24 24 0 -4
BITMAP
000000
001800
001C00
0C1830
0E1838
0C1830
0C1830
0C1830
0C1830
0FFFF0
040020
000000
000000
000040
0000E0
0FFFF0
000000
000000
000000
000000
000008
00001C
7FFFFE
000000
ENDCHAR

STARTCHAR A1ED
ENCODING 41453
SWIDTH 960 0
DWIDTH 24 0
BBX 24 24 0 -4
BITMAP
000000
060000
070030
061FF8
060180
0C0180
0C0180
1C0180
1C0180
3C018C
2C7FFE
4C0180
0C0180
0C0180
0C0180
0C0180
0C0180
0C0180
0C0180
0C0180
0C0180
0C0180
0C0180
000000
ENDCHAR

STARTCHAR A1EE
ENCODING 41454
SWIDTH 960 0
DWIDTH 24 0
BBX 24 24 0 -4
BITMAP
000000
060600
070700
060600
060600
0C0600
0C060C
1DFFFE
1C0600
3C0600
2C0600
4C0F00
0C0D00
0C0D80
0C1C80
0C18C0
0C1840
0C3060
0C3030
0C6038
0CC01C
0D801E
0E000C
000000
ENDCHAR

STARTCHAR A1EF
ENCODING 41455
SWIDTH 960 0
DWIDTH 24 0
BBX 24 24 0 -4
BITMAP
000000
0640C0
077FE0
0660C0
0660C0
0C60C0
0C60C0
1C60C0
1C60C0
3C6CC0
2C66C0
4C66C0
0C62C0
0C60C0
0C60C0
0C60C0
0C60C0
0C60C0
0C60C4
0C40C4
0CC0CC
0C80FE
0D007C
000000
ENDCHAR

STARTCHAR A1F0
ENCODING 41456
SWIDTH 960 0
DWIDTH 24 0
BBX 24 24 0 -4
BITMAP
000000
003000
003800
003000
0030C0
003FE0
003000
003000
003008
00301C
7FFFFE
001800
001C00
003800
003000
006800
00EC00
00C600
018380
0301C0
0600F0
0C007C
300038
000000
ENDCHAR

STARTCHAR A1F1
ENCODING 41457
SWIDTH 960 0
DWIDTH 24 0
BBX 24 24 0 -4
BITMAP
000000
060000
070008
06001C
06FFFE
0C0CC0
0C0CC0
1C0CC0
1C0CC0
3C0CC0
2C0CC0
4C0CC0
0C0CC0
0C0CC0
0C0CC0
0C18C0
0C18C0
0C30C4
0C30C4
0C60CC
0C40FE
0C807C
0D0000
000000
ENDCHAR

STARTCHAR A1F2
ENCODING 41458
SWIDTH 960 0
DWIDTH 24 0
BBX 24 24 0 -4
BITMAP
000000
060300
070380
060300
060300
0C0300
0C0300
1C0300
1C0300
3C0300
2C3340
4C3B20
0C7330
0C6318
0CC31C
0C830C
0D030C
0C0300
0C0300
0C0300
0C1F00
0C0700
0C0600
000000
ENDCHAR

STARTCHAR A1F3
ENCODING 41459
SWIDTH 960 0
DWIDTH 24 0
BBX 24 24 0 -4
BITMAP
000000
060C00
070E00
060C00
060C00
0C0C0C
0C0FFE
1C180C
1C180C
3C3C0C
2C6618
4C4318
0C8318
0C01B0
0C01F0
0C00E0
0C00C0
0C0180
0C0300
0C0600
0C0C00
0C3000
0CC000
000000
ENDCHAR

STARTCHAR A1F4
ENCODING 41460
SWIDTH 960 0
DWIDTH 24 0
BBX 24 24 0 -4
BITMAP
000000
060C00
070E00
060C00
060C00
0C0C00
0C0C60
1C0C6C
1DFFFE
3C1860
2C1860
4C1860
0C3060
0C30C0
0C30C0
0C60C0
0C6180
0C7FC0
0C0360
0C0630
0C0C18
0C181C
0CE00C
000000
ENDCHAR

STARTCHAR A1F5
ENCODING 41461
SWIDTH 960 0
DWIDTH 24 0
BBX 24 24 0 -4
BITMAP
000000
001800
001C00
003800
003C00
007600
01C300
0301C0
060C78
1C1E3E
70380C
007180
00C3C0
018700
060E30
001C78
0070F0
01C1C0
0E0380
000E00
003800
00E000
0F0000
000000
ENDCHAR

STARTCHAR A1F6
ENCODING 41462
SWIDTH 960 0
DWIDTH 24 0
BBX 24 24 0 -4
BITMAP
000000
00E000
007000
003800
006C00
00C600
018300
0301C0
0600E0
0C0078
18003E
60018C
03FFC0
001800
001800
001800
001800
001800
001800
001800
001804
00180E
7FFFFE
000000
ENDCHAR

STARTCHAR A1F7
ENCODING 41463
SWIDTH 960 0
DWIDTH 24 0
BBX 24 24 0 -4
BITMAP
000000
000000
20000C
3FFFFE
30000C
30000C
32018C
33FFCC
33018C
33018C
33018C
33018C
33FF8C
33010C
33000C
33000C
33008C
33808C
33FFCC
31FF8C
30007C
30003C
300018
000000
ENDCHAR

STARTCHAR A1F8
ENCODING 41464
SWIDTH 960 0
DWIDTH 24 0
BBX 24 24 0 -4
BITMAP
000000
40000C
7FFFFE
60000C
60000C
60000C
62030C
63FF8C
63030C
63030C
63030C
63030C
63030C
63030C
63030C
63030C
63FF0C
61020C
60000C
60001C
6001FC
600078
600030
000000
ENDCHAR

STARTCHAR A1F9
ENCODING 41465
SWIDTH 960 0
DWIDTH 24 0
BBX 24 24 0 -4
BITMAP
000000
086430
0FF7F8
0C6630
0C6630
0C6630
0C6630
0C6630
0C6630
0C6634
7FFFFE
0C6630
0C6630
0C6630
0C6630
0C6630
0C6630
0C6630
0C6630
0C6630
0C6630
0DE6F0
0CC660
000000
ENDCHAR

STARTCHAR A1FA
ENCODING 41466
SWIDTH 960 0
DWIDTH 24 0
BBX 24 24 0 -4
BITMAP
000000
100008
1FFFFC
30000E
730018
638030
030080
03FFC0
030000
060180
0FFFC0
000180
000180
000188
00019C
1FFFFE
000180
000180
000180
000180
000380
003F00
000600
000000
ENDCHAR

STARTCHAR A1FB
ENCODING 41467
SWIDTH 960 0
DWIDTH 24 0
BBX 24 24 0 -4
BITMAP
000000
080018
0FFFFC
0C0018
0C0018
0C0018
0FFFF8
0C0010
0C0000
0C4180
0C7FC0
0C6180
0C6180
0C6180
0C6180
0C6180
0C6180
0C6184
0CC184
18C184
1981CC
3301FE
4C00FC
000000
ENDCHAR

STARTCHAR A1FC
ENCODING 41468
SWIDTH 960 0
DWIDTH 24 0
BBX 24 24 0 -4
BITMAP
000000
000000
0C000C
0E7FFE
0C060C
0C060C
0C060C
0D060C
7F860C
0C060C
0C060C
0C060C
0C060C
0C060C
0C060C
0C0C0C
0C0C0C
0C180C
0F980C
7E300C
78601C
30C1F8
010030
000000
ENDCHAR

STARTCHAR A1FD
ENCODING 41469
SWIDTH 960 0
DWIDTH 24 0
BBX 24 24 0 -4
BITMAP
000000
00600C
01F00E
0FC18C
3301CC
03018C
03018C
03018C
03018C
03118C
7FF98C
03018C
03018C
03018C
03018C
03018C
06018C
06018C
04000C
0C000C
0800FC
10001C
200018
000000
ENDCHAR

STARTCHAR A1FE
ENCODING 41470
SWIDTH 960 0
DWIDTH 24 0
BBX 24 24 0 -4
BITMAP
000000
03000C
039FFE
03018C
07018C
06018C
0C018C
0C618C
18618C
30E18C
61C18C
7F818C
23018C
06018C
0C018C
18430C
30630C
60260C
7FE60C
3F2C0C
1C181C
0011FC
000018
000000
ENDCHAR

STARTCHAR A2A1
ENCODING 41633
SWIDTH 960 0
DWIDTH 24 0
BBX 24 24 0 -4
BITMAP
000000
20000C
3FFFFE
30000C
30300C
30380C
3030CC
37FFEC
3030CC
3030CC
3030CC
3030CC
3030CC
3030CC
3060CC
3060CC
30C0CC
3181CC
33078C
30030C
30000C
3FFFFC
100008
000000
ENDCHAR

STARTCHAR A2A2
ENCODING 41634
SWIDTH 960 0
DWIDTH 24 0
BBX 24 24 0 -4
BITMAP
000000
060000
070000
06000C
0FFFFE
0C000C
18400C
60600C
00300C
0010CC
0FFFEC
03000C
03000C
03000C
03000C
03FFCC
01FF8C
00000C
00000C
00000C
00001C
0001F8
000070
000000
ENDCHAR

STARTCHAR A2A3
ENCODING 41635
SWIDTH 960 0
DWIDTH 24 0
BBX 24 24 0 -4
BITMAP
000000
060000
070000
06000C
0FFFFE
0C000C
18000C
60180C
0C1C0C
0C300C
0C380C
0C6C0C
0CC60C
0D830C
0F018C
0C000C
0FFFEC
04000C
00000C
00000C
00001C
0000F8
000030
000000
ENDCHAR

STARTCHAR A2A4
ENCODING 41636
SWIDTH 960 0
DWIDTH 24 0
BBX 24 24 0 -4
BITMAP
000000
060000
070000
06000C
0FFFFE
0C000C
18000C
60800C
00E00C
00C30C
00FF8C
01830C
03830C
06C30C
18760C
003E0C
001E0C
000C0C
00180C
00300C
00E01C
0380F8
000030
000000
ENDCHAR

STARTCHAR A2A5
ENCODING 41637
SWIDTH 960 0
DWIDTH 24 0
BBX 24 24 0 -4
BITMAP
000000
030000
038000
030000
030000
06000C
0FFFFE
0C60CC
1860CC
3060CC
4CC0CC
03C18C
01C18C
01E30C
033E0C
060E0C
1C1B8C
7018EC
00307C
00E03C
03807E
0E03E6
0001C0
000000
ENDCHAR

STARTCHAR A2A6
ENCODING 41638
SWIDTH 960 0
DWIDTH 24 0
BBX 24 24 0 -4
BITMAP
000000
000010
200038
3FFFFC
300000
300040
3000E0
33FFF0
300C00
300C00
300C00
300C00
300C00
300C00
300C00
300C10
300C38
37FFFC
300000
300008
30001C
3FFFFE
100000
000000
ENDCHAR

STARTCHAR A2A7
ENCODING 41639
SWIDTH 960 0
DWIDTH 24 0
BBX 24 24 0 -4
BITMAP
000000
000180
0001C0
000180
000180
40C180
7FE180
60C180
60C1C0
60C1E0
60C1B0
60C19C
60C18E
60C186
60C180
60C180
60C180
60C180
7FC180
208180
000180
000180
000180
000000
ENDCHAR

STARTCHAR A2A8
ENCODING 41640
SWIDTH 960 0
DWIDTH 24 0
BBX 24 24 0 -4
BITMAP
000000
000000
00020C
00C3FE
7FE30C
06030C
06030C
06030C
06030C
06030C
06030C
06030C
06030C
06030C
06030C
06030C
06037C
07E318
7F0310
380300
000300
000300
000300
000000
ENDCHAR

STARTCHAR A2A9
ENCODING 41641
SWIDTH 960 0
DWIDTH 24 0
BBX 24 24 0 -4
BITMAP
000000
000008
10001C
1FFFFE
180000
180010
180038
1BFFFC
183000
183000
183060
183FF0
183060
183060
183060
183060
183060
106060
306060
30C060
2180E0
630FC0
4C0380
000000
ENDCHAR

STARTCHAR A2AA
ENCODING 41642
SWIDTH 960 0
DWIDTH 24 0
BBX 24 24 0 -4
BITMAP
000000
003000
003808
00301C
7FFFFE
007800
006C00
00C600
018380
0331E0
0678F8
1C783E
707818
00F000
01E000
0380C0
070060
0C0038
381FDC
7FFC0C
1FC00C
0C000C
000000
000000
ENDCHAR

STARTCHAR A2AB
ENCODING 41643
SWIDTH 960 0
DWIDTH 24 0
BBX 24 24 0 -4
BITMAP
000000
000300
000F80
00FFE0
0FC000
00C000
00C00C
7FFFFE
018000
018000
018020
037FF0
032060
061060
0610C0
0C0D80
180780
600300
000780
000EE0
001C78
00703E
03800C
000000
ENDCHAR

STARTCHAR A2AC
ENCODING 41644
SWIDTH 960 0
DWIDTH 24 0
BBX 24 24 0 -4
BITMAP
000000
000600
000700
40C600
7FE600
60C600
60C600
60C600
60C600
60C600
60C600
60CE00
60CF00
60CD80
60CD80
7FD8C0
20B0C0
006060
00C070
018038
03001C
0E000E
700004
000000
ENDCHAR

STARTCHAR A2AD
ENCODING 41645
SWIDTH 960 0
DWIDTH 24 0
BBX 24 24 0 -4
BITMAP
000000
000180
0001C0
430180
7F8180
630180
630180
630180
63018C
633FFE
630180
630180
630180
630180
630180
630180
630180
7F0180
220180
000180
000180
000180
000180
000000
ENDCHAR

STARTCHAR A2AE
ENCODING 41646
SWIDTH 960 0
DWIDTH 24 0
BBX 24 24 0 -4
BITMAP
000000
0C0018
0FFFFC
0C0018
0C0018
0C0018
0C0018
0FFFF8
040010
000008
00001C
7FFFFE
018000
03C000
060018
0FFFFC
040018
000018
000018
000018
000038
0003F0
0000C0
000000
ENDCHAR

STARTCHAR A2AF
ENCODING 41647
SWIDTH 960 0
DWIDTH 24 0
BBX 24 24 0 -4
BITMAP
000000
000018
007FFC
002018
002018
40A018
7FD030
60D830
60C830
60C860
60CC60
60C460
60C6C0
60C3C0
60C380
60C300
7FC780
208680
000CC0
001860
003070
00603E
01800C
000000
ENDCHAR

STARTCHAR A2B0
ENCODING 41648
SWIDTH 960 0
DWIDTH 24 0
BBX 24 24 0 -4
BITMAP
000000
000C00
000E00
000C00
000C00
418C00
7FCC00
618C60
61FFF0
618C60
618C60
618C60
618C60
618C60
619860
619864
7FB064
213064
006064
00C06E
01807E
02003C
040000
000000
ENDCHAR

STARTCHAR A2B1
ENCODING 41649
SWIDTH 960 0
DWIDTH 24 0
BBX 24 24 0 -4
BITMAP
000000
018000
01C000
018000
018180
7FFFC0
018180
018180
030184
030184
06018C
0C01FE
1800FC
600000
080060
0FFFF0
0C0060
0C0060
0C0060
0C0060
0C0060
0FFFE0
040040
000000
ENDCHAR

STARTCHAR A2B2
ENCODING 41650
SWIDTH 960 0
DWIDTH 24 0
BBX 24 24 0 -4
BITMAP
000000
40000C
7FFFFE
60000C
60004C
6FFFEC
6200CC
6300CC
63018C
61018C
61830C
60E60C
607C0C
60380C
607C0C
60C70C
61838C
6701FC
7C00CC
60000C
60000C
7FFFFC
200008
000000
ENDCHAR

STARTCHAR A2B3
ENCODING 41651
SWIDTH 960 0
DWIDTH 24 0
BBX 24 24 0 -4
BITMAP
000000
0C0300
0E0380
0C0300
0C0300
0C0300
0D030C
7FBFFE
0C030C
0C030C
0C030C
0C030C
0C030C
0C030C
0C030C
0C060C
0C060C
0F8C0C
7E0C0C
38180C
10301C
0060F8
008030
000000
ENDCHAR

STARTCHAR A2B4
ENCODING 41652
SWIDTH 960 0
DWIDTH 24 0
BBX 24 24 0 -4
BITMAP
000000
000300
0C0300
0E0300
0C0300
0C0300
0C0300
0D0300
7F8300
0C0380
0C0370
0C0338
0C031C
0C030C
0C0300
0C0300
0C0300
0C0300
0F8300
7E0300
780300
300300
000300
000000
ENDCHAR

STARTCHAR A2B5
ENCODING 41653
SWIDTH 960 0
DWIDTH 24 0
BBX 24 24 0 -4
BITMAP
000000
060000
070180
0601C0
060180
062180
0FF180
0C6180
0C6180
1861C0
34C340
46C360
03C630
01861C
01CC0E
037804
033000
061800
060C00
0C0700
1801E0
30007E
40001C
000000
ENDCHAR

STARTCHAR A2B6
ENCODING 41654
SWIDTH 960 0
DWIDTH 24 0
BBX 24 24 0 -4
BITMAP
000000
060000
070000
06040C
0C07FE
0C360C
0FFE0C
0C360C
18660C
18660C
3C660C
66C60C
03C60C
00C60C
01861C
0186F8
030630
030600
060600
060600
0C0600
180600
600600
000000
ENDCHAR

STARTCHAR A2B7
ENCODING 41655
SWIDTH 960 0
DWIDTH 24 0
BBX 24 24 0 -4
BITMAP
000000
003000
003800
003000
003000
003000
003008
7FFFFE
003000
006800
00CC00
018600
033300
063980
0C30E0
183078
73FFBE
003018
003000
003000
003000
003000
003000
000000
ENDCHAR

STARTCHAR A2B8
ENCODING 41656
SWIDTH 960 0
DWIDTH 24 0
BBX 24 24 0 -4
BITMAP
000000
001800
001C10
001838
7FFFFC
003800
006C00
00C600
018300
030180
0600E0
0D8378
19C3BE
61830C
018300
018300
018300
018300
018300
018300
030300
060300
180300
000000
ENDCHAR

STARTCHAR A2B9
ENCODING 41657
SWIDTH 960 0
DWIDTH 24 0
BBX 24 24 0 -4
BITMAP
000000
000600
018700
00E600
006600
006600
000600
0C0600
070600
030600
030600
000608
000E1C
7FFFFE
001E00
003300
006180
00C1C0
0180E0
030070
060038
1C001E
70000C
000000
ENDCHAR

STARTCHAR A2BA
ENCODING 41658
SWIDTH 960 0
DWIDTH 24 0
BBX 24 24 0 -4
BITMAP
000000
003000
003800
003000
003008
7FFFFC
006C00
00C600
018380
0701E0
1C007E
700018
0C0030
0E0038
0C0030
0C0030
0C0030
0C0030
0C0030
0C0030
0C0030
0FFFF0
040020
000000
ENDCHAR

STARTCHAR A2BB
ENCODING 41659
SWIDTH 960 0
DWIDTH 24 0
BBX 24 24 0 -4
BITMAP
000000
060000
070000
06001C
063FFE
0600C0
0660C0
7FF8C0
0C60C0
0C60C0
0C60C0
0860C0
18C0C0
18C0C0
3EC0C0
1380C0
0180C0
03C0C0
06E0C0
0C60C0
1867C0
300180
400100
000000
ENDCHAR

STARTCHAR A2BC
ENCODING 41660
SWIDTH 960 0
DWIDTH 24 0
BBX 24 24 0 -4
BITMAP
000000
00C000
006000
083008
1FFFFC
30000E
700018
600010
0000C0
07FFC0
020180
020380
010300
018700
00C600
006C00
003C00
001800
003E00
006700
00C3C0
0381FE
1E0078
000000
ENDCHAR

STARTCHAR A2BD
ENCODING 41661
SWIDTH 960 0
DWIDTH 24 0
BBX 24 24 0 -4
BITMAP
000000
006000
003000
101808
3FFFFC
30000E
700018
600000
018600
018600
018600
018600
018600
018600
018600
018600
018600
038604
030604
060604
0C070E
1807FE
6003FC
000000
ENDCHAR

STARTCHAR A2BE
ENCODING 41662
SWIDTH 960 0
DWIDTH 24 0
BBX 24 24 0 -4
BITMAP
000000
000030
000038
004030
3FE030
107030
106030
106034
106FFE
106030
106030
08C230
08C130
08C1B0
0D81B0
0D8030
070030
070030
070030
0D8030
18C1F0
307070
403C60
000000
ENDCHAR

STARTCHAR A2BF
ENCODING 41663
SWIDTH 960 0
DWIDTH 24 0
BBX 24 24 0 -4
BITMAP
000000
010000
038000
030000
060004
0FFFFE
0C180C
181818
181800
301800
201800
431900
0398C0
031870
061838
06181C
0C181C
18180C
601800
001800
003800
00F800
003000
000000
ENDCHAR

STARTCHAR A2C0
ENCODING 41664
SWIDTH 960 0
DWIDTH 24 0
BBX 24 24 0 -4
BITMAP
000000
08000C
0FFFFE
0C000C
0C000C
0C000C
0FFFFC
0C0008
0C0000
0C0010
0DFFF8
0C4030
0C6060
0C20C0
0C3180
0C1B00
0C0E00
0C0F00
181980
1830E0
306070
30C03E
4F000C
000000
ENDCHAR

STARTCHAR A2C1
ENCODING 41665
SWIDTH 960 0
DWIDTH 24 0
BBX 24 24 0 -4
BITMAP
000000
0C0860
0E0FF0
0C0C60
0C0C60
0C0C60
6D8C60
6DCC60
6D8C60
6D8C60
6D8C60
6D8C60
6D8C60
6D8C60
6D8C60
6D8C60
6D8C60
6D8C64
7F8C64
211864
00186C
00307E
00403C
000000
ENDCHAR

STARTCHAR A2C2
ENCODING 41666
SWIDTH 960 0
DWIDTH 24 0
BBX 24 24 0 -4
BITMAP
000000
001800
181C18
1C1818
18181C
181818
181818
1FFFF8
080010
001800
001C00
001800
003000
003800
007800
006C00
00C600
018300
030180
0600C0
0C0070
18003E
60001C
000000
ENDCHAR

STARTCHAR A2C3
ENCODING 41667
SWIDTH 960 0
DWIDTH 24 0
BBX 24 24 0 -4
BITMAP
000000
001800
181C18
1C1818
18181C
181818
181818
1FFFF8
080010
00C000
006000
003000
003000
001800
003C00
006600
00C300
018180
0300E0
060070
0C003C
38001E
700004
000000
ENDCHAR

STARTCHAR A2C4
ENCODING 41668
SWIDTH 960 0
DWIDTH 24 0
BBX 24 24 0 -4
BITMAP
000000
001800
0C1C30
0E1838
0C1830
0C1830
0FFFF0
040020
000030
1FFFF8
006030
006060
0060C0
00C18C
00C1FE
00C08C
01800C
03000C
03000C
060018
0C0038
1801F0
600060
000000
ENDCHAR

STARTCHAR A2C5
ENCODING 41669
SWIDTH 960 0
DWIDTH 24 0
BBX 24 24 0 -4
BITMAP
000000
000000
000030
1FFFF8
000030
000030
000030
000030
100030
1FFFF0
180020
180000
180000
180030
1FFFF8
180030
180030
180030
180030
180030
1FFFF0
080010
000000
000000
ENDCHAR

STARTCHAR A2C6
ENCODING 41670
SWIDTH 960 0
DWIDTH 24 0
BBX 24 24 0 -4
BITMAP
000000
0C1800
0E1C00
0C1800
0C1800
4D9800
7FD800
6D9800
6D9808
6D981C
6D9FFE
6D9800
6D9800
6D9800
6D9800
6D9800
6F9800
6D1804
0C1804
0C1804
0C180C
0C1FFE
0C0FFC
000000
ENDCHAR

STARTCHAR A2C7
ENCODING 41671
SWIDTH 960 0
DWIDTH 24 0
BBX 24 24 0 -4
BITMAP
000000
003800
001C08
100C1C
1FFFFE
180000
180000
180010
180038
1BFFFC
180600
180600
180600
180600
180600
180600
180600
180600
180600
100600
300600
207E00
400C00
000000
ENDCHAR

STARTCHAR A2C8
ENCODING 41672
SWIDTH 960 0
DWIDTH 24 0
BBX 24 24 0 -4
BITMAP
000000
003000
001808
080C1C
0FFFFE
0C0000
0C0000
0C0000
0C0C00
0C0E00
0C0C00
0C1800
0C1800
0C1800
0C3000
0C3000
0C6000
1860C0
18C070
1187F8
33FE1C
23E01C
41800C
000000
ENDCHAR

STARTCHAR A2C9
ENCODING 41673
SWIDTH 960 0
DWIDTH 24 0
BBX 24 24 0 -4
BITMAP
000000
000C00
000E60
000C38
000C18
000C00
000C0C
7FFFFE
000600
000600
000600
000300
006300
3FF300
000180
000180
0000C2
0060C2
3FF064
00007C
00003C
00001E
000006
000000
ENDCHAR

STARTCHAR A2CA
ENCODING 41674
SWIDTH 960 0
DWIDTH 24 0
BBX 24 24 0 -4
BITMAP
000000
030000
038000
03000C
037FFE
03000C
63000C
73000C
3B000C
0F000C
07000C
037FFC
03000C
03000C
03000C
03000C
06000C
06000C
0C7FFC
0C0008
180000
300000
400000
000000
ENDCHAR

STARTCHAR A2CB
ENCODING 41675
SWIDTH 960 0
DWIDTH 24 0
BBX 24 24 0 -4
BITMAP
000000
060000
070008
0E001C
0C7FFE
180180
330180
438180
070180
060180
0E0180
1E0180
360180
460180
060180
060180
060180
060180
060180
060180
060F80
060380
060300
000000
ENDCHAR

STARTCHAR A2CC
ENCODING 41676
SWIDTH 960 0
DWIDTH 24 0
BBX 24 24 0 -4
BITMAP
000000
0C0000
0E0008
0C001C
0CFFFE
0C0180
0C0180
2F0180
2D8180
2D8180
6C0180
6C0180
0C0180
0C0180
0C0180
0C0180
0C0180
0C0180
0C0180
0C0180
0C0F80
0C0380
0C0300
000000
ENDCHAR

STARTCHAR A2CD
ENCODING 41677
SWIDTH 960 0
DWIDTH 24 0
BBX 24 24 0 -4
BITMAP
000000
0C0180
0E01C0
0C0180
0C0180
0C0180
2E018C
2D3FFE
2D818C
6D818C
6C030C
6C030C
0C030C
0C060C
0C060C
0C060C
0C0C0C
0C0C0C
0C180C
0C180C
0C301C
0C60F8
0C0030
000000
ENDCHAR

STARTCHAR A2CE
ENCODING 41678
SWIDTH 960 0
DWIDTH 24 0
BBX 24 24 0 -4
BITMAP
000000
000780
04FFE0
07F000
060018
07FFFC
060018
07FFF8
060010
060020
06FFF0
060060
0600C0
060180
0C0300
0C0600
0C0C00
0C1800
0C3004
186004
18C00C
30FFFE
407FFC
000000
ENDCHAR

STARTCHAR A2CF
ENCODING 41679
SWIDTH 960 0
DWIDTH 24 0
BBX 24 24 0 -4
BITMAP
000000
060000
07000C
063FFE
06030C
06430C
7FE30C
06030C
06030C
06430C
06830C
07030C
0E030C
7E030C
76030C
26030C
06060C
06060C
060C0C
06181C
3E30FC
0E6038
0C8030
000000
ENDCHAR

STARTCHAR A2D0
ENCODING 41680
SWIDTH 960 0
DWIDTH 24 0
BBX 24 24 0 -4
BITMAP
000000
060C00
070E00
060C00
060C00
064C00
7FECC0
063FE0
060CC0
064CC0
068CC0
070CC0
0E0CC0
7E0CC0
760CC0
260CC0
0618C0
0618C0
0618C4
0630C4
3E30CC
0E60FE
0D807C
000000
ENDCHAR

STARTCHAR A2D1
ENCODING 41681
SWIDTH 960 0
DWIDTH 24 0
BBX 24 24 0 -4
BITMAP
000000
308018
38FFFC
30C018
30C018
30C018
30C018
30C018
30C018
30C018
30C018
30FFF8
30C018
30C018
30C018
30C018
30C018
30C018
30C018
30C018
30FFF8
304010
000000
000000
ENDCHAR

STARTCHAR A2D2
ENCODING 41682
SWIDTH 960 0
DWIDTH 24 0
BBX 24 24 0 -4
BITMAP
000000
003000
003A00
003180
0031C0
0030C8
00301C
7FFFFE
007000
007800
00FC00
01F600
01B300
033380
0631E0
0C30F0
18307E
30303C
403010
003000
003000
003000
003000
000000
ENDCHAR

STARTCHAR A2D3
ENCODING 41683
SWIDTH 960 0
DWIDTH 24 0
BBX 24 24 0 -4
BITMAP
000000
000600
000700
000630
0007F8
000600
000600
006620
007FF0
006038
00C030
018060
03E0C0
063980
180F00
000600
000C00
001800
003000
006000
00C000
030000
3C0000
000000
ENDCHAR

STARTCHAR A2D4
ENCODING 41684
SWIDTH 960 0
DWIDTH 24 0
BBX 24 24 0 -4
BITMAP
000000
000380
7FF1C0
006180
00C184
00818E
019198
017DB0
0319A0
021998
063988
04318C
0C7186
08C182
198180
380180
300182
700F82
700306
600006
60007E
3FFFFE
0FFFF8
000000
ENDCHAR

STARTCHAR A2D5
ENCODING 41685
SWIDTH 960 0
DWIDTH 24 0
BBX 24 24 0 -4
BITMAP
000000
001800
101C00
0C1800
0E1800
061800
001800
401800
301800
381800
181818
02187C
021FE0
041800
041800
0C1800
181804
781804
381804
1C1804
0C1C04
0C1FFE
0C0FF8
000000
ENDCHAR

STARTCHAR A2D6
ENCODING 41686
SWIDTH 960 0
DWIDTH 24 0
BBX 24 24 0 -4
BITMAP
000000
000000
100000
0C20C0
0E3FE0
0630C0
0030C0
4030C0
3030C0
3830C0
1830C0
0230C0
0230C0
0430C0
0430C0
0C30C0
1830C0
7860C8
3860C8
1C40D8
0C80FC
0D0078
000000
000000
ENDCHAR

STARTCHAR A2D7
ENCODING 41687
SWIDTH 960 0
DWIDTH 24 0
BBX 24 24 0 -4
BITMAP
000000
001800
001C00
001800
0C1810
061818
07183C
031870
0018C0
00D980
7FDA00
01D900
019980
0198C0
031860
031830
061838
0C181C
18180E
601804
001800
00F800
003000
000000
ENDCHAR

STARTCHAR A2D8
ENCODING 41688
SWIDTH 960 0
DWIDTH 24 0
BBX 24 24 0 -4
BITMAP
000000
000600
100700
0C0600
0E0600
060600
000600
400600
300600
380600
180600
020600
020600
040700
040F00
0C0D80
180D80
7818C0
3818E0
1C3070
0C6038
0CC01E
0D000C
000000
ENDCHAR

STARTCHAR A2D9
ENCODING 41689
SWIDTH 960 0
DWIDTH 24 0
BBX 24 24 0 -4
BITMAP
000000
000008
10001C
0CFFFE
0E0600
060600
000600
400600
300C00
380C00
181818
021FFC
020018
040018
040018
0C0018
180018
780018
380030
1C0030
0C0070
0C03E0
0C00C0
000000
ENDCHAR

STARTCHAR A2DA
ENCODING 41690
SWIDTH 960 0
DWIDTH 24 0
BBX 24 24 0 -4
BITMAP
000000
001800
031C00
7F9800
0C1800
0C1800
0C1800
0C1800
0C1800
0C1800
0D1800
7F9800
0C1800
0C1800
0C1800
0C1800
0C1804
0C1804
0D9804
0F1804
7E1806
781FFE
200FFC
000000
ENDCHAR

STARTCHAR A2DB
ENCODING 41691
SWIDTH 960 0
DWIDTH 24 0
BBX 24 24 0 -4
BITMAP
000000
002000
001808
080C1C
0FFFFE
4C0000
6C0000
3C0000
2C0000
0C0000
0C0000
3C0000
6C0000
4C0000
0C0000
0C0000
180000
180000
180000
100000
300000
200000
400000
000000
ENDCHAR

STARTCHAR A2DC
ENCODING 41692
SWIDTH 960 0
DWIDTH 24 0
BBX 24 24 0 -4
BITMAP
000000
000000
000000
000000
003030
1FF878
0035C0
003700
00640C
18621E
0EC338
07C1E0
0180C0
0300E0
060070
0C0038
18001E
60000C
000000
000000
000000
000000
000000
000000
ENDCHAR

STARTCHAR A2DD
ENCODING 41693
SWIDTH 960 0
DWIDTH 24 0
BBX 24 24 0 -4
BITMAP
000000
00020C
0003FE
00330C
7FFB0C
103318
103330
103320
086340
086330
0C6318
0CC30C
06C30E
078306
038306
03030E
03831C
06C378
066330
0C7300
183F00
601B00
000300
000000
ENDCHAR

STARTCHAR A2DE
ENCODING 41694
SWIDTH 960 0
DWIDTH 24 0
BBX 24 24 0 -4
BITMAP
000000
00220C
0073FE
7FFB0C
03030C
030318
030330
030320
030340
030330
030318
03030C
03030E
030306
030306
03030E
03031C
030378
030330
030300
1F0300
070300
060300
000000
ENDCHAR

STARTCHAR A2DF
ENCODING 41695
SWIDTH 960 0
DWIDTH 24 0
BBX 24 24 0 -4
BITMAP
000000
08620C
0FF3FE
0C630C
0C630C
0C6318
0C6330
0C6320
0C6340
0C6330
0C6318
0C630C
0C630E
0C6306
0C6306
0C630E
0C631C
0C6378
0C6330
186300
186300
307F00
603B00
000000
ENDCHAR

STARTCHAR A2E0
ENCODING 41696
SWIDTH 960 0
DWIDTH 24 0
BBX 24 24 0 -4
BITMAP
000000
410000
7F8004
63BFFE
6300C0
6600C0
6400C0
6800C0
6400C0
6200C0
6300C0
6180C0
6180C0
6180C0
6380C0
6F00C0
6600C0
6000C0
6000C0
6000C0
6000C0
6007C0
600180
000000
ENDCHAR

STARTCHAR A2E1
ENCODING 41697
SWIDTH 960 0
DWIDTH 24 0
BBX 24 24 0 -4
BITMAP
000000
00001C
7FFFFE
003000
003000
003000
403018
7FFFFC
603018
603018
603018
603018
663198
6731D8
663198
663198
663198
663198
663198
67FF98
620118
600078
600030
000000
ENDCHAR

STARTCHAR A2E2
ENCODING 41698
SWIDTH 960 0
DWIDTH 24 0
BBX 24 24 0 -4
BITMAP
000000
00C600
00E700
00C600
00C600
00C600
00C608
00C61C
7FC7FE
00C600
00C600
00C600
00C600
00C600
00C604
00E604
07C60C
7E07FE
3803FC
000000
000010
000038
7FFFFE
000000
ENDCHAR

STARTCHAR A2E3
ENCODING 41699
SWIDTH 960 0
DWIDTH 24 0
BBX 24 24 0 -4
BITMAP
000000
000780
003FC0
07FC00
003000
003000
003020
1FFFF0
003000
003000
003000
003004
7FFFFE
007000
00E000
01C000
038300
070180
0F00C0
1C1FE0
3FF870
3F0030
180030
000000
ENDCHAR

STARTCHAR A2E4
ENCODING 41700
SWIDTH 960 0
DWIDTH 24 0
BBX 24 24 0 -4
BITMAP
000000
030300
038380
070300
060300
0CC300
0C6300
183300
31FB00
7F3B00
3C1B00
000300
000300
203300
3FFB00
303300
303304
303304
303304
303304
30330C
3FF3FE
1021FC
000000
ENDCHAR

STARTCHAR A2E5
ENCODING 41701
SWIDTH 960 0
DWIDTH 24 0
BBX 24 24 0 -4
BITMAP
000000
003000
007000
00E300
00FF80
018300
030600
1C0C00
001830
1FFFF8
003030
003034
7FFFFE
003030
003030
1FFFF0
003020
003000
003000
003000
007000
01F000
006000
000000
ENDCHAR

STARTCHAR A2E6
ENCODING 41702
SWIDTH 960 0
DWIDTH 24 0
BBX 24 24 0 -4
BITMAP
000000
000018
3FFFFC
000000
000000
000000
040060
07FFF0
060060
060060
060060
060060
07FFE0
060060
060060
060060
060060
07FFE0
020040
000000
000008
00001C
7FFFFE
000000
ENDCHAR

STARTCHAR A2E7
ENCODING 41703
SWIDTH 960 0
DWIDTH 24 0
BBX 24 24 0 -4
BITMAP
000000
060300
070380
060300
060330
0C7FF8
0C0300
1C0300
1C0300
3C0330
2C7FF8
4C0300
0C0300
0C0300
0C0318
0CFFFC
0C0300
0C0300
0C0300
0C0300
0C0300
0C0300
0C0300
000000
ENDCHAR

STARTCHAR A2E8
ENCODING 41704
SWIDTH 960 0
DWIDTH 24 0
BBX 24 24 0 -4
BITMAP
000000
060300
070380
060300
060300
0C0300
0C3320
1C3B10
1C3318
3C630C
2C630E
4CC306
0C8306
0D0310
0C0338
0C033C
0C0370
0C00E0
0C01C0
0C0300
0C0600
0C1800
0CE000
000000
ENDCHAR

STARTCHAR A2E9
ENCODING 41705
SWIDTH 960 0
DWIDTH 24 0
BBX 24 24 0 -4
BITMAP
000000
060400
070600
060300
060300
0C4184
0C7FFE
1C6186
1C6186
3C63C6
2C63E6
4C667E
0C6C3E
0C781E
0C6006
0C6006
0C6006
0C6006
0C6006
0C6006
0C603E
0C600E
0C600C
000000
ENDCHAR

STARTCHAR A2EA
ENCODING 41706
SWIDTH 960 0
DWIDTH 24 0
BBX 24 24 0 -4
BITMAP
000000
060C00
071E60
063870
067860
0CF860
0DD860
1C1860
1C1860
3C1864
2DFFFE
4C1860
0C1860
0C1860
0C1860
0C1860
0C1860
0C1860
0C1860
0C3060
0C3060
0C6060
0D8060
000000
ENDCHAR

STARTCHAR A2EB
ENCODING 41707
SWIDTH 960 0
DWIDTH 24 0
BBX 24 24 0 -4
BITMAP
000000
0600C0
0703E0
060F80
067E00
0C0600
0C0600
1C0600
1C0618
3DFFFC
2C0600
4C0600
0C0E00
0C0F00
0C0D80
0C1980
0C18C0
0C30C0
0C3060
0C6070
0CC038
0C801E
0D000C
000000
ENDCHAR

STARTCHAR A2EC
ENCODING 41708
SWIDTH 960 0
DWIDTH 24 0
BBX 24 24 0 -4
BITMAP
000000
066000
077000
066000
066000
0C600C
0C7FFE
1C6CCC
1CCCCC
3CCCCC
2D8CCC
4D0CCC
0C0CCC
0C18CC
0C198C
0C198C
0C318C
0C330C
0C630C
0CC61C
0D8CF8
0E1838
0C2030
000000
ENDCHAR

STARTCHAR A2ED
ENCODING 41709
SWIDTH 960 0
DWIDTH 24 0
BBX 24 24 0 -4
BITMAP
000000
060000
070010
063FF8
060070
0C00C0
0C0D80
1C0700
1C0308
3CFFFC
2C030E
4C0318
0C0320
0C0300
0C0300
0C0300
0C0300
0C0300
0C0300
0C0300
0C1F00
0C0700
0C0600
000000
ENDCHAR

STARTCHAR A2EE
ENCODING 41710
SWIDTH 960 0
DWIDTH 24 0
BBX 24 24 0 -4
BITMAP
000000
060010
070038
06FFFC
060300
0C0300
0C0300
1C0300
1C0300
3C0300
2C0310
4C0338
0CFFFC
0C0300
0C0300
0C0300
0C0300
0C0300
0C0300
0C0308
0C031C
0DFFFE
0C0000
000000
ENDCHAR

STARTCHAR A2EF
ENCODING 41711
SWIDTH 960 0
DWIDTH 24 0
BBX 24 24 0 -4
BITMAP
000000
060008
07401C
067FFE
066000
0C6000
0C6018
1C6FFC
1C6418
3C6418
2C6418
4C6630
0C6230
0C6360
0C6160
0C61C0
0CC0C0
0CC1E0
0CC360
0C8630
0D8C38
0D181E
0E600C
000000
ENDCHAR

STARTCHAR A2F0
ENCODING 41712
SWIDTH 960 0
DWIDTH 24 0
BBX 24 24 0 -4
BITMAP
000000
060C00
070E00
060C00
060C00
0C0C00
0C0C0C
1DFFFE
1C0C00
3C0C18
2C0FFC
4C1C18
0C1A18
0C1A30
0C3330
0C31E0
0C31E0
0C60C0
0C61E0
0C4330
0CC638
0C8C1E
0D300C
000000
ENDCHAR

STARTCHAR A2F1
ENCODING 41713
SWIDTH 960 0
DWIDTH 24 0
BBX 24 24 0 -4
BITMAP
000000
061800
071820
063070
063FF8
0C6000
0CC060
1D7FF0
1E0000
3C00C0
2CFFE0
4C00C0
0C00C0
0C00C0
0C00C0
0C0060
0C0060
0C0060
0C0034
0C0034
0C001C
0C001E
0C000C
000000
ENDCHAR

STARTCHAR A2F2
ENCODING 41714
SWIDTH 960 0
DWIDTH 24 0
BBX 24 24 0 -4
BITMAP
000000
063000
073800
063000
063000
0C3004
0C3FFE
1C600C
1C600C
3CC00C
2C808C
4D1FCC
0C000C
0C000C
0C000C
0C008C
0C1FCC
0C000C
0C000C
0C000C
0C001C
0C00F8
0C0030
000000
ENDCHAR

STARTCHAR A2F3
ENCODING 41715
SWIDTH 960 0
DWIDTH 24 0
BBX 24 24 0 -4
BITMAP
000000
060C00
070E00
060C00
060CC0
0DFFE0
0C0CC0
1C0CC0
1C0CC4
3C0CC4
2C18CC
4C30FE
0C637C
0C0380
0C0300
0C030C
0DFFFE
0C0300
0C0300
0C0300
0C0300
0C0300
0C0300
000000
ENDCHAR

STARTCHAR A2F4
ENCODING 41716
SWIDTH 960 0
DWIDTH 24 0
BBX 24 24 0 -4
BITMAP
000000
0610C0
071FE0
0618C0
0618C0
0C18C0
0C18C0
1C30C0
1C30FE
3C607C
2D8000
4C0010
0C3FF8
0C101C
0C0838
0C0C60
0C06C0
0C0380
0C0380
0C06C0
0C0C70
0C303E
0CC01C
000000
ENDCHAR

STARTCHAR A2F5
ENCODING 41717
SWIDTH 960 0
DWIDTH 24 0
BBX 24 24 0 -4
BITMAP
000000
003000
007800
00EC00
00C600
018300
030180
0600E0
0C0070
18033E
33FF9C
600000
000030
3FFFF8
007000
00E000
018080
030060
060030
0C0018
1FFFFC
0FE01C
06000C
000000
ENDCHAR

STARTCHAR A2F6
ENCODING 41718
SWIDTH 960 0
DWIDTH 24 0
BBX 24 24 0 -4
BITMAP
000000
003000
003800
007800
006C00
00C600
018300
030180
0600E0
0C0078
1A01BE
63FFDC
030000
030000
030000
030180
03FFC0
030000
030000
030000
030180
03FFC0
010000
000000
ENDCHAR

STARTCHAR A2F7
ENCODING 41719
SWIDTH 960 0
DWIDTH 24 0
BBX 24 24 0 -4
BITMAP
000000
001800
001C00
001800
003800
003C00
007600
006300
00C180
0180E0
03007C
0C0038
0300C0
0380E0
0300C0
0701C0
0781E0
0D81A0
0CC330
18C330
186618
30761E
602C0C
000000
ENDCHAR

STARTCHAR A2F8
ENCODING 41720
SWIDTH 960 0
DWIDTH 24 0
BBX 24 24 0 -4
BITMAP
000000
000600
023F00
038180
0700C0
066060
0C7038
18C01E
31800C
6300C0
060070
1FFFF8
1EC618
00C600
00C600
00C600
018600
018600
030604
030604
06060C
0C07FE
3803FC
000000
ENDCHAR

STARTCHAR A2F9
ENCODING 41721
SWIDTH 960 0
DWIDTH 24 0
BBX 24 24 0 -4
BITMAP
000000
006000
003000
001C00
003600
006380
00C1C0
038078
0E001E
78000C
080030
0FFFF8
0C0030
0C0030
0C0030
0C0030
0FFFF0
0C0030
0C0030
0C0030
0C0030
0FFFF0
040020
000000
ENDCHAR

STARTCHAR A2FA
ENCODING 41722
SWIDTH 960 0
DWIDTH 24 0
BBX 24 24 0 -4
BITMAP
000000
000000
000060
0FFFF0
001800
001800
001980
03FFC0
001800
001800
001808
3FFFFC
000000
000E00
004300
004300
008180
008180
0180C0
030060
060038
1C001E
70000C
000000
ENDCHAR

STARTCHAR A2FB
ENCODING 41723
SWIDTH 960 0
DWIDTH 24 0
BBX 24 24 0 -4
BITMAP
000000
000008
00001C
7FFFFE
001800
001800
041860
07FFF0
061860
061860
06186C
7FFFFE
061860
061860
06186C
7FFFFE
060060
060060
060060
060060
0603E0
0600E0
0600C0
000000
ENDCHAR

STARTCHAR A2FC
ENCODING 41724
SWIDTH 960 0
DWIDTH 24 0
BBX 24 24 0 -4
BITMAP
000000
304018
187FFC
186180
086180
006180
006180
04618C
047FFE
040380
080380
080780
180580
100D80
300980
701980
301180
303180
306180
30C180
338180
301F80
000300
000000
ENDCHAR

STARTCHAR A2FD
ENCODING 41725
SWIDTH 960 0
DWIDTH 24 0
BBX 24 24 0 -4
BITMAP
000000
301800
181C00
181800
081800
001860
01FFF0
041860
041860
041860
081860
08186C
1BFFFE
101800
303200
703300
303180
3060C0
30C060
318070
330038
360018
180000
000000
ENDCHAR

STARTCHAR A2FE
ENCODING 41726
SWIDTH 960 0
DWIDTH 24 0
BBX 24 24 0 -4
BITMAP
000000
300600
180700
180600
080600
000600
018618
05FFFC
058618
058618
098618
098618
198618
11FFF8
318618
700600
300600
300600
300600
300600
300600
300600
000600
000000
ENDCHAR

STARTCHAR A3A1
ENCODING 41889
SWIDTH 960 0
DWIDTH 24 0
BBX 24 24 0 -4
BITMAP
000000
300040
1801E0
180FF0
08FE00
000600
000600
040600
040610
040638
08FFFC
080600
180600
100600
300600
700F00
300D80
301980
3018C0
3030E0
306078
30C03E
03000C
000000
ENDCHAR

STARTCHAR A3A2
ENCODING 41890
SWIDTH 960 0
DWIDTH 24 0
BBX 24 24 0 -4
BITMAP
000000
100030
1FFFF0
180030
180030
180C30
19FE30
180030
180030
180030
180630
1BFF30
186030
187030
18E030
18C030
198630
1B0332
17FFB2
33E1B2
2181B6
20001E
40000C
000000
ENDCHAR

STARTCHAR A3A3
ENCODING 41891
SWIDTH 960 0
DWIDTH 24 0
BBX 24 24 0 -4
BITMAP
000000
007000
003810
001838
3FFFFC
000000
68018C
7601CE
63018C
61818C
60C30C
60660C
603C0C
601C0C
603E0C
60670C
60C38C
6181CC
6600EC
78007C
60007C
7FFFFC
200008
000000
ENDCHAR

STARTCHAR A3A4
ENCODING 41892
SWIDTH 960 0
DWIDTH 24 0
BBX 24 24 0 -4
BITMAP
000000
03000C
03800E
03000C
03000C
03198C
3FFDCC
03198C
03198C
03198C
03198C
03198C
03198C
7FFF8C
03018C
03018C
03018C
06418C
06300C
0C180C
0C0E7C
18071C
600318
000000
ENDCHAR

STARTCHAR A3A5
ENCODING 41893
SWIDTH 960 0
DWIDTH 24 0
BBX 24 24 0 -4
BITMAP
000000
03000C
03800E
03000C
06000C
06318C
1FF9CC
18018C
30618C
4FF18C
00018C
00218C
3FF18C
00E18C
01818C
03018C
06018C
0C000C
18080C
30080C
60180C
7FFC7C
3FF818
000000
ENDCHAR

STARTCHAR A3A6
ENCODING 41894
SWIDTH 960 0
DWIDTH 24 0
BBX 24 24 0 -4
BITMAP
000000
0000C0
07FFE0
0030C0
0030C0
0030C0
0030C0
0060C0
0060C0
00C1C0
018F80
020300
00600C
3FF7FE
0660CC
0660CC
0660CC
0660CC
0C618C
0C618C
18E31C
33C678
418830
000000
ENDCHAR

STARTCHAR A3A7
ENCODING 41895
SWIDTH 960 0
DWIDTH 24 0
BBX 24 24 0 -4
BITMAP
000000
01800C
01C00E
01858C
7FFFCC
00198C
20198C
10318C
0C318C
06618C
03E18C
01C18C
01C18C
03E18C
03618C
06318C
0C398C
08180C
101C0C
201C0C
400CFC
00003C
000018
000000
ENDCHAR

STARTCHAR A3A8
ENCODING 41896
SWIDTH 960 0
DWIDTH 24 0
BBX 24 24 0 -4
BITMAP
000000
000180
0001C0
002180
1FF180
00018C
000FFE
00018C
00018C
00118C
7FF98C
03018C
03018C
06018C
06018C
0D018C
0C818C
18C30C
18630C
33F60C
7F361C
3C3CF8
101030
000000
ENDCHAR

STARTCHAR A3A9
ENCODING 41897
SWIDTH 960 0
DWIDTH 24 0
BBX 24 24 0 -4
BITMAP
000000
001800
001C00
001820
001870
1FFFF8
001800
001800
0318C0
0398E0
0318C0
0300C8
0300DC
7FE7FE
0300C0
0300C0
0300C0
0600C0
0600C0
0C00C0
0C00C0
1800C0
2000C0
000000
ENDCHAR

STARTCHAR A3AA
ENCODING 41898
SWIDTH 960 0
DWIDTH 24 0
BBX 24 24 0 -4
BITMAP
000000
001800
001C00
001810
001838
3FFFFC
001800
001800
061860
071870
061860
060064
06006E
7FFFFE
060060
060060
060060
060060
060060
060060
060060
07FFE0
020040
000000
ENDCHAR

STARTCHAR A3AB
ENCODING 41899
SWIDTH 960 0
DWIDTH 24 0
BBX 24 24 0 -4
BITMAP
000000
0C0300
0E0380
0C0300
0C0300
0C0300
0C8330
7FDFF8
0C0330
0C0330
0C0338
0C0B3C
0C1B36
0C3336
0C7330
0C0630
0C0630
0C0C30
0C0C30
0C1830
0C3070
0C43E0
0C00C0
000000
ENDCHAR

STARTCHAR A3AC
ENCODING 41900
SWIDTH 960 0
DWIDTH 24 0
BBX 24 24 0 -4
BITMAP
000000
000038
3FFFFC
000C00
001E00
003800
007F00
00D9E0
039878
0E183C
78181C
001800
000000
001800
001C00
001800
00180C
7FFFFE
001800
001800
001800
001800
001800
000000
ENDCHAR

STARTCHAR A3AD
ENCODING 41901
SWIDTH 960 0
DWIDTH 24 0
BBX 24 24 0 -4
BITMAP
000000
301008
381FFC
301800
301800
301800
301800
301800
301800
301800
301818
3FFFFC
101818
001818
001818
001818
001818
001818
001818
001818
001818
3FF818
001018
000000
ENDCHAR

STARTCHAR A3AE
ENCODING 41902
SWIDTH 960 0
DWIDTH 24 0
BBX 24 24 0 -4
BITMAP
000000
000008
04001C
07FFFE
060000
060000
060018
06FFFC
060600
060700
060E30
061838
063070
0660C0
063180
061B00
060E60
061C30
0C3018
0C63FC
19FF0C
30F00C
400000
000000
ENDCHAR

STARTCHAR A3AF
ENCODING 41903
SWIDTH 960 0
DWIDTH 24 0
BBX 24 24 0 -4
BITMAP
000000
10000C
1FFFFE
180000
180600
180700
180600
180600
180600
180600
180610
19FFF8
180600
180600
180600
180630
180618
38060C
30060C
300600
200604
27FFFE
400000
000000
ENDCHAR

STARTCHAR A3B0
ENCODING 41904
SWIDTH 960 0
DWIDTH 24 0
BBX 24 24 0 -4
BITMAP
000000
100018
1FFFFC
180000
180300
180780
180E00
180F00
180D80
1818E0
183078
18603E
19BF98
180000
180060
18FFF0
180060
1800E0
1801C0
380380
300700
300C00
401000
000000
ENDCHAR

STARTCHAR A3B1
ENCODING 41905
SWIDTH 960 0
DWIDTH 24 0
BBX 24 24 0 -4
BITMAP
000000
0000C0
7FFFE0
0000C0
0000C0
0060C0
007060
006060
006038
00611E
1FFF8C
006000
006000
006040
7FFFE0
00C000
018000
030180
0600C0
0C0060
1FFFF0
1FE030
0E0030
000000
ENDCHAR

STARTCHAR A3B2
ENCODING 41906
SWIDTH 960 0
DWIDTH 24 0
BBX 24 24 0 -4
BITMAP
000000
001800
001C00
20180C
3FFFFE
30180C
30180C
30180C
3FFFFC
101808
001800
041860
1FFFF0
040060
0200C0
018180
00C300
006600
003C00
007E00
01C380
0701FC
7C0070
000000
ENDCHAR

STARTCHAR A3B3
ENCODING 41907
SWIDTH 960 0
DWIDTH 24 0
BBX 24 24 0 -4
BITMAP
000000
07FF80
060300
030600
018C00
007800
003800
006C00
00C700
0183C0
0600F0
380060
004008
3FE7FC
30C618
18C318
0D81B0
0700E0
0700E0
0D81B0
18C318
30760E
602C04
000000
ENDCHAR

STARTCHAR A3B4
ENCODING 41908
SWIDTH 960 0
DWIDTH 24 0
BBX 24 24 0 -4
BITMAP
000000
00000C
00400E
00301C
001818
404C30
7FE660
6063C0
606180
606180
606180
606180
606180
606180
606180
606180
7FE180
204180
000180
000180
000180
000180
000180
000000
ENDCHAR

STARTCHAR A3B5
ENCODING 41909
SWIDTH 960 0
DWIDTH 24 0
BBX 24 24 0 -4
BITMAP
000000
000020
000070
007FF8
430300
7F8300
630300
630300
630300
630300
630300
630300
630300
630300
630300
630300
630300
7F0300
220300
000300
000300
00030C
01FFFE
000000
ENDCHAR

STARTCHAR A3B6
ENCODING 41910
SWIDTH 960 0
DWIDTH 24 0
BBX 24 24 0 -4
BITMAP
000000
00080C
000FFE
000C0C
40CC0C
7FEC0C
60CC0C
60CC0C
60CC0C
60CFFC
60CC08
60CC00
60CC00
60CC00
60CC00
7FCC00
208C00
001800
001800
003000
003000
006000
008000
000000
ENDCHAR

STARTCHAR A3B7
ENCODING 41911
SWIDTH 960 0
DWIDTH 24 0
BBX 24 24 0 -4
BITMAP
000000
000060
0000F0
0007C0
433F80
7F8180
630180
630180
630180
63018C
637FFE
630180
630180
630180
630180
630180
630180
7F0180
220180
000180
000180
000180
000180
000000
ENDCHAR

STARTCHAR A3B8
ENCODING 41912
SWIDTH 960 0
DWIDTH 24 0
BBX 24 24 0 -4
BITMAP
000000
0800C0
0FFFE0
0C00C0
0C00C0
0C00C0
0C00C0
0C00C0
0FFFC0
040080
003000
003800
003008
00301C
7FFFFE
007800
006C00
00C600
018300
0301C0
0600F0
1C003E
70000C
000000
ENDCHAR

STARTCHAR A3B9
ENCODING 41913
SWIDTH 960 0
DWIDTH 24 0
BBX 24 24 0 -4
BITMAP
000000
000000
40C40C
7FE7FE
60C60C
60C60C
60C60C
60C60C
60C60C
60C60C
60C60C
60C60C
60C60C
60C60C
60C60C
60C60C
60C60C
60C60C
60C60C
60C60C
7FC7FC
208208
000000
000000
ENDCHAR

STARTCHAR A3BA
ENCODING 41914
SWIDTH 960 0
DWIDTH 24 0
BBX 24 24 0 -4
BITMAP
000000
000008
00001C
437FFE
7F8180
630180
630180
630180
630180
6301C0
6301B0
630198
63019C
63018C
63018C
630180
630180
7F0180
220180
000180
000180
000180
000180
000000
ENDCHAR

STARTCHAR A3BB
ENCODING 41915
SWIDTH 960 0
DWIDTH 24 0
BBX 24 24 0 -4
BITMAP
000000
080060
0FFFF0
0C0060
0C0060
0C0060
0C0060
0C0060
0C0060
0FFFE0
040040
000000
200018
3FFFFC
300018
300018
300018
300018
300018
300018
300018
3FFFF8
100010
000000
ENDCHAR

STARTCHAR A3BC
ENCODING 41916
SWIDTH 960 0
DWIDTH 24 0
BBX 24 24 0 -4
BITMAP
000000
000600
000700
000600
000600
418600
7FC600
618C00
618C00
618CC0
618CC0
618CC0
619980
619980
619980
61B300
7FB300
216300
006620
00C618
019CFC
033FCE
061E06
000000
ENDCHAR

STARTCHAR A3BD
ENCODING 41917
SWIDTH 960 0
DWIDTH 24 0
BBX 24 24 0 -4
BITMAP
000000
40000C
7FFFFE
60000C
60C60C
60E70C
60C60C
60C60C
60C60C
60C60C
60C6CC
6FFFEC
60C60C
60C60C
60C60C
60C60C
60C60C
61860C
63060C
6C060C
60000C
7FFFFC
200008
000000
ENDCHAR

STARTCHAR A3BE
ENCODING 41918
SWIDTH 960 0
DWIDTH 24 0
BBX 24 24 0 -4
BITMAP
000000
40000C
7FFFFE
60060C
60070C
60060C
60060C
60064C
6006EC
6FFFFC
60060C
62060C
61860C
60C60C
60660C
60660C
60060C
60060C
603E0C
600E0C
600C0C
7FFFFC
200008
000000
ENDCHAR

STARTCHAR A3BF
ENCODING 41919
SWIDTH 960 0
DWIDTH 24 0
BBX 24 24 0 -4
BITMAP
000000
000300
0C0380
0E0300
0C0300
0C0300
0C0300
0D0300
7F8300
0C0308
0C03FC
0C0300
0C0300
0C0300
0C0300
0C0300
0C0300
0C0300
0FC300
7E0300
780300
30030C
00FFFE
000000
ENDCHAR

STARTCHAR A3C0
ENCODING 41920
SWIDTH 960 0
DWIDTH 24 0
BBX 24 24 0 -4
BITMAP
000000
001800
001C00
001800
00180C
7FFFFE
001800
001C00
003400
006600
006300
00C300
018180
0300E0
061878
0C1C1E
18180C
601840
07FFE0
001800
001800
001804
7FFFFE
000000
ENDCHAR

STARTCHAR A3C1
ENCODING 41921
SWIDTH 960 0
DWIDTH 24 0
BBX 24 24 0 -4
BITMAP
000000
0060C0
00F0E0
07F8C0
7F80C0
0180C0
0180C0
0180C0
0180D8
018FFC
0180C0
7FFCC0
0180C0
0180C0
0180C0
0300C0
0300C0
0600C0
0600C0
0C00C0
0C00C0
1800CC
601FFE
000000
ENDCHAR

STARTCHAR A3C2
ENCODING 41922
SWIDTH 960 0
DWIDTH 24 0
BBX 24 24 0 -4
BITMAP
000000
000010
0C007C
0E03F0
0C3F80
0C0180
0C0180
0D0180
7F8180
0C0180
0C0184
0C7FFE
0C0180
0C0180
0C0180
0C0180
0C0180
0C0180
0F8180
7E0180
780180
300180
000180
000000
ENDCHAR

STARTCHAR A3C3
ENCODING 41923
SWIDTH 960 0
DWIDTH 24 0
BBX 24 24 0 -4
BITMAP
000000
00C100
00C1C0
00C180
00C180
40C180
30C180
18C180
0CC18C
07FFFE
03C180
00C180
00C180
01C180
06C180
0CC180
18C180
70C180
60C180
00C180
00C198
00DFFC
00C000
000000
ENDCHAR

STARTCHAR A3C4
ENCODING 41924
SWIDTH 960 0
DWIDTH 24 0
BBX 24 24 0 -4
BITMAP
000000
030000
038000
030180
07FFC0
0C0380
110600
009C00
00F800
007000
00FE00
078FC0
1E33F8
38307E
44320C
07FF00
063000
063100
07FF80
023000
003000
003000
003000
000000
ENDCHAR

STARTCHAR A3C5
ENCODING 41925
SWIDTH 960 0
DWIDTH 24 0
BBX 24 24 0 -4
BITMAP
000000
000780
00FFC0
1FF800
003000
003018
7FFFFC
006C00
00C600
018380
070070
1D837E
71C398
018300
018300
018300
018300
018300
018300
030300
030300
060300
180300
000000
ENDCHAR

STARTCHAR A3C6
ENCODING 41926
SWIDTH 960 0
DWIDTH 24 0
BBX 24 24 0 -4
BITMAP
000000
003000
003800
003010
006038
3FFFFC
00C200
018180
0300C0
060070
0C003E
19819C
61C1C0
018180
018198
3FFFFC
018180
018180
030180
030180
060180
0C0180
300180
000000
ENDCHAR

STARTCHAR A3C7
ENCODING 41927
SWIDTH 960 0
DWIDTH 24 0
BBX 24 24 0 -4
BITMAP
000000
060180
0701C0
060180
060180
060180
060188
06419C
7FEFFE
060180
060180
060180
060180
060380
0703C0
078340
0D8360
0CC360
18C670
186630
306C38
30381E
40600C
000000
ENDCHAR

STARTCHAR A3C8
ENCODING 41928
SWIDTH 960 0
DWIDTH 24 0
BBX 24 24 0 -4
BITMAP
000000
001800
001800
001C00
00180C
7FFFFE
001800
003600
006380
00C1C0
0180E0
031870
061C3E
381818
3FFFFC
001800
003600
006380
00C1C0
0180E0
030078
06003E
38001C
000000
ENDCHAR

STARTCHAR A3C9
ENCODING 41929
SWIDTH 960 0
DWIDTH 24 0
BBX 24 24 0 -4
BITMAP
000000
180060
1C7FF0
180C60
180C60
198C60
198C60
7FCC60
198C60
198C60
19BFE0
198C60
198C60
338C60
330C60
7F0C60
238C60
07CC60
06EC64
0C6C64
186C6C
300C7E
400C3C
000000
ENDCHAR

STARTCHAR A3CA
ENCODING 41930
SWIDTH 960 0
DWIDTH 24 0
BBX 24 24 0 -4
BITMAP
000000
0C0600
0E0700
0C0660
0C0630
0CC630
0CC608
7FE61C
0CFFFE
0CC600
0CC600
0CC600
0CC600
19C600
198300
3F8300
11C300
03E184
037184
0630E4
0C307C
18003E
20000C
000000
ENDCHAR

STARTCHAR A3CB
ENCODING 41931
SWIDTH 960 0
DWIDTH 24 0
BBX 24 24 0 -4
BITMAP
000000
0C0300
0E0380
0C0300
0C0300
0CC630
0CC7F8
7FEC30
0CD830
0CD030
0CE060
0CC060
0CC060
19C060
198060
3F80F0
11C0D0
03E198
037318
063618
0C3C0C
18180C
201004
000000
ENDCHAR

STARTCHAR A3CC
ENCODING 41932
SWIDTH 960 0
DWIDTH 24 0
BBX 24 24 0 -4
BITMAP
000000
006000
007088
0060DC
7FFFFE
00C180
018300
03FE00
001F80
0071E0
01C070
1E0030
006000
007088
0060DC
7FFFFE
00C180
018300
03FE00
001F80
0071E0
01C070
1E0030
000000
ENDCHAR

STARTCHAR A3CD
ENCODING 41933
SWIDTH 960 0
DWIDTH 24 0
BBX 24 24 0 -4
BITMAP
000000
018600
01C700
018600
018600
318630
398634
0DBFFE
078630
018630
018630
018C30
038C30
078C60
0D9860
3998E0
71BCC0
219380
0181C0
018370
018638
018C18
01B000
000000
ENDCHAR

STARTCHAR A3CE
ENCODING 41934
SWIDTH 960 0
DWIDTH 24 0
BBX 24 24 0 -4
BITMAP
000000
060C0C
070E0E
0C1818
183030
306060
183030
0C1818
0C1818
000040
1FFFE0
000180
000700
001C08
00381C
7FFFFE
001800
001800
001800
001800
001800
00F800
003000
000000
ENDCHAR

STARTCHAR A3CF
ENCODING 41935
SWIDTH 960 0
DWIDTH 24 0
BBX 24 24 0 -4
BITMAP
000000
00C000
007000
083008
1FFFFC
30001E
70C030
60E020
00C000
018180
01FF80
030700
060600
040C00
081800
103400
006600
00C300
018180
0300E0
060070
0C003E
70001C
000000
ENDCHAR

STARTCHAR A3D0
ENCODING 41936
SWIDTH 960 0
DWIDTH 24 0
BBX 24 24 0 -4
BITMAP
000000
006000
003800
101808
1FFFFC
30000E
7000CC
67FFE8
0000C0
0000C0
0200C0
03FFC0
030000
060000
0C0018
0FFFFC
080018
000018
000018
000038
000070
0007E0
0000C0
000000
ENDCHAR

STARTCHAR A3D1
ENCODING 41937
SWIDTH 960 0
DWIDTH 24 0
BBX 24 24 0 -4
BITMAP
000000
001800
001C00
001800
201810
181838
0C1830
061860
0318C0
019980
019A0C
3FFFFE
00000C
00000C
00000C
00000C
0FFFFC
00000C
00000C
00000C
00000C
3FFFFC
000008
000000
ENDCHAR

STARTCHAR A3D2
ENCODING 41938
SWIDTH 960 0
DWIDTH 24 0
BBX 24 24 0 -4
BITMAP
000000
001800
001C00
001800
031900
0398C0
071870
0C1838
18181C
30180E
40F806
003000
001000
001800
001C00
001840
0018E0
1FFFF0
001800
001800
001808
00181C
7FFFFE
000000
ENDCHAR

STARTCHAR A3D3
ENCODING 41939
SWIDTH 960 0
DWIDTH 24 0
BBX 24 24 0 -4
BITMAP
000000
080030
0FFFF8
0C0030
0C0030
0C0030
0FFFF0
0C00A0
0CFFC0
0C01E0
0C0380
0C0600
0C0600
0C0620
0C0670
0DFFF8
0C0600
0C0600
0C0600
180600
183E00
300E00
400C00
000000
ENDCHAR

STARTCHAR A3D4
ENCODING 41940
SWIDTH 960 0
DWIDTH 24 0
BBX 24 24 0 -4
BITMAP
000000
080030
0FFFF8
0C0030
0C0030
0C0030
0C0030
0FFFF0
0C0220
0C0200
0C0100
0C8180
0CC080
1860C0
183060
181830
180C18
19000C
19800E
18C004
306000
203000
401C00
000000
ENDCHAR

STARTCHAR A3D5
ENCODING 41941
SWIDTH 960 0
DWIDTH 24 0
BBX 24 24 0 -4
BITMAP
000000
060010
070038
063FFC
060180
060180
666180
667180
666180
666180
666180
666180
666180
666180
666180
666180
666180
666180
7FE180
204180
000188
00019C
007FFE
000000
ENDCHAR

STARTCHAR A3D6
ENCODING 41942
SWIDTH 960 0
DWIDTH 24 0
BBX 24 24 0 -4
BITMAP
000000
0C0018
0E1FFC
0C000E
0C001C
0C0038
6D8060
6DC180
6D8180
6D8188
6D819C
6DBFFE
6D8180
6D8180
6D8180
6D8180
6D8180
6D8180
7F8180
210180
000F80
000380
000300
000000
ENDCHAR

STARTCHAR A3D7
ENCODING 41943
SWIDTH 960 0
DWIDTH 24 0
BBX 24 24 0 -4
BITMAP
000000
003000
003808
00301C
7FFFFE
003000
003000
006800
00CC00
00C700
018380
0301E0
0600F8
38181E
001C00
001800
181818
1C181C
181818
181818
181818
1FFFF8
080010
000000
ENDCHAR

STARTCHAR A3D8
ENCODING 41944
SWIDTH 960 0
DWIDTH 24 0
BBX 24 24 0 -4
BITMAP
000000
000060
3FFFF0
000060
000060
200060
3FFFE0
300040
300000
300004
300004
30000E
3FFFFE
1FFFFC
000000
001800
181C18
1C181C
181818
181818
181818
1FFFF8
080010
000000
ENDCHAR

STARTCHAR A3D9
ENCODING 41945
SWIDTH 960 0
DWIDTH 24 0
BBX 24 24 0 -4
BITMAP
000000
060818
070FFC
060C18
060C18
060C18
666C18
667C18
666C18
666C18
666FF8
666C10
666C00
666C00
666C00
666C00
666C00
666C00
7FEC04
204C04
000C0E
000FFE
0007FC
000000
ENDCHAR

STARTCHAR A3DA
ENCODING 41946
SWIDTH 960 0
DWIDTH 24 0
BBX 24 24 0 -4
BITMAP
000000
001800
001C00
60180C
70180E
60180C
60180C
60180C
60180C
60180C
7FFFFC
200008
001800
601C0C
70180E
60180C
60180C
60180C
60180C
60180C
60180C
7FFFFC
200008
000000
ENDCHAR

STARTCHAR A3DB
ENCODING 41947
SWIDTH 960 0
DWIDTH 24 0
BBX 24 24 0 -4
BITMAP
000000
303000
383800
303000
303000
307800
306C00
30C600
318380
330100
3FFFF0
1FFFE0
063180
063180
063180
063180
063180
0C3180
0C3184
183184
18318C
3031FE
4030FC
000000
ENDCHAR

STARTCHAR A3DC
ENCODING 41948
SWIDTH 960 0
DWIDTH 24 0
BBX 24 24 0 -4
BITMAP
000000
030008
03801C
033FFE
030180
030180
630180
73218C
333FFE
1B318C
0B318C
03318C
03318C
03318C
03318C
03318C
06318C
0631BC
0C3198
0C0180
180180
300180
400180
000000
ENDCHAR

STARTCHAR A3DD
ENCODING 41949
SWIDTH 960 0
DWIDTH 24 0
BBX 24 24 0 -4
BITMAP
000000
0C0400
0E0600
0C0C00
0C1860
4D9FF0
7FD860
6D9860
6D9860
6D9860
6D9860
6D9860
6D9860
6D9860
6D9860
6D9860
6F9860
6D1060
0C3064
0C2064
0C606C
0CC07E
0D803C
000000
ENDCHAR

STARTCHAR A3DE
ENCODING 41950
SWIDTH 960 0
DWIDTH 24 0
BBX 24 24 0 -4
BITMAP
000000
003800
001C08
100C1C
1FFFFE
180C00
180E00
180C00
181860
181FF0
1830E0
1860C0
1841C0
188180
1801C0
180360
180660
180C30
181838
10301C
30C00E
230004
400000
000000
ENDCHAR

STARTCHAR A3DF
ENCODING 41951
SWIDTH 960 0
DWIDTH 24 0
BBX 24 24 0 -4
BITMAP
000000
003800
001C08
100C1C
1FFFFE
180000
180000
180040
1800E0
19FFF0
180C00
180C00
180C10
180C38
1BFFFC
180C00
180C00
180C00
180C00
100C00
307C00
201C00
401800
000000
ENDCHAR

STARTCHAR A3E0
ENCODING 41952
SWIDTH 960 0
DWIDTH 24 0
BBX 24 24 0 -4
BITMAP
000000
003000
001C08
100C1C
1FFFFE
180000
1800E0
1803F0
181F80
18FE00
180600
180608
18061C
1BFFFE
180600
180600
180600
180600
180604
100604
30070C
2007FE
4003FC
000000
ENDCHAR

STARTCHAR A3E1
ENCODING 41953
SWIDTH 960 0
DWIDTH 24 0
BBX 24 24 0 -4
BITMAP
000000
000000
010CCC
7F8EEC
030CCE
031998
061998
063330
0C3330
0CE660
18CCC0
3FEEE0
11E660
01B330
333330
1B1998
1B1998
0E0CCC
0E0EEE
0F0CCC
1B8000
31FFFE
407FFC
000000
ENDCHAR

STARTCHAR A3E2
ENCODING 41954
SWIDTH 960 0
DWIDTH 24 0
BBX 24 24 0 -4
BITMAP
000000
000C00
000E60
000C38
000C18
000C00
000C0C
7FFFFE
000600
006600
3FF600
000300
000300
006300
3FF180
000180
0010C2
0038C2
7FFC64
00007C
00003C
00001E
000006
000000
ENDCHAR

STARTCHAR A3E3
ENCODING 41955
SWIDTH 960 0
DWIDTH 24 0
BBX 24 24 0 -4
BITMAP
000000
030600
7F8700
030600
030E00
030C0C
431FFE
7F180C
62300C
60200C
60400C
630C0C
7F870C
23038C
0301CC
0300CC
03000C
03000C
03000C
03001C
070038
3E03F0
0C00E0
000000
ENDCHAR

STARTCHAR A3E4
ENCODING 41956
SWIDTH 960 0
DWIDTH 24 0
BBX 24 24 0 -4
BITMAP
000000
030030
7F9FF8
030000
030000
030008
43001C
7F7FFE
620C00
600C00
600C00
631800
7F9818
231FFC
030018
030018
030018
030018
030018
030038
070070
3E07E0
0C01C0
000000
ENDCHAR

STARTCHAR A3E5
ENCODING 41957
SWIDTH 960 0
DWIDTH 24 0
BBX 24 24 0 -4
BITMAP
000000
100030
080070
0600E0
0381C0
00E380
007700
001C00
001E00
003300
0061C0
038070
0E001E
78000C
001800
01CC00
098600
098618
19802C
19802E
398076
71FFE6
60FFC0
000000
ENDCHAR

STARTCHAR A3E6
ENCODING 41958
SWIDTH 960 0
DWIDTH 24 0
BBX 24 24 0 -4
BITMAP
000000
0C0018
0E7FFC
0C0300
0C0300
0C0300
0C0300
2F0300
2D8300
2D8308
6C031C
6CFFFE
0C0300
0C0300
0C0300
0C0300
0C0300
0C0300
0C0300
0C0300
0C0300
0C0300
0C0300
000000
ENDCHAR

STARTCHAR A3E7
ENCODING 41959
SWIDTH 960 0
DWIDTH 24 0
BBX 24 24 0 -4
BITMAP
000000
0C0300
0E0380
0C0300
0C3300
0C3B00
0C3300
2F3304
2DB3FE
2DBF18
6CF318
6C3318
0C3330
0C3330
0C3320
0C3300
0C3300
0C3304
0C3004
0C3004
0C300C
0C3FFE
0C1FFC
000000
ENDCHAR

STARTCHAR A3E8
ENCODING 41960
SWIDTH 960 0
DWIDTH 24 0
BBX 24 24 0 -4
BITMAP
000000
0C0000
0E000C
0C3FFE
0C030C
0C030C
0C030C
2F030C
2DA30C
2D9B0C
6C0F0C
6C070C
0C038C
0C03CC
0C06EC
0C066C
0C0C0C
0C0C0C
0C180C
0C180C
0C301C
0C60F8
0C8030
000000
ENDCHAR

STARTCHAR A3E9
ENCODING 41961
SWIDTH 960 0
DWIDTH 24 0
BBX 24 24 0 -4
BITMAP
000000
0C1060
0E1FF0
0C1860
0C1860
0C1860
2E1860
2D1860
2D9860
6D9860
6C1FE0
6C1860
0C1860
0C1860
0C1860
0C1860
0C1860
0C3060
0C3064
0C3064
0C6064
0C607E
0CC03E
000000
ENDCHAR

STARTCHAR A3EA
ENCODING 41962
SWIDTH 960 0
DWIDTH 24 0
BBX 24 24 0 -4
BITMAP
000000
0030C0
003860
003060
003018
3FFFFC
003000
003000
003040
0FFFE0
003000
003008
00301C
7FFFFE
003000
0018C0
000DE0
000784
001F04
0039E4
00E0FC
07803E
7C000C
000000
ENDCHAR

STARTCHAR A3EB
ENCODING 41963
SWIDTH 960 0
DWIDTH 24 0
BBX 24 24 0 -4
BITMAP
000000
000180
0001D8
00018C
006184
7FF180
20618C
206FFE
30E180
10C180
10C18C
19818E
09818C
0D80D8
0700D8
0700F0
0F00E0
0D80C0
1981E4
18C364
30E63C
60781E
00300C
000000
ENDCHAR

STARTCHAR A3EC
ENCODING 41964
SWIDTH 960 0
DWIDTH 24 0
BBX 24 24 0 -4
BITMAP
000000
060000
070030
060FF8
060000
064000
7FE00C
063FFE
060180
064180
068180
070300
0E0618
7E0FFC
760418
260018
060018
060018
060018
060018
3E0038
0E01F0
0C0060
000000
ENDCHAR

STARTCHAR A3ED
ENCODING 41965
SWIDTH 960 0
DWIDTH 24 0
BBX 24 24 0 -4
BITMAP
000000
0C0030
0E7FF8
0C0630
0C0630
0D0630
7F8630
0C0630
0C0630
0C0630
0C3FF0
0D0630
0E0630
7C0630
7C0630
2C0630
0C0630
0C0630
0C0634
0C0634
0C0634
7C063E
18061C
000000
ENDCHAR

STARTCHAR A3EE
ENCODING 41966
SWIDTH 960 0
DWIDTH 24 0
BBX 24 24 0 -4
BITMAP
000000
0C0600
0E0700
0C0600
0C0630
0D3FF8
7F8630
0C0630
0C0630
0C0630
0C0630
0D0630
0E3630
7C1E30
7C0F30
2C0730
0C0FB0
0C0FB0
0C0DB2
0C0C32
0C1836
7C301E
18C00C
000000
ENDCHAR

STARTCHAR A3EF
ENCODING 41967
SWIDTH 960 0
DWIDTH 24 0
BBX 24 24 0 -4
BITMAP
000000
060180
0701C0
060180
060180
064180
7FE190
0601B8
063FFC
060180
064180
068180
070180
0E0180
7E0180
760180
260180
060180
060180
060188
3E019C
0E7FFE
0C0000
000000
ENDCHAR

STARTCHAR A3F0
ENCODING 41968
SWIDTH 960 0
DWIDTH 24 0
BBX 24 24 0 -4
BITMAP
000000
003008
00181C
7FFFFE
0600C0
030180
00C600
007C00
003800
00EE00
038780
0F01FC
7C00F0
0300C0
0380C0
0300C0
0300C0
0300C0
0600C0
0600C0
0C00C0
1800C0
2000C0
000000
ENDCHAR

STARTCHAR A3F1
ENCODING 41969
SWIDTH 960 0
DWIDTH 24 0
BBX 24 24 0 -4
BITMAP
000000
080060
060070
030060
032060
7FF060
0C0060
0C0060
0C0060
0C4060
0FE060
0C6060
0C6060
0C6060
0C60E0
0C60E0
1861B0
1861B0
186318
106618
30EC0C
27F00E
41A006
000000
ENDCHAR

STARTCHAR A3F2
ENCODING 41970
SWIDTH 960 0
DWIDTH 24 0
BBX 24 24 0 -4
BITMAP
000000
00000C
007FFE
43030C
7F830C
63030C
63030C
63030C
63030C
63030C
63030C
7F060C
63060C
63060C
63060C
630C0C
630C0C
630C18
7F1818
221830
003070
0063E0
0180C0
000000
ENDCHAR

STARTCHAR A3F3
ENCODING 41971
SWIDTH 960 0
DWIDTH 24 0
BBX 24 24 0 -4
BITMAP
000000
000300
000380
430300
7F8300
630300
630300
630308
63031C
637FFE
630300
7F0300
630300
630300
630300
630300
630300
630300
7F0300
220300
000300
000300
000300
000000
ENDCHAR

STARTCHAR A3F4
ENCODING 41972
SWIDTH 960 0
DWIDTH 24 0
BBX 24 24 0 -4
BITMAP
000000
001800
001C00
001800
001800
101818
1FFFFC
181818
181818
181818
1FFFF8
181818
181818
181818
1FFFF8
081810
003C00
003600
006300
00C1C0
0380F0
0E007E
78001C
000000
ENDCHAR

STARTCHAR A3F5
ENCODING 41973
SWIDTH 960 0
DWIDTH 24 0
BBX 24 24 0 -4
BITMAP
000000
060000
07000C
061FFE
06018C
06018C
06C18C
7FE18C
06018C
0E018C
0F818C
0EC18C
1EC18C
1E418C
36018C
26030C
46030C
060318
060618
060618
060C38
0619F0
066060
000000
ENDCHAR

STARTCHAR A3F6
ENCODING 41974
SWIDTH 960 0
DWIDTH 24 0
BBX 24 24 0 -4
BITMAP
000000
060060
077FF0
061860
061860
061860
0618C0
7F98C0
0618CC
0E18FE
0F984C
0ED80C
1ED80C
1E780C
36180C
26300C
46300C
06300C
06600C
06601C
06C038
0681F0
070060
000000
ENDCHAR

STARTCHAR A3F7
ENCODING 41975
SWIDTH 960 0
DWIDTH 24 0
BBX 24 24 0 -4
BITMAP
000000
0C0300
0E0380
0C0300
0C0300
0C0300
0D0300
7F8300
0C0600
1E0600
1F0700
1D8700
3D8D80
3C8D80
6C0CC0
4C0CC0
0C1860
0C1860
0C3030
0C303C
0C601E
0D800C
0C0000
000000
ENDCHAR

STARTCHAR A3F8
ENCODING 41976
SWIDTH 960 0
DWIDTH 24 0
BBX 24 24 0 -4
BITMAP
000000
000300
1FFF80
018300
018300
018618
018FFC
030418
030018
060038
0C19F0
301C60
001800
00180C
7FFFFE
003C00
007E00
00DB00
0199C0
031870
0E183E
38181C
001800
000000
ENDCHAR

STARTCHAR A3F9
ENCODING 41977
SWIDTH 960 0
DWIDTH 24 0
BBX 24 24 0 -4
BITMAP
000000
000600
000700
001600
3FFE00
103600
103610
103FF8
106D9E
1869B0
08C1A0
0CC180
058180
070180
030180
0701C0
078340
0CC360
186360
303630
601638
000C1E
001808
000000
ENDCHAR

STARTCHAR A3FA
ENCODING 41978
SWIDTH 960 0
DWIDTH 24 0
BBX 24 24 0 -4
BITMAP
000000
030000
038010
060038
07FFFC
0C0000
180000
3400C0
47FFE0
0618C0
0618C0
0618C8
0630DC
7FFFFE
0630C0
0660C0
0660C0
0660D8
07FFFC
0200C0
0001C0
000F80
000300
000000
ENDCHAR

STARTCHAR A3FB
ENCODING 41979
SWIDTH 960 0
DWIDTH 24 0
BBX 24 24 0 -4
BITMAP
000000
018000
03C000
078018
0F1FFC
7E0318
060318
060330
06C330
7FE324
06033E
06030C
06060C
06C60C
7FFC0C
060C1C
061838
0638F0
060024
060004
060004
07FFFE
03FFFC
000000
ENDCHAR

STARTCHAR A3FC
ENCODING 41980
SWIDTH 960 0
DWIDTH 24 0
BBX 24 24 0 -4
BITMAP
000000
000020
100070
0C07F8
0E7FC0
060300
000300
400300
300308
38031C
18FFFE
020300
020300
040300
040300
0C0300
180300
780300
380300
1C0300
0C0300
0C0300
0C0300
000000
ENDCHAR

STARTCHAR A3FD
ENCODING 41981
SWIDTH 960 0
DWIDTH 24 0
BBX 24 24 0 -4
BITMAP
000000
0000C0
1001E0
0C0F80
0E7F00
060300
000300
400300
300300
380300
18030C
02FFFE
020300
040300
040300
0C0300
180300
780304
380304
1C0304
0C030E
0C03FE
0C01FC
000000
ENDCHAR

STARTCHAR A3FE
ENCODING 41982
SWIDTH 960 0
DWIDTH 24 0
BBX 24 24 0 -4
BITMAP
000000
000600
100700
0C0600
0E0E00
060C00
001820
401FF0
303830
386860
18C860
0208C0
020CC0
040DC0
040780
0C0300
180380
780780
3806C0
1C0C60
0C1838
0C701E
01C00C
000000
ENDCHAR

STARTCHAR A4A1
ENCODING 42145
SWIDTH 960 0
DWIDTH 24 0
BBX 24 24 0 -4
BITMAP
000000
001800
001C00
019830
3FD8F8
019BC0
039B00
031980
0618E0
0C1870
18183E
60F818
003400
000E00
001C00
003800
006C00
00C600
018300
0301C0
0600F0
0C007E
380038
000000
ENDCHAR

STARTCHAR A4A2
ENCODING 42146
SWIDTH 960 0
DWIDTH 24 0
BBX 24 24 0 -4
BITMAP
000000
040300
070380
060300
0C0300
0C0300
180300
1C0318
3C133C
2DFB78
4C3B60
0C3340
0C3340
0C3360
0C6330
0C6330
0C6318
0CC318
0CC30C
0CC30E
0D9F04
0E0E00
0C0600
000000
ENDCHAR

STARTCHAR A4A3
ENCODING 42147
SWIDTH 960 0
DWIDTH 24 0
BBX 24 24 0 -4
BITMAP
000000
000030
10FFF8
0C0600
0E0600
060600
000608
40061C
31FFFE
380C00
180C00
020C00
020C18
040FFC
04001C
0C0018
180018
780018
380030
1C0030
0C0030
0C01F0
0C0060
000000
ENDCHAR

STARTCHAR A4A4
ENCODING 42148
SWIDTH 960 0
DWIDTH 24 0
BBX 24 24 0 -4
BITMAP
000000
000018
103FFC
0C0018
0E0018
060018
000018
400018
300018
383FF8
183018
023000
023000
043000
043000
0C3000
183004
783004
383004
1C3004
0C380E
0C1FFE
0C0FFC
000000
ENDCHAR

STARTCHAR A4A5
ENCODING 42149
SWIDTH 960 0
DWIDTH 24 0
BBX 24 24 0 -4
BITMAP
000000
000000
100030
0C3FF8
0E0030
060060
0002C0
400180
300180
380180
180188
02019C
02FFFE
040180
040180
0C0180
180180
780180
380180
1C0180
0C0380
0C1F00
0C0600
000000
ENDCHAR

STARTCHAR A4A6
ENCODING 42150
SWIDTH 960 0
DWIDTH 24 0
BBX 24 24 0 -4
BITMAP
000000
0C0000
0E0008
0C001C
0C7FFE
0D0180
0D8180
4F0180
6C0180
6C0180
2C0180
2C0180
0C0180
0C0180
0C0180
0C0180
0E0180
1B0180
1B0180
130180
310F80
200380
400300
000000
ENDCHAR

STARTCHAR A4A7
ENCODING 42151
SWIDTH 960 0
DWIDTH 24 0
BBX 24 24 0 -4
BITMAP
000000
0C000C
0E000E
0C000C
0C000C
0D018C
0D81CC
4F018C
6C018C
6C018C
2C018C
2C018C
0C018C
0C018C
0C018C
0C018C
0E000C
1B000C
1B000C
13000C
31007C
20003C
400018
000000
ENDCHAR

STARTCHAR A4A8
ENCODING 42152
SWIDTH 960 0
DWIDTH 24 0
BBX 24 24 0 -4
BITMAP
000000
003000
083040
1C30E0
1C30E0
073180
006E00
00C600
00C300
0181C0
0700F0
0C007E
718338
018300
018300
018300
018300
038304
030304
06030C
0C030E
1803FE
7001FC
000000
ENDCHAR

STARTCHAR A4A9
ENCODING 42153
SWIDTH 960 0
DWIDTH 24 0
BBX 24 24 0 -4
BITMAP
000000
000008
10001C
1FFFFE
180600
180700
180600
188618
18463C
186670
1876C0
182600
180600
180600
180D00
180D80
181880
1818C0
183060
186038
31C01E
2E000C
400000
000000
ENDCHAR

STARTCHAR A4AA
ENCODING 42154
SWIDTH 960 0
DWIDTH 24 0
BBX 24 24 0 -4
BITMAP
000000
180060
1FFFF0
180070
183060
183860
183060
1A3260
193360
19B660
18BC60
183060
183060
183060
183060
187860
186C60
186660
18C360
18C1E4
318064
26003E
40001C
000000
ENDCHAR

STARTCHAR A4AB
ENCODING 42155
SWIDTH 960 0
DWIDTH 24 0
BBX 24 24 0 -4
BITMAP
000000
030000
038000
03000C
07FFFE
06000C
0C000C
18180C
601C0C
00180C
0818CC
0619EC
0399DC
019B78
001C30
003600
003600
003300
006180
00C0C0
018078
07003E
78000C
000000
ENDCHAR

STARTCHAR A4AC
ENCODING 42156
SWIDTH 960 0
DWIDTH 24 0
BBX 24 24 0 -4
BITMAP
000000
020C00
438E00
670C00
360C00
1C0C00
1C0C00
360CC0
46FFE0
060CC0
070CC0
0F0CC0
1B6CC0
333CC0
231CC0
430EC0
031AC0
0318C2
0310C2
0330C6
0720FE
3E407C
0C8000
000000
ENDCHAR

STARTCHAR A4AD
ENCODING 42157
SWIDTH 960 0
DWIDTH 24 0
BBX 24 24 0 -4
BITMAP
000000
0100C0
4180E0
3380C0
1B00C0
0E00C0
0C00C0
1E00CC
337FFE
4301C0
0381C0
0783C0
0D83C0
0D87C0
1986C0
198CC0
318CC0
4198C0
01B0C0
0360C0
0780C0
7E07C0
0C0180
000000
ENDCHAR

STARTCHAR A4AE
ENCODING 42158
SWIDTH 960 0
DWIDTH 24 0
BBX 24 24 0 -4
BITMAP
000000
000300
010380
7F8300
0C0300
0C0300
0C0700
0C0600
0C0600
0D0600
7F8E00
0C0C00
0C0C00
0C0C00
0C1C00
0C1800
0FB060
7C3030
786018
20C1FC
01FF8E
00FC06
006006
000000
ENDCHAR

STARTCHAR A4AF
ENCODING 42159
SWIDTH 960 0
DWIDTH 24 0
BBX 24 24 0 -4
BITMAP
000000
000180
0101C0
7F8180
0C0180
0C018C
0C3FFE
0C018C
0C018C
0D018C
7F818C
0C018C
0C030C
0C030C
0C030C
0C060C
0F860C
7C0C0C
78180C
20300C
00601C
0180F8
000030
000000
ENDCHAR

STARTCHAR A4B0
ENCODING 42160
SWIDTH 960 0
DWIDTH 24 0
BBX 24 24 0 -4
BITMAP
000000
000180
0101C0
7F8180
0C0180
0C0180
0C0D80
0C0780
0C0380
0D01E0
7FC1B8
0C019C
0C018E
0C0186
0C0180
0C0180
0FC180
7C0180
780180
200180
000180
000180
000180
000000
ENDCHAR

STARTCHAR A4B1
ENCODING 42161
SWIDTH 960 0
DWIDTH 24 0
BBX 24 24 0 -4
BITMAP
000000
00000C
00800E
7FC00C
0C018C
0C01CC
0C018C
0C018C
0C018C
0C818C
7FE18C
0C018C
0C018C
0C018C
0C018C
0C018C
0FE18C
7E018C
7C000C
20000C
00000C
00007C
000018
000000
ENDCHAR

STARTCHAR A4B2
ENCODING 42162
SWIDTH 960 0
DWIDTH 24 0
BBX 24 24 0 -4
BITMAP
000000
000008
00001C
3FFFFE
006000
007000
006000
007800
00CE00
00C700
01C300
018030
03FFF8
06C030
0CC030
18C030
30C030
40C030
00C030
00C030
00C030
00FFF0
004020
000000
ENDCHAR

STARTCHAR A4B3
ENCODING 42163
SWIDTH 960 0
DWIDTH 24 0
BBX 24 24 0 -4
BITMAP
000000
080000
0C0200
060380
060300
024300
7FE300
01C300
018300
030300
060300
0F8300
1EC300
364300
460300
060300
060300
060304
060304
060304
060306
0603FE
0601FC
000000
ENDCHAR

STARTCHAR A4B4
ENCODING 42164
SWIDTH 960 0
DWIDTH 24 0
BBX 24 24 0 -4
BITMAP
000000
006000
003840
0018E0
1FFFF0
0600C0
0301C0
018180
00C300
00C608
00CC1C
7FFFFE
001800
001800
001800
001800
001800
001800
001800
001800
001800
001800
001800
000000
ENDCHAR

STARTCHAR A4B5
ENCODING 42165
SWIDTH 960 0
DWIDTH 24 0
BBX 24 24 0 -4
BITMAP
000000
118C00
1FCE00
198C00
198C00
198C00
1D8C00
1F8C60
1BFFF0
198C60
198C60
198C60
1B8C60
1F8C60
1D8C60
198C60
198C60
198C64
199864
319864
37B06C
23A07E
43403C
000000
ENDCHAR

STARTCHAR A4B6
ENCODING 42166
SWIDTH 960 0
DWIDTH 24 0
BBX 24 24 0 -4
BITMAP
000000
100008
1FFFFC
30000E
700018
620180
03FFC0
030180
030180
037180
031D80
030D80
030180
030180
030D80
033980
06F180
066180
060180
0C0180
0C0F80
180380
600300
000000
ENDCHAR

STARTCHAR A4B7
ENCODING 42167
SWIDTH 960 0
DWIDTH 24 0
BBX 24 24 0 -4
BITMAP
000000
0600C0
0700E0
0640C4
7FE7FE
0600C0
0600C0
000008
00001C
7FFFFE
030000
038000
0600C0
0FFFE0
0C00C0
0000C0
0000C0
0000C0
0000C0
0000C0
000180
001F00
000600
000000
ENDCHAR

STARTCHAR A4B8
ENCODING 42168
SWIDTH 960 0
DWIDTH 24 0
BBX 24 24 0 -4
BITMAP
000000
0600C0
0700E0
0640C4
7FE7FE
0600C0
0600C0
000000
006000
007000
006000
006030
1FFFF8
006030
006030
006030
00C030
00C030
018030
018030
030060
0607C0
080180
000000
ENDCHAR

STARTCHAR A4B9
ENCODING 42169
SWIDTH 960 0
DWIDTH 24 0
BBX 24 24 0 -4
BITMAP
000000
0600C0
0700E0
0640C4
7FE7FE
0600C0
0600C0
000000
000000
000E00
000700
00C600
00E600
00C300
018300
018180
018180
0300C0
0300C0
060060
0C0038
18001E
60000C
000000
ENDCHAR

STARTCHAR A4BA
ENCODING 42170
SWIDTH 960 0
DWIDTH 24 0
BBX 24 24 0 -4
BITMAP
000000
000800
000E00
000C40
000CE0
07FFF0
000C00
000C00
000C08
000C1C
3FFFFE
000000
000060
0300F0
00C1E0
007380
003E00
007800
03C000
3E0000
07E000
00FFFE
001FFC
000000
ENDCHAR

STARTCHAR A4BB
ENCODING 42171
SWIDTH 960 0
DWIDTH 24 0
BBX 24 24 0 -4
BITMAP
000000
180300
0C0380
0C0300
000300
020300
3F030C
063FFE
06030C
0C030C
18030C
1A030C
3F030C
16060C
06060C
06060C
0C0C0C
0C0C1C
0C18F8
1E6030
1BC000
30FFFE
403FFC
000000
ENDCHAR

STARTCHAR A4BC
ENCODING 42172
SWIDTH 960 0
DWIDTH 24 0
BBX 24 24 0 -4
BITMAP
000000
02010C
0381FE
03018C
03018C
030188
030198
030190
0301A0
431998
731D8C
631986
631986
631986
631986
631986
63198E
6319BC
631998
631990
631980
7FF980
000180
000000
ENDCHAR

STARTCHAR A4BD
ENCODING 42173
SWIDTH 960 0
DWIDTH 24 0
BBX 24 24 0 -4
BITMAP
000000
0C0218
0E03FC
0C0318
0C0318
0C0310
0D8330
7FE320
0D8340
198330
198318
19830C
1B030C
33030C
33030C
3E030C
06031C
0D0378
098330
188320
100300
200300
400300
000000
ENDCHAR

STARTCHAR A4BE
ENCODING 42174
SWIDTH 960 0
DWIDTH 24 0
BBX 24 24 0 -4
BITMAP
000000
41000C
7F9FFE
63800C
630018
660170
6401C0
680180
640180
620180
63018C
61BFFE
618180
618180
638180
6F0180
660180
600180
600180
600180
600180
600F80
600300
000000
ENDCHAR

STARTCHAR A4BF
ENCODING 42175
SWIDTH 960 0
DWIDTH 24 0
BBX 24 24 0 -4
BITMAP
000000
000018
00003C
7FFFFE
018600
018600
618618
7FFFFC
618618
618618
618618
618618
618618
618718
638798
66ECF8
786C78
701818
603018
604018
6000F8
600038
600030
000000
ENDCHAR

STARTCHAR A4C0
ENCODING 42176
SWIDTH 960 0
DWIDTH 24 0
BBX 24 24 0 -4
BITMAP
000000
006300
01F380
07FB00
7F0300
030300
030300
030300
031300
7FFB00
030300
030300
030300
233300
3FFB00
303300
303304
303304
303304
303304
30330C
3FF3FE
1021FC
000000
ENDCHAR

STARTCHAR A4C1
ENCODING 42177
SWIDTH 960 0
DWIDTH 24 0
BBX 24 24 0 -4
BITMAP
000000
008030
00FFF8
00C030
00C030
00C030
04C030
7EC030
00C030
00C030
00FFF0
0059A0
001980
001980
061980
7F1980
003184
003184
003184
006184
00C18C
0181FE
0600FC
000000
ENDCHAR

STARTCHAR A4C2
ENCODING 42178
SWIDTH 960 0
DWIDTH 24 0
BBX 24 24 0 -4
BITMAP
000000
000008
00001C
7FFFFE
00CC00
00CC00
00CC00
00CC00
18CC60
1FFFF0
18CC60
18CC60
18CC60
18CC60
18CC60
1FFFE0
18CC60
00CC00
00CC00
00CC00
00CC08
00CC1C
7FFFFE
000000
ENDCHAR

STARTCHAR A4C3
ENCODING 42179
SWIDTH 960 0
DWIDTH 24 0
BBX 24 24 0 -4
BITMAP
000000
060300
070380
060300
060300
0C0330
0C7FF8
1C0300
1C0300
3C0300
2C030C
4CFFFE
0C0300
0C0780
0C0FC0
0C1B60
0C3338
0C631C
0CC30E
0D0304
0C0300
0C0300
0C0300
000000
ENDCHAR

STARTCHAR A4C4
ENCODING 42180
SWIDTH 960 0
DWIDTH 24 0
BBX 24 24 0 -4
BITMAP
000000
060180
0701C0
060180
062188
0C3FFC
0C318E
1C3198
1C31B0
3C3180
2C3188
4C3FFC
0C3418
0C3618
0C3230
0C3330
0C31E0
0C30C0
0C61E0
0C6370
0CC638
0C8C1E
0D300C
000000
ENDCHAR

STARTCHAR A4C5
ENCODING 42181
SWIDTH 960 0
DWIDTH 24 0
BBX 24 24 0 -4
BITMAP
000000
062060
073FF0
063060
063060
0C3060
0C3060
1C3060
1C3FE0
3C3060
2C3060
4C3060
0C3060
0C3060
0C3FE0
0C3060
0C3060
0C3060
0C3060
0C3060
0C306C
0DFFFE
0C0000
000000
ENDCHAR

STARTCHAR A4C6
ENCODING 42182
SWIDTH 960 0
DWIDTH 24 0
BBX 24 24 0 -4
BITMAP
000000
060300
070380
060300
060300
0C0300
0C830C
1CFFFE
1CC30C
3CC30C
2CC30C
4CC30C
0CC30C
0CC30C
0CFFFC
0CC30C
0CC30C
0CC30C
0CC30C
0CC30C
0CC30C
0CFFFC
0C4008
000000
ENDCHAR

STARTCHAR A4C7
ENCODING 42183
SWIDTH 960 0
DWIDTH 24 0
BBX 24 24 0 -4
BITMAP
000000
0618C0
071CE0
0618C0
0618C0
0C30C0
0C30CC
1C67FE
1CC0CC
3CC4CC
2C66CC
4C3CCC
0C1CCC
0C18CC
0C30CC
0C60CC
0CC6CC
0D838C
0FFF8C
0DE30C
0C061C
0C0CF8
0C3030
000000
ENDCHAR

STARTCHAR A4C8
ENCODING 42184
SWIDTH 960 0
DWIDTH 24 0
BBX 24 24 0 -4
BITMAP
000000
06400C
077FFE
06600C
06600C
0C600C
0C600C
1C7FFC
1C6008
3C6600
2C6700
4C6610
0C6638
0C6670
0C66C0
0C6F80
0C7E00
0C6600
0C6604
0CC604
0CC60C
0C87FE
0D03FC
000000
ENDCHAR

STARTCHAR A4C9
ENCODING 42185
SWIDTH 960 0
DWIDTH 24 0
BBX 24 24 0 -4
BITMAP
000000
060010
070038
06FFFC
060300
0C0300
0C0300
1C0300
1C0300
3C6300
2C7318
4C63FC
0C6300
0C6300
0C6300
0C6300
0C6300
0C6300
0C6300
0C6308
0C631C
0FFFFE
0C0000
000000
ENDCHAR

STARTCHAR A4CA
ENCODING 42186
SWIDTH 960 0
DWIDTH 24 0
BBX 24 24 0 -4
BITMAP
000000
060008
07001C
06FFFE
060300
0C0300
0C0300
1C830C
1CFFFE
3CC30C
2CC30C
4CC30C
0CC30C
0CC68C
0CC6CC
0CCC6C
0CC86C
0CD00C
0CC00C
0CC00C
0CC07C
0CC01C
0CC018
000000
ENDCHAR

STARTCHAR A4CB
ENCODING 42187
SWIDTH 960 0
DWIDTH 24 0
BBX 24 24 0 -4
BITMAP
000000
061860
071C70
061860
061860
0C1860
0C186C
1DFFFE
1C1860
3C1860
2C1860
4C1860
0C1860
0C1860
0C1FE0
0C1860
0C1860
0C1860
0C1860
0C1860
0C1860
0C1FE0
0C0840
000000
ENDCHAR

STARTCHAR A4CC
ENCODING 42188
SWIDTH 960 0
DWIDTH 24 0
BBX 24 24 0 -4
BITMAP
000000
06000C
073FFE
06030C
06030C
0C030C
0C030C
1C060C
1C060C
3C0C18
2C0C78
4C1830
0C6000
0C200C
0C3FFE
0C300C
0C300C
0C300C
0C300C
0C300C
0C300C
0C3FFC
0C1008
000000
ENDCHAR

STARTCHAR A4CD
ENCODING 42189
SWIDTH 960 0
DWIDTH 24 0
BBX 24 24 0 -4
BITMAP
000000
061018
071FFC
061818
061A18
0C1998
0C1998
1C18D8
1C18D8
3C1818
2CFFFE
4C3030
0C3430
0C3330
0C3330
0C31B0
0C31B0
0C3034
0C3FFE
0C1030
0C0070
0C03E0
0C00C0
000000
ENDCHAR

STARTCHAR A4CE
ENCODING 42190
SWIDTH 960 0
DWIDTH 24 0
BBX 24 24 0 -4
BITMAP
000000
06200C
073FFE
06300C
06300C
0C300C
0C300C
1C300C
1C300C
3C3FFC
2C3008
4C3000
0C3000
0C300C
0C3FFE
0C300C
0C300C
0C300C
0C300C
0C300C
0C300C
0C3FFC
0C1008
000000
ENDCHAR

STARTCHAR A4CF
ENCODING 42191
SWIDTH 960 0
DWIDTH 24 0
BBX 24 24 0 -4
BITMAP
000000
060000
070000
060000
06800C
0CFFFE
0CCCCC
1CCCCC
1CCCCC
3CCCCC
2CCCCC
4CCCCC
0CCCCC
0CCCCC
0CCCCC
0CCCFC
0CD87C
0CE00C
0CC00C
0CC00C
0CC00C
0CFFFC
0C4008
000000
ENDCHAR

STARTCHAR A4D0
ENCODING 42192
SWIDTH 960 0
DWIDTH 24 0
BBX 24 24 0 -4
BITMAP
000000
060600
070700
060F00
060D80
0C18C0
0C1860
1C3030
1C3038
3C601C
2CC31E
4F038C
0C0300
0C0300
0C3330
0C3B18
0C730C
0C630E
0CC306
0D0306
0C1F00
0C0700
0C0600
000000
ENDCHAR

STARTCHAR A4D1
ENCODING 42193
SWIDTH 960 0
DWIDTH 24 0
BBX 24 24 0 -4
BITMAP
000000
0C0180
0601C0
030380
018300
01C600
04CC40
07FFE0
0600C0
0600C0
0600C0
0600C0
07FFC0
02C680
00C600
00C600
00C600
018600
018604
030604
06060C
1C07FE
7003FC
000000
ENDCHAR

STARTCHAR A4D2
ENCODING 42194
SWIDTH 960 0
DWIDTH 24 0
BBX 24 24 0 -4
BITMAP
000000
000080
0FFFE0
0030E0
0070C0
00C0C0
018DC0
030790
140030
1FFFF0
183030
183030
183030
1FFFF0
083620
003600
006600
006600
00C604
018604
03060C
0E07FE
7803FC
000000
ENDCHAR

STARTCHAR A4D3
ENCODING 42195
SWIDTH 960 0
DWIDTH 24 0
BBX 24 24 0 -4
BITMAP
000000
0C0030
0E7FF8
0C4030
0C4030
0C4030
0C7FF0
0C4030
0C4030
0C4030
0C7FF0
0D0830
01CE00
018C00
018C00
018C00
018C00
018C00
018C04
030C04
060C0C
180FFE
6007FC
000000
ENDCHAR

STARTCHAR A4D4
ENCODING 42196
SWIDTH 960 0
DWIDTH 24 0
BBX 24 24 0 -4
BITMAP
000000
000180
0007C0
007FE0
0FF800
001800
001800
081830
0FFFF8
0C1830
0C1830
0C1830
0C1830
0FFFF0
046620
006600
0066E0
00C674
018634
030604
06060C
1807FE
6003FC
000000
ENDCHAR

STARTCHAR A4D5
ENCODING 42197
SWIDTH 960 0
DWIDTH 24 0
BBX 24 24 0 -4
BITMAP
000000
40000C
7FFFFE
601806
601806
601806
781E06
6C1B06
6C1B06
661986
661986
6318C6
6318C6
6398E6
66D9B6
6C7B1E
783E0E
701C06
601806
601806
60183E
60180E
60180C
000000
ENDCHAR

STARTCHAR A4D6
ENCODING 42198
SWIDTH 960 0
DWIDTH 24 0
BBX 24 24 0 -4
BITMAP
000000
080030
0FFFF8
0C1830
0C1C30
0C1830
0C1830
0C3830
0C3C30
0C6630
0CC3B0
0D81F0
0E00F0
0C0030
0C0034
7FFFFE
000000
00C300
01E1C0
0380F0
070038
1C001C
70000C
000000
ENDCHAR

STARTCHAR A4D7
ENCODING 42199
SWIDTH 960 0
DWIDTH 24 0
BBX 24 24 0 -4
BITMAP
000000
100008
1FFFFC
30000E
70001C
600030
060180
07FF80
060180
060180
060180
07FF80
060180
060180
060180
060180
07FF80
060180
060180
060188
06019C
7FFFFE
000000
000000
ENDCHAR

STARTCHAR A4D8
ENCODING 42200
SWIDTH 960 0
DWIDTH 24 0
BBX 24 24 0 -4
BITMAP
000000
000008
30001C
1C7FFE
0C0600
0C0700
000600
000600
000600
020C00
020C0C
020FFE
061E0C
041E0C
0C360C
0C360C
18660C
78C60C
19860C
1A060C
18060C
1807FC
180208
000000
ENDCHAR

STARTCHAR A4D9
ENCODING 42201
SWIDTH 960 0
DWIDTH 24 0
BBX 24 24 0 -4
BITMAP
000000
306030
187FF8
186038
086030
006030
026030
026030
026030
026030
047FF0
046DB0
0C0D80
080D80
180D80
380D80
181980
181980
183180
183184
18618C
18C1FE
1B00FC
000000
ENDCHAR

STARTCHAR A4DA
ENCODING 42202
SWIDTH 960 0
DWIDTH 24 0
BBX 24 24 0 -4
BITMAP
000000
300300
180380
183340
083B30
003318
00631C
04830C
040330
043FF8
080300
080300
18030C
11FFFE
300300
700300
300300
300300
300300
300300
300300
300300
000300
000000
ENDCHAR

STARTCHAR A4DB
ENCODING 42203
SWIDTH 960 0
DWIDTH 24 0
BBX 24 24 0 -4
BITMAP
000000
100000
1FFFF0
180030
180030
180030
180130
1BFFB0
180030
180030
1A01B0
1BFFB0
1B01B0
1B01B0
1BFFB0
1B01B0
1B01B0
1BFFB0
190132
300032
200036
20003E
40001C
000000
ENDCHAR

STARTCHAR A4DC
ENCODING 42204
SWIDTH 960 0
DWIDTH 24 0
BBX 24 24 0 -4
BITMAP
000000
06000C
07000E
06000C
0C00CC
0C00EC
1840CC
3030CC
6018CC
7FFCCC
7C1CCC
300CCC
0000CC
2030CC
3FF8CC
3030CC
3030CC
30300C
30300C
30300C
30300C
3FF03C
102018
000000
ENDCHAR

STARTCHAR A4DD
ENCODING 42205
SWIDTH 960 0
DWIDTH 24 0
BBX 24 24 0 -4
BITMAP
000000
030000
038000
03000C
033FFE
03018C
03618C
7FF18C
03018C
03018C
03318C
7FF98C
03018C
03018C
03018C
06018C
06630C
04330C
087A0C
7F9E0C
38041C
200CFC
003018
000000
ENDCHAR

STARTCHAR A4DE
ENCODING 42206
SWIDTH 960 0
DWIDTH 24 0
BBX 24 24 0 -4
BITMAP
000000
03000C
03800E
03000C
0300CC
0320EC
3FF0CC
0300CC
0300CC
0300CC
0310CC
7FF8CC
0300CC
0600CC
0600CC
0C00CC
1840CC
30600C
60300C
7FF00C
7E300C
38103C
000018
000000
ENDCHAR

STARTCHAR A4DF
ENCODING 42207
SWIDTH 960 0
DWIDTH 24 0
BBX 24 24 0 -4
BITMAP
000000
00180C
7FFC0E
03180C
0318CC
0618EC
0618CC
0C18CC
0C18CC
1830CC
61F0CC
0060CC
0000CC
4030CC
7FF8CC
6030CC
6030CC
60300C
60300C
60300C
60300C
7FF03C
202018
000000
ENDCHAR

STARTCHAR A4E0
ENCODING 42208
SWIDTH 960 0
DWIDTH 24 0
BBX 24 24 0 -4
BITMAP
000000
20180C
3FFC0E
30180C
30180C
30198C
3019CC
30198C
3FF98C
13118C
03818C
03018C
03198C
7FFD8C
03198C
03198C
06198C
06180C
0C180C
0C180C
18387C
31F01C
406018
000000
ENDCHAR

STARTCHAR A4E1
ENCODING 42209
SWIDTH 960 0
DWIDTH 24 0
BBX 24 24 0 -4
BITMAP
000000
23460C
3FFE0E
33660C
33660C
3366CC
3366EC
3366CC
3366CC
3367CC
7FFFCC
3366CC
3366CC
3366CC
3366CC
3366CC
3366CC
33660C
33660C
33660C
33667C
376E1C
326418
000000
ENDCHAR

STARTCHAR A4E2
ENCODING 42210
SWIDTH 960 0
DWIDTH 24 0
BBX 24 24 0 -4
BITMAP
000000
000000
30C00C
1C701E
0E3838
071C60
030CC0
000000
10000C
3FFFFE
300006
70300C
603810
0030C0
0FFFE0
0030C0
0060C0
0060C0
00C0C0
0180C0
0301C0
060F80
080300
000000
ENDCHAR

STARTCHAR A4E3
ENCODING 42211
SWIDTH 960 0
DWIDTH 24 0
BBX 24 24 0 -4
BITMAP
000000
018300
01C388
01831C
7FFFFE
018300
018300
018300
000000
10000C
3FFFFE
303006
70380C
603050
0FFFE0
0030C0
0030C0
0060C0
0060C0
00C0C0
0181C0
030F80
0C0300
000000
ENDCHAR

STARTCHAR A4E4
ENCODING 42212
SWIDTH 960 0
DWIDTH 24 0
BBX 24 24 0 -4
BITMAP
000000
0300C0
0380E0
0300C0
3330C0
3B38C0
3330CC
3337FE
3330CC
3330CC
3FF0CC
1320CC
0300CC
0300CC
6318CC
731CCC
63198C
63198C
631B0C
631B0C
631E1C
7FFCF8
201030
000000
ENDCHAR

STARTCHAR A4E5
ENCODING 42213
SWIDTH 960 0
DWIDTH 24 0
BBX 24 24 0 -4
BITMAP
000000
000008
40001C
7FFFFE
606000
60F180
61C0C0
630060
67FFF0
63F030
606180
6071C0
606180
6061B0
67FFF8
606180
606180
60C180
60C180
618188
63019C
7FFFFE
200000
000000
ENDCHAR

STARTCHAR A4E6
ENCODING 42214
SWIDTH 960 0
DWIDTH 24 0
BBX 24 24 0 -4
BITMAP
000000
400018
7FFFFC
60C000
60E000
60C020
61FFF0
618C00
630C00
660C10
6BFFF8
600C00
601E00
601B00
603180
6060E0
60C078
63803E
6E000C
600000
600004
7FFFFE
200000
000000
ENDCHAR

STARTCHAR A4E7
ENCODING 42215
SWIDTH 960 0
DWIDTH 24 0
BBX 24 24 0 -4
BITMAP
000000
030000
03820C
0303FE
03030C
03230C
3FF30C
03030C
03030C
03030C
03330C
7FFB0C
03030C
06030C
0C430C
18630C
30F37C
7F3318
7C2310
300300
000300
000300
000300
000000
ENDCHAR

STARTCHAR A4E8
ENCODING 42216
SWIDTH 960 0
DWIDTH 24 0
BBX 24 24 0 -4
BITMAP
000000
000008
08001C
0FFFFE
0C0000
0C1800
0C0C00
0C0600
0C0630
0DFFF8
0C0060
0CC070
0C6060
0C3060
0C30C0
0C38C0
0C1980
1C1980
181B00
181B00
20020C
23FFFE
400000
000000
ENDCHAR

STARTCHAR A4E9
ENCODING 42217
SWIDTH 960 0
DWIDTH 24 0
BBX 24 24 0 -4
BITMAP
000000
000008
10001C
1FFFFE
180000
180600
180700
180600
180600
180618
1FFFFC
180600
180600
180600
190618
19FFFC
198018
198018
398018
318018
218018
21FFF8
408010
000000
ENDCHAR

STARTCHAR A4EA
ENCODING 42218
SWIDTH 960 0
DWIDTH 24 0
BBX 24 24 0 -4
BITMAP
000000
10000C
1FFFFE
180000
180000
190018
19FFFC
198618
198618
198618
19FFF8
198618
198618
198618
19FFF8
188610
180600
180600
180600
300600
300600
600600
400600
000000
ENDCHAR

STARTCHAR A4EB
ENCODING 42219
SWIDTH 960 0
DWIDTH 24 0
BBX 24 24 0 -4
BITMAP
000000
000600
000300
40C180
7FC180
60C18C
60DFFE
60C600
60C600
60C60C
60C7FE
60C60C
60C60C
60C60C
7FC60C
20460C
000C0C
000C0C
00180C
00180C
00301C
0060F8
008030
000000
ENDCHAR

STARTCHAR A4EC
ENCODING 42220
SWIDTH 960 0
DWIDTH 24 0
BBX 24 24 0 -4
BITMAP
000000
0000C0
0000E0
0000C0
0000C0
40C0CC
7FDFFE
60C0C0
60C0C0
60C0C8
60CFFC
60C0C0
60C0C0
60C0C0
60C0C6
60DFFE
7FC0C0
2040C0
0000C0
0000C0
0000C0
0000C0
0000C0
000000
ENDCHAR

STARTCHAR A4ED
ENCODING 42221
SWIDTH 960 0
DWIDTH 24 0
BBX 24 24 0 -4
BITMAP
000000
000000
000010
000038
003FFC
40C000
7FE000
60C000
60C000
60C00C
60FFFE
60C300
60C380
60C300
60C600
60C600
60CC30
7FCC18
20980C
0033FE
007FC6
003806
001006
000000
ENDCHAR

STARTCHAR A4EE
ENCODING 42222
SWIDTH 960 0
DWIDTH 24 0
BBX 24 24 0 -4
BITMAP
000000
000600
000700
000600
000600
430600
7F0610
63FFF8
630F00
630F00
631F80
631F80
6336C0
6336C0
636660
636660
7FC630
02C638
01861E
06060C
000600
000600
000600
000000
ENDCHAR

STARTCHAR A4EF
ENCODING 42223
SWIDTH 960 0
DWIDTH 24 0
BBX 24 24 0 -4
BITMAP
000000
000180
0001C0
430198
7F818E
630186
630180
63018C
637FFE
630180
630180
630180
630180
6303C0
6303C0
6303C0
6306C0
7F06C0
220CC4
0018C4
0030CC
0060FE
01C07C
000000
ENDCHAR

STARTCHAR A4F0
ENCODING 42224
SWIDTH 960 0
DWIDTH 24 0
BBX 24 24 0 -4
BITMAP
000000
000860
000FF0
430C60
7F8C60
630C60
630C60
630C60
631860
63107E
63603C
630008
633FFC
63301C
631838
630C70
630660
7F03C0
2201C0
0007E0
000E78
00381E
01C00C
000000
ENDCHAR

STARTCHAR A4F1
ENCODING 42225
SWIDTH 960 0
DWIDTH 24 0
BBX 24 24 0 -4
BITMAP
000000
0000C0
000040
000640
430760
7F0660
630C30
630C30
631818
63181C
63330E
637386
636300
630300
630600
7F0600
220C00
000C20
001818
00300C
007FFE
003F8E
001C06
000000
ENDCHAR

STARTCHAR A4F2
ENCODING 42226
SWIDTH 960 0
DWIDTH 24 0
BBX 24 24 0 -4
BITMAP
000000
00C000
006000
006000
40300C
7FFFFE
60380C
60380C
60660C
60C30C
6181CC
6700FC
7C006C
60018C
63FF8C
63018C
63018C
63018C
63018C
63FF8C
61017C
60001C
600018
000000
ENDCHAR

STARTCHAR A4F3
ENCODING 42227
SWIDTH 960 0
DWIDTH 24 0
BBX 24 24 0 -4
BITMAP
000000
000180
3FFFC0
018180
018180
018318
0307FC
030218
060018
0C3038
1839F0
203060
00300C
7FFFFE
003000
183030
1FFFF8
180030
180030
180030
180030
1FFFF0
080020
000000
ENDCHAR

STARTCHAR A4F4
ENCODING 42228
SWIDTH 960 0
DWIDTH 24 0
BBX 24 24 0 -4
BITMAP
000000
000060
000070
431860
7F8E60
630660
630060
630060
631860
630C60
630660
630660
630060
63006C
637FFE
630060
630060
7F0060
220060
000060
000060
000060
000060
000000
ENDCHAR

STARTCHAR A4F5
ENCODING 42229
SWIDTH 960 0
DWIDTH 24 0
BBX 24 24 0 -4
BITMAP
000000
000000
000600
430700
7F0600
630660
630630
630618
630618
630600
631600
631600
631618
63360C
637606
636606
7F6600
220604
000604
000604
00070C
0003FE
0001FC
000000
ENDCHAR

STARTCHAR A4F6
ENCODING 42230
SWIDTH 960 0
DWIDTH 24 0
BBX 24 24 0 -4
BITMAP
000000
000000
000030
437FF8
7F8630
630630
630630
630634
637FFE
630630
630630
630630
630630
637FF0
630620
630600
630C00
7F0C00
220C00
001800
001800
003000
01C000
000000
ENDCHAR

STARTCHAR A4F7
ENCODING 42231
SWIDTH 960 0
DWIDTH 24 0
BBX 24 24 0 -4
BITMAP
000000
00000C
00018E
007FCC
00018C
43018C
7F818C
63418C
637F8C
63610C
63600C
63600C
63608C
637F8C
63218C
63018C
7F018C
22018C
00018C
00018C
00018C
001F8C
00070C
000000
ENDCHAR

STARTCHAR A4F8
ENCODING 42232
SWIDTH 960 0
DWIDTH 24 0
BBX 24 24 0 -4
BITMAP
000000
000300
000380
000300
418300
7F8300
618318
61BFFC
618300
618300
618300
618308
61831C
61FFFE
7F8300
210300
000680
0006C0
000C60
001870
003038
00601E
00800C
000000
ENDCHAR

STARTCHAR A4F9
ENCODING 42233
SWIDTH 960 0
DWIDTH 24 0
BBX 24 24 0 -4
BITMAP
000000
0060C0
0070E0
4360C0
7FE0C0
6360C0
6360C0
6360C0
6360C0
6364C8
637EFC
6360C0
6360C0
6360C0
6360C0
6360C0
6360C0
7F60C4
2260C4
0060C4
006CCC
00F8FE
00307C
000000
ENDCHAR

STARTCHAR A4FA
ENCODING 42234
SWIDTH 960 0
DWIDTH 24 0
BBX 24 24 0 -4
BITMAP
000000
00600C
43600E
7F600C
63600C
63702C
63686C
63686C
6364CC
63658C
63638C
63638C
63638C
7F638C
2266CC
0066CC
006CCC
006C6C
00686C
00600C
00600C
007FFC
002008
000000
ENDCHAR

STARTCHAR A4FB
ENCODING 42235
SWIDTH 960 0
DWIDTH 24 0
BBX 24 24 0 -4
BITMAP
000000
0200C0
03FFE0
0300C0
0300C0
0300C0
0300C0
03FFC0
010080
000000
000060
07FFF0
001800
001800
00180C
7FFFFE
001C00
003600
006300
00C1C0
0380F0
0E003E
70000C
000000
ENDCHAR

STARTCHAR A4FC
ENCODING 42236
SWIDTH 960 0
DWIDTH 24 0
BBX 24 24 0 -4
BITMAP
000000
0400C0
07FFE0
0600C0
0600C0
0600C0
0600C0
07FFC0
023080
006000
00C020
01FFF0
000060
0000C0
000184
7FFFFE
006000
00F180
01C0C0
038070
070038
1C001C
70000C
000000
ENDCHAR

STARTCHAR A4FD
ENCODING 42237
SWIDTH 960 0
DWIDTH 24 0
BBX 24 24 0 -4
BITMAP
000000
0000C0
0000E0
40C0C0
7FE0C0
60D0CC
60DFFE
60D8CC
60D8CC
60D8CC
60D98C
60D9CC
60DB6C
60DE3C
7FDC3C
40980C
00180C
00180C
00180C
00180C
00187C
00181C
001818
000000
ENDCHAR

STARTCHAR A4FE
ENCODING 42238
SWIDTH 960 0
DWIDTH 24 0
BBX 24 24 0 -4
BITMAP
000000
030000
039800
130C60
130638
33061C
33004E
730046
6380E0
03FFE0
01FFC0
000000
100018
1FFFFC
180018
180018
180018
180018
180018
180018
180018
1FFFF8
080010
000000
ENDCHAR

STARTCHAR A5A1
ENCODING 42401
SWIDTH 960 0
DWIDTH 24 0
BBX 24 24 0 -4
BITMAP
000000
001800
061C00
071800
061800
0C1830
0FFFF8
181800
301800
401808
00181C
7FFFFE
001800
001800
080030
0FFFF8
0C0030
0C0030
0C0030
0C0030
0C0030
0FFFF0
040020
000000
ENDCHAR

STARTCHAR A5A2
ENCODING 42402
SWIDTH 960 0
DWIDTH 24 0
BBX 24 24 0 -4
BITMAP
000000
0001C0
0007E0
007FF0
0FF800
001800
001808
00181C
7FFFFE
003400
006300
00C180
0180E0
070038
0E007E
7FFFEC
060060
060060
060060
060060
060060
07FFE0
020040
000000
ENDCHAR

STARTCHAR A5A3
ENCODING 42403
SWIDTH 960 0
DWIDTH 24 0
BBX 24 24 0 -4
BITMAP
000000
000C00
000E00
430C00
7F8C00
631800
631808
631FFC
633860
633860
636C60
634CC0
6304C0
630680
630380
630380
6306C0
7F06C0
220C60
000C70
001838
00301E
00C00C
000000
ENDCHAR

STARTCHAR A5A4
ENCODING 42404
SWIDTH 960 0
DWIDTH 24 0
BBX 24 24 0 -4
BITMAP
000000
0001C0
000FE0
08FF00
0FC000
0C000C
0FFFFE
0C000C
0C000C
0C000C
0C000C
0FFFFC
0C0008
0C0000
0D0018
0DFFF8
0D8018
0D8018
198018
198018
318018
31FFF8
408010
000000
ENDCHAR

STARTCHAR A5A5
ENCODING 42405
SWIDTH 960 0
DWIDTH 24 0
BBX 24 24 0 -4
BITMAP
000000
000020
000070
433FF8
7F8300
630300
630300
630300
630300
630330
637FF8
630630
630630
630630
630630
630630
7F0630
220630
000630
000630
000634
00FFFE
000000
000000
ENDCHAR

STARTCHAR A5A6
ENCODING 42406
SWIDTH 960 0
DWIDTH 24 0
BBX 24 24 0 -4
BITMAP
000000
40000C
7FFFFE
60000C
60010C
67FF8C
60000C
60000C
6000CC
6FFFEC
60300C
60780C
60C30C
61818C
6300CC
663FEC
6FFC6C
67C06C
63006C
60000C
60000C
7FFFFC
200008
000000
ENDCHAR

STARTCHAR A5A7
ENCODING 42407
SWIDTH 960 0
DWIDTH 24 0
BBX 24 24 0 -4
BITMAP
000000
40000C
7FFFFE
60000C
60C18C
60E1CC
60C18C
60C18C
60C18C
67FFEC
60C18C
60C18C
60C1AC
6FFFFC
60C18C
60C18C
60C18C
61818C
61818C
63018C
64018C
7FFFFC
200008
000000
ENDCHAR

STARTCHAR A5A8
ENCODING 42408
SWIDTH 960 0
DWIDTH 24 0
BBX 24 24 0 -4
BITMAP
000000
40000C
7FFFFE
60000C
60000C
62180C
618E6C
68C76C
6442EC
6300CC
61818C
60C30C
60760C
601C0C
601E0C
60370C
60638C
60C1CC
6180EC
6300EC
6C006C
7FFFFC
200008
000000
ENDCHAR

STARTCHAR A5A9
ENCODING 42409
SWIDTH 960 0
DWIDTH 24 0
BBX 24 24 0 -4
BITMAP
000000
40000C
7FFFFE
60000C
6000CC
6FFFEC
60300C
60300C
60300C
60300C
60300C
60318C
67FFCC
60300C
60300C
60300C
60300C
60300C
6030CC
6FFFEC
60000C
7FFFFC
200008
000000
ENDCHAR

STARTCHAR A5AA
ENCODING 42410
SWIDTH 960 0
DWIDTH 24 0
BBX 24 24 0 -4
BITMAP
000000
40000C
7FFFFE
60000C
60060C
63FF0C
60000C
60000C
6000CC
6FFFEC
60CC0C
60CC0C
60CC0C
60CC0C
60CC0C
61CC0C
618C4C
630C4C
660CCC
6C0FEC
70078C
7FFFFC
200008
000000
ENDCHAR

STARTCHAR A5AB
ENCODING 42411
SWIDTH 960 0
DWIDTH 24 0
BBX 24 24 0 -4
BITMAP
000000
40000C
7FFFFE
61830C
61830C
61830C
61830C
61830C
61FF0C
61830C
61830C
61830C
61830C
61830C
61830C
61FF0C
61830C
61830C
61830C
61830C
61830C
7FFFFC
200008
000000
ENDCHAR

STARTCHAR A5AC
ENCODING 42412
SWIDTH 960 0
DWIDTH 24 0
BBX 24 24 0 -4
BITMAP
000000
40000C
7FFFFE
60000C
60180C
601C0C
60180C
60184C
6058EC
6FF9CC
60DB0C
60DE0C
619C0C
619E0C
631B0C
63198C
6619CC
6C18FC
70F86C
60300C
60000C
7FFFFC
200008
000000
ENDCHAR

STARTCHAR A5AD
ENCODING 42413
SWIDTH 960 0
DWIDTH 24 0
BBX 24 24 0 -4
BITMAP
000000
0C2004
0E3FFE
0C300C
0C7018
0C6010
0D0000
7F8CC0
0C0EE0
0C0CC0
0C0CC0
0C0CC0
0C0CC0
0C0CC0
0C0CC0
0C0CC0
0C0CC0
0C0CC0
0F98C4
7E18C4
3830CC
1060FE
00807C
000000
ENDCHAR

STARTCHAR A5AE
ENCODING 42414
SWIDTH 960 0
DWIDTH 24 0
BBX 24 24 0 -4
BITMAP
000000
0C0010
0E7FF8
0C0070
0C00E0
0C0D80
0D0700
7F81C0
0C00C4
0CFFFE
0C018C
0C0198
0C0190
0C0180
0C0180
0C0180
0C0180
0F8180
7E0180
380180
100F80
000380
000300
000000
ENDCHAR

STARTCHAR A5AF
ENCODING 42415
SWIDTH 960 0
DWIDTH 24 0
BBX 24 24 0 -4
BITMAP
000000
0C10C0
0E1FE0
0C18C0
0C18C0
0C18C0
0D18C0
7F30C0
0C30C0
0C60FE
0CC07C
0C0000
0C0040
0C3FF0
0C1860
0C0CC0
0C0780
0F8300
7E0780
380DC0
101870
00703E
01C01C
000000
ENDCHAR

STARTCHAR A5B0
ENCODING 42416
SWIDTH 960 0
DWIDTH 24 0
BBX 24 24 0 -4
BITMAP
000000
000040
0C00E0
0E0180
0C03C0
0C0660
0C0C30
0D1818
7FA00C
0C4C6E
0C8C64
0C0C60
0C0C60
0C0C60
0C0C60
0C0C60
0C0C60
0C0C60
0F8C60
7E1860
783060
306060
00C060
000000
ENDCHAR

STARTCHAR A5B1
ENCODING 42417
SWIDTH 960 0
DWIDTH 24 0
BBX 24 24 0 -4
BITMAP
000000
040060
07FFF0
060060
060060
060060
07FFE0
060060
060060
060060
07FFE0
040020
000000
001800
001C00
001800
0018C0
07FFE0
001800
001800
001800
00180C
7FFFFE
000000
ENDCHAR

STARTCHAR A5B2
ENCODING 42418
SWIDTH 960 0
DWIDTH 24 0
BBX 24 24 0 -4
BITMAP
000000
00C300
00C300
00C360
0FFFF0
00C300
00C300
00C300
00C318
3FFFFC
00C300
00C300
018300
018300
030300
1C1B00
001C00
0018C0
07FFE0
001800
001800
00180C
7FFFFE
000000
ENDCHAR

STARTCHAR A5B3
ENCODING 42419
SWIDTH 960 0
DWIDTH 24 0
BBX 24 24 0 -4
BITMAP
000000
0000C0
07FFE0
000000
000060
3FFFFC
00C600
00C600
00C600
00C600
00C600
018604
030604
06060E
0C07FE
301BFC
001C00
0018C0
07FFE0
001800
001800
00180C
7FFFFE
000000
ENDCHAR

STARTCHAR A5B4
ENCODING 42420
SWIDTH 960 0
DWIDTH 24 0
BBX 24 24 0 -4
BITMAP
000000
0C00C0
0E00E0
0C18C0
0C0EC0
0C06C0
0D00C0
7F80C0
0C18C0
0C0CC0
0C06C0
0C06C0
0C00C0
0C00C0
0C00CC
0CFFFE
0C00C0
0F80C0
7E00C0
7800C0
3000C0
0000C0
0000C0
000000
ENDCHAR

STARTCHAR A5B5
ENCODING 42421
SWIDTH 960 0
DWIDTH 24 0
BBX 24 24 0 -4
BITMAP
000000
000200
0C0300
0E0180
0C0084
0C7FFE
0C1010
0D1018
7F8838
0C0430
0C0430
0C0660
0C0260
0C02C0
0C0380
0C0180
0C0380
0C02C0
0F86E0
7E0C70
78183C
30301E
00400C
000000
ENDCHAR

STARTCHAR A5B6
ENCODING 42422
SWIDTH 960 0
DWIDTH 24 0
BBX 24 24 0 -4
BITMAP
000000
000060
0C1FF0
0E0000
0C0000
0C0000
0C0000
0D0000
7F800C
0C7FFE
0C06C0
0C06C0
0C06C0
0C06C0
0C06C0
0C0CC0
0C0CC0
0C0CC0
0F98C4
7E18C4
7830CC
3060FE
01807C
000000
ENDCHAR

STARTCHAR A5B7
ENCODING 42423
SWIDTH 960 0
DWIDTH 24 0
BBX 24 24 0 -4
BITMAP
000000
00000C
0C7FFE
0E0600
0C0600
0C0600
0C0600
0D0600
7F8C18
0C0FFC
0C0C18
0C0C18
0C0C18
0C1818
0C1830
0C1830
0C1830
0C1FF0
0F8060
7E0060
7800C0
3000C0
00FFFE
000000
ENDCHAR

STARTCHAR A5B8
ENCODING 42424
SWIDTH 960 0
DWIDTH 24 0
BBX 24 24 0 -4
BITMAP
000000
000600
0C0700
0E0600
0C0600
0C0630
0C7FF8
0D0630
7F8630
0C0630
0C0630
0C0634
0C7FFE
0C0600
0C0600
0C0C80
0C0CC0
0C1860
0F9830
7E301C
78600E
30C006
030000
000000
ENDCHAR

STARTCHAR A5B9
ENCODING 42425
SWIDTH 960 0
DWIDTH 24 0
BBX 24 24 0 -4
BITMAP
000000
0C30C0
0E38E0
0C30C0
0C30C0
0C30C0
0D30C0
7FB0C0
0C30C0
0C34C8
0C3EFC
0C30C0
0C30C0
0C30C0
0C30C0
0C30C0
0C30C0
0FB0C4
7E30C4
7830C4
303ECC
0038FE
00207C
000000
ENDCHAR

STARTCHAR A5BA
ENCODING 42426
SWIDTH 960 0
DWIDTH 24 0
BBX 24 24 0 -4
BITMAP
000000
0C0020
0E00F0
0C03F8
0C3F00
0C0300
0D0300
3F8310
0C0338
0C7FFC
0C0300
0C0300
0C0308
0C031C
0C7FFE
0C0300
0C0300
0F8300
7E0304
780304
30038C
0001FE
0000FC
000000
ENDCHAR

STARTCHAR A5BB
ENCODING 42427
SWIDTH 960 0
DWIDTH 24 0
BBX 24 24 0 -4
BITMAP
000000
0C0C00
0E0E00
0C0C00
0C180C
0C1FFE
0D1800
3FB300
0C6380
0CC300
0C0318
0C1FFC
0C0318
0C0318
0C0318
0C0318
0C0618
0F8618
7E0C18
780C18
301838
0031F0
004060
000000
ENDCHAR

STARTCHAR A5BC
ENCODING 42428
SWIDTH 960 0
DWIDTH 24 0
BBX 24 24 0 -4
BITMAP
000000
000C00
0C0E00
0E0C00
0C0C00
0C1800
0C1818
0D1FFC
7FB820
0C2820
0C6820
0CC440
0C0440
0C0680
0C0380
0C0380
0C06C0
0C06C0
0F8C60
7E0C70
781838
30301E
00C00C
000000
ENDCHAR

STARTCHAR A5BD
ENCODING 42429
SWIDTH 960 0
DWIDTH 24 0
BBX 24 24 0 -4
BITMAP
000000
0C0C00
0E0E00
0C0C00
0C0C00
0C1806
0D1FFE
7FB006
0C6006
0C8106
0C0386
0C0606
0C0C86
0C1866
0C3FF6
0C7F36
0C3806
0F8006
7E0006
780006
30000E
00007C
000018
000000
ENDCHAR

STARTCHAR A5BE
ENCODING 42430
SWIDTH 960 0
DWIDTH 24 0
BBX 24 24 0 -4
BITMAP
000000
0C1800
0E1C00
0C1800
0C180C
0C3FFE
0D366C
7FB66C
0C666C
0C466C
0C866C
0C0CCC
0C0CCC
0C0CCC
0C198C
0C198C
0C198C
0F330C
7E630C
39860C
100C1C
0030F8
000030
000000
ENDCHAR

STARTCHAR A5BF
ENCODING 42431
SWIDTH 960 0
DWIDTH 24 0
BBX 24 24 0 -4
BITMAP
000000
0C1800
0E1C00
0C180C
0C19FE
0C300C
0D360C
7FB70C
0C660C
0CC60C
0CCC0C
0CCC0C
0D8C0C
0DFC0C
0C180C
0C300C
0C300C
0FE00C
7EC00C
79900C
337C0C
07CEF8
030630
000000
ENDCHAR

STARTCHAR A5C0
ENCODING 42432
SWIDTH 960 0
DWIDTH 24 0
BBX 24 24 0 -4
BITMAP
000000
0000E0
0C0FF0
0E7E00
0C6000
0C6000
0C6000
0D6000
7FE030
0C7FF8
0C6830
0C6830
0C6460
0C6660
0C66C0
0C63C0
0C6180
0C63C0
0FE360
7EC670
798C38
33181E
06300C
000000
ENDCHAR

STARTCHAR A5C1
ENCODING 42433
SWIDTH 960 0
DWIDTH 24 0
BBX 24 24 0 -4
BITMAP
000000
001800
001830
00D860
1FF8C0
00D980
019B00
031980
061860
0C1838
18181E
30780C
401000
000000
000000
001800
001C00
0018C0
07FFE0
001800
001800
00180C
7FFFFE
000000
ENDCHAR

STARTCHAR A5C2
ENCODING 42434
SWIDTH 960 0
DWIDTH 24 0
BBX 24 24 0 -4
BITMAP
000000
000180
0007C0
003FC0
01F100
0F0100
0C6100
0C6180
0C6080
086080
086040
106060
106030
106038
20601E
40180C
001C00
0018C0
07FFE0
001800
001800
00180C
7FFFFE
000000
ENDCHAR

STARTCHAR A5C3
ENCODING 42435
SWIDTH 960 0
DWIDTH 24 0
BBX 24 24 0 -4
BITMAP
000000
001800
001C00
00180C
7FFFFE
001800
001800
001860
0FFFF0
200004
3FFFFE
30000C
630008
438180
0303C0
030F00
033800
03E000
030008
030008
030018
03FFFC
01FFF8
000000
ENDCHAR

STARTCHAR A5C4
ENCODING 42436
SWIDTH 960 0
DWIDTH 24 0
BBX 24 24 0 -4
BITMAP
000000
001800
001C08
00181C
3FFFFE
001800
001800
0018E0
07FFF0
10000C
3FFFFE
70000C
618318
01C380
018300
018300
018304
018304
018304
018304
03038E
0E03FE
7801FC
000000
ENDCHAR

STARTCHAR A5C5
ENCODING 42437
SWIDTH 960 0
DWIDTH 24 0
BBX 24 24 0 -4
BITMAP
000000
001800
001C08
00181C
3FFFFE
001800
0018E0
07FFF0
000000
080018
0FFFFC
0C180C
0C180C
0C180C
0FFFFC
0C0008
0C0000
0C0000
0C0000
180000
180000
300000
600000
000000
ENDCHAR

STARTCHAR A5C6
ENCODING 42438
SWIDTH 960 0
DWIDTH 24 0
BBX 24 24 0 -4
BITMAP
000000
030000
038040
060030
1C0018
3FFFFC
18630C
006300
00C300
018380
0761FE
7C70FC
086180
06FFC0
038180
07C300
1C7600
001C00
003E00
006700
00C1E0
03807E
3E001C
000000
ENDCHAR

STARTCHAR A5C7
ENCODING 42439
SWIDTH 960 0
DWIDTH 24 0
BBX 24 24 0 -4
BITMAP
000000
003000
003800
003030
1FFFF8
003000
003060
0FFFF0
003000
00301C
7FFFFE
006000
086000
06C040
03FFE0
0181C0
03C300
066600
0C1C00
303F00
00E3C0
0780FE
3C0038
000000
ENDCHAR

STARTCHAR A5C8
ENCODING 42440
SWIDTH 960 0
DWIDTH 24 0
BBX 24 24 0 -4
BITMAP
000000
018000
03C000
070000
4C000C
7FFFFE
60600C
60700C
60608C
60FFEC
60C0CC
6180CC
63C18C
66630C
683F0C
600E0C
601C0C
60380C
60E00C
63800C
7E000C
7FFFFC
200008
000000
ENDCHAR

STARTCHAR A5C9
ENCODING 42441
SWIDTH 960 0
DWIDTH 24 0
BBX 24 24 0 -4
BITMAP
000000
003800
003808
00301C
7FFFFE
006400
006200
00C300
0181C0
0300F0
04007C
18019E
63FFCC
000000
000038
3FFFFC
006180
00C0E0
008038
0107DC
1FFE0E
0FF00E
0E000C
000000
ENDCHAR

STARTCHAR A5CA
ENCODING 42442
SWIDTH 960 0
DWIDTH 24 0
BBX 24 24 0 -4
BITMAP
000000
003800
003808
00301C
7FFFFE
006400
006200
00C300
0181C0
0300F0
04007C
18181E
601C0C
001800
00180C
7FFFFE
001800
009900
01D8C0
031870
0C1838
301818
001800
000000
ENDCHAR

STARTCHAR A5CB
ENCODING 42443
SWIDTH 960 0
DWIDTH 24 0
BBX 24 24 0 -4
BITMAP
000000
0C0400
0E0300
0C018C
0C7FFE
0C0000
0D8000
7FC000
0D8860
198FF0
198C60
198C60
1B0C60
330C60
330C60
3E0C60
060C60
0D0C60
098C64
189864
101864
20307E
40C03C
000000
ENDCHAR

STARTCHAR A5CC
ENCODING 42444
SWIDTH 960 0
DWIDTH 24 0
BBX 24 24 0 -4
BITMAP
000000
180CC0
1C0EE0
180CC0
180CC0
198CC0
198CD8
7FFFFC
198CC0
198CC0
198CC0
198CC0
198CCC
33FFFE
330CC0
7F0CC0
238CC0
07CCC0
06ECC0
0C6CC0
186CC0
3018C0
4060C0
000000
ENDCHAR

STARTCHAR A5CD
ENCODING 42445
SWIDTH 960 0
DWIDTH 24 0
BBX 24 24 0 -4
BITMAP
000000
0C0300
0E0380
0C0330
0C0318
0CC300
0CC308
7FE31C
0CFFFE
0CC360
0CC360
0CC360
0CC360
19C360
190360
3F0360
038660
07C664
06EC64
0C6C64
18786C
30707E
41C03C
000000
ENDCHAR

STARTCHAR A5CE
ENCODING 42446
SWIDTH 960 0
DWIDTH 24 0
BBX 24 24 0 -4
BITMAP
000000
0C0180
0E01C0
0C0180
0C0180
0CC1B0
0CCFF8
7FE1B0
18C1B0
18C1B0
18C1B0
18C1B0
18C1B4
31DFFE
318180
7F8180
21C180
03E340
037330
06361C
0C360E
180C06
207000
000000
ENDCHAR

STARTCHAR A5CF
ENCODING 42447
SWIDTH 960 0
DWIDTH 24 0
BBX 24 24 0 -4
BITMAP
000000
181800
1C1C00
181800
18180C
19BFFE
19A00E
7FC00C
1980CC
19BFEC
19800C
19800C
19800C
3380CC
333FEC
7F000C
23800C
07C00C
06E018
0C6018
186038
3000F0
400020
000000
ENDCHAR

STARTCHAR A5D0
ENCODING 42448
SWIDTH 960 0
DWIDTH 24 0
BBX 24 24 0 -4
BITMAP
000000
180018
1C7FFC
181818
181818
199818
199818
7FD830
199830
199834
199FFE
199C0C
199C0C
339A0C
331B18
7F1998
2399B0
07D8E0
06F0E0
0C71F0
186338
30C61E
41B80C
000000
ENDCHAR

STARTCHAR A5D1
ENCODING 42449
SWIDTH 960 0
DWIDTH 24 0
BBX 24 24 0 -4
BITMAP
000000
080030
0FFFF8
0C0030
0C0030
0C0030
0FFFF0
0C0030
0C0030
0C0030
0FFFF0
040020
006000
007088
0060DC
7FFFFE
00C180
018300
03FE00
001F80
0071E0
01C070
1E0030
000000
ENDCHAR

STARTCHAR A5D2
ENCODING 42450
SWIDTH 960 0
DWIDTH 24 0
BBX 24 24 0 -4
BITMAP
000000
180830
1C0FF8
180C30
180C30
198C30
198C30
7FEC30
198C30
19BFFC
198C30
198C30
198C30
338C34
337FFE
7B0C30
2F0C30
070C30
078C30
0DD830
18D830
3031F0
404060
000000
ENDCHAR

STARTCHAR A5D3
ENCODING 42451
SWIDTH 960 0
DWIDTH 24 0
BBX 24 24 0 -4
BITMAP
000000
001800
0C1C30
0E1838
0C1830
0C1830
0FFFF0
001800
001808
00181C
3FFFFE
000000
006000
007088
0060DC
7FFFFE
00C180
018300
03FE00
001F80
0071E0
01C070
1E0030
000000
ENDCHAR

STARTCHAR A5D4
ENCODING 42452
SWIDTH 960 0
DWIDTH 24 0
BBX 24 24 0 -4
BITMAP
000000
0C0804
0E1FFE
0C180E
0C3818
0C1030
0D8000
7FC660
0D87F0
198670
198660
198660
1B0660
330660
330660
3E0660
060C60
0D0C60
098C64
189864
10186C
20307E
40C03C
000000
ENDCHAR

STARTCHAR A5D5
ENCODING 42453
SWIDTH 960 0
DWIDTH 24 0
BBX 24 24 0 -4
BITMAP
000000
180180
1C01C0
180180
180180
198180
198988
7FCFFC
19998E
199998
19B190
1981C0
1983E0
338360
330360
7F0360
238360
07C360
06E664
0C6664
186C64
30187E
40203C
000000
ENDCHAR

STARTCHAR A5D6
ENCODING 42454
SWIDTH 960 0
DWIDTH 24 0
BBX 24 24 0 -4
BITMAP
000000
0C0000
0E0000
0C000C
0C3FFE
0C0030
0D8078
7FC0E0
0D81C0
1981C0
198380
198390
1B0798
330D8C
33198E
3E3186
060180
0D0180
098180
188180
100180
200180
400180
000000
ENDCHAR

STARTCHAR A5D7
ENCODING 42455
SWIDTH 960 0
DWIDTH 24 0
BBX 24 24 0 -4
BITMAP
000000
180030
1C0078
1801F0
180FC0
19BF80
198300
7FC310
198338
19BFFC
198300
198300
198308
33831C
337FFE
7F0300
238300
07C300
06E304
0C6304
18630C
3003FE
4000FC
000000
ENDCHAR

STARTCHAR A5D8
ENCODING 42456
SWIDTH 960 0
DWIDTH 24 0
BBX 24 24 0 -4
BITMAP
000000
006000
003800
00180C
7FFFFE
0181C0
00C300
003600
001C00
003F00
00E1E0
07007E
7C001C
000180
03FFC0
000380
000600
000C0C
7FFFFE
000C00
000C00
007C00
001800
000000
ENDCHAR

STARTCHAR A5D9
ENCODING 42457
SWIDTH 960 0
DWIDTH 24 0
BBX 24 24 0 -4
BITMAP
000000
006000
003800
101808
1FFFFC
30000E
700018
606010
003000
001860
0FFFF0
0000F0
0001E0
000380
000700
001C00
003800
006000
01C000
038000
06E000
183FFE
300FFC
000000
ENDCHAR

STARTCHAR A5DA
ENCODING 42458
SWIDTH 960 0
DWIDTH 24 0
BBX 24 24 0 -4
BITMAP
000000
006000
003000
101808
3FFFFC
30000E
700018
600000
001000
001800
000C00
00040C
7FFFFE
000000
008000
01C200
01E180
0380C0
070060
0E0030
180018
60001C
00000C
000000
ENDCHAR

STARTCHAR A5DB
ENCODING 42459
SWIDTH 960 0
DWIDTH 24 0
BBX 24 24 0 -4
BITMAP
000000
006000
003800
081808
1FFFFC
30000E
700018
60C010
00EC00
00C600
00C300
018180
0300E0
066078
18703E
60601C
00C000
018080
030060
060070
0FFFF0
07F030
030020
000000
ENDCHAR

STARTCHAR A5DC
ENCODING 42460
SWIDTH 960 0
DWIDTH 24 0
BBX 24 24 0 -4
BITMAP
000000
080030
060038
030030
030830
7FFC30
106034
1077FE
106030
106030
106030
08C230
08C330
08C1B0
0D81B0
0D81B0
070030
070030
070030
0D8030
18C1F0
307070
403C60
000000
ENDCHAR

STARTCHAR A5DD
ENCODING 42461
SWIDTH 960 0
DWIDTH 24 0
BBX 24 24 0 -4
BITMAP
000000
006000
007000
006018
3FFFFC
006000
0060C0
1FFFE0
00C000
00C00C
7FFFFE
018000
030180
06018C
7FFFFE
190180
308180
40C180
00C180
004180
000F80
000380
000300
000000
ENDCHAR

STARTCHAR A5DE
ENCODING 42462
SWIDTH 960 0
DWIDTH 24 0
BBX 24 24 0 -4
BITMAP
000000
0000C0
0003F0
001FF0
7FF800
000180
0460F0
0E383C
1C0C0C
300C00
600060
00006C
7FFFFE
000060
010060
00C060
00E060
006060
004060
000060
000060
0003E0
0000C0
000000
ENDCHAR

STARTCHAR A5DF
ENCODING 42463
SWIDTH 960 0
DWIDTH 24 0
BBX 24 24 0 -4
BITMAP
000000
000018
001FFC
0000C0
0020C0
7FF0C0
1980C0
19C0C0
1980C0
1980D8
199FFC
1980C0
1980C0
1980C0
1980C0
1980C0
1980CC
19BFFE
198000
318008
31801C
41FFFE
00FFFC
000000
ENDCHAR

STARTCHAR A5E0
ENCODING 42464
SWIDTH 960 0
DWIDTH 24 0
BBX 24 24 0 -4
BITMAP
000000
0600C0
0700E0
0600C0
0600C0
0608CC
666FFE
667CCC
666CCC
666CCC
666CCC
666CCC
666CCC
666FFC
6664C8
6660C0
6660C0
6660C0
7FE0C0
2040C0
0000C0
0000C0
0000C0
000000
ENDCHAR

STARTCHAR A5E1
ENCODING 42465
SWIDTH 960 0
DWIDTH 24 0
BBX 24 24 0 -4
BITMAP
000000
00100C
0C1FFE
0E180C
0C180C
0C180C
6D980C
6DDFFC
6D980C
6D980C
6D980C
6D980C
6D9FFC
6D980C
6D980C
6D980C
6D980C
7F980C
21180C
00300C
00300C
00607C
018018
000000
ENDCHAR

STARTCHAR A5E2
ENCODING 42466
SWIDTH 960 0
DWIDTH 24 0
BBX 24 24 0 -4
BITMAP
000000
0C0000
0E0640
0C0720
0C0630
0C0C30
6D8C18
6DD818
6D980C
6DB036
6DFFFE
6D8630
6D8630
6D8630
6D8630
6D8630
6D8630
6D8630
7F8C30
210C30
001870
0011E0
0020C0
000000
ENDCHAR

STARTCHAR A5E3
ENCODING 42467
SWIDTH 960 0
DWIDTH 24 0
BBX 24 24 0 -4
BITMAP
000000
001800
601C18
70181C
601818
601818
7FFFF8
200010
400018
7FFFFC
603018
603018
603018
603018
7FFFF8
600010
600000
600000
600008
600008
60001C
7FFFFE
3FFFFC
000000
ENDCHAR

STARTCHAR A5E4
ENCODING 42468
SWIDTH 960 0
DWIDTH 24 0
BBX 24 24 0 -4
BITMAP
000000
001800
0C1C30
0E1838
0C1830
0C1830
0FFFF0
040020
006000
003808
00181C
7FFFFE
030180
0301C0
018300
00C600
006C00
003800
003C00
006700
0183E0
0E01FE
7000F8
000000
ENDCHAR

STARTCHAR A5E5
ENCODING 42469
SWIDTH 960 0
DWIDTH 24 0
BBX 24 24 0 -4
BITMAP
000000
0C0600
0E0380
0C01C0
0C00CC
0C7FFE
6D9818
6DD81C
6D9818
6D9818
6D8C30
6D8C30
6D8C30
6D8660
6D8660
6D83C0
6D8380
6D82C0
7F86E0
210C70
001838
00301E
00C00C
000000
ENDCHAR

STARTCHAR A5E6
ENCODING 42470
SWIDTH 960 0
DWIDTH 24 0
BBX 24 24 0 -4
BITMAP
000000
000008
0C101C
0E1FFE
0C1800
0C1800
6D9800
6DD818
6D9FFC
6D9A18
6D9A18
6D9B18
6D9B30
6D9B30
6D9960
6D99E0
6DB0C0
7FB1C0
2131E0
006370
006638
00CC1E
03380C
000000
ENDCHAR

STARTCHAR A5E7
ENCODING 42471
SWIDTH 960 0
DWIDTH 24 0
BBX 24 24 0 -4
BITMAP
000000
0000C0
0003E0
101FF8
1FFC00
180000
18000C
1FFFFE
180000
190018
19FFFC
198618
198618
198618
198618
19FFF8
198010
118000
118004
318004
21800C
21FFFE
40FFFC
000000
ENDCHAR

STARTCHAR A5E8
ENCODING 42472
SWIDTH 960 0
DWIDTH 24 0
BBX 24 24 0 -4
BITMAP
000000
0C0040
0E0640
0C0760
0C0620
4D8C30
7FCC18
6D980C
6DB00E
6DC004
6D8018
6D9FFC
6D8318
6D8318
6D8318
6D8318
6F8318
6D0318
0C0618
0C0618
0C0C18
0C18F8
0C2030
000000
ENDCHAR

STARTCHAR A5E9
ENCODING 42473
SWIDTH 960 0
DWIDTH 24 0
BBX 24 24 0 -4
BITMAP
000000
0C0300
0E0380
0C0300
0C0380
4D86C0
7FC660
6D8C30
6D981C
6DB00E
6DCC64
6D8E70
6D8C60
6D8C60
6D8C60
6D8C60
6F8C60
6D0C60
0C0C60
0C1860
0C1860
0C3060
0C4060
000000
ENDCHAR

STARTCHAR A5EA
ENCODING 42474
SWIDTH 960 0
DWIDTH 24 0
BBX 24 24 0 -4
BITMAP
000000
003000
003840
003270
07FF70
0030E0
0030C0
00318C
7FFFFE
000E00
003800
00CC00
038E00
0E0C00
1E0C18
77FFFC
060C18
060C18
060C18
060CF8
060C30
000C00
000C00
000000
ENDCHAR

STARTCHAR A5EB
ENCODING 42475
SWIDTH 960 0
DWIDTH 24 0
BBX 24 24 0 -4
BITMAP
000000
000380
003FE0
3FFC00
303000
301830
3FFFF8
300C00
300604
307304
33C1C4
3F00FE
18183E
001C0C
081830
0FFFF8
0C1830
0C1830
0C18F0
0C1860
001800
001800
001800
000000
ENDCHAR

STARTCHAR A5EC
ENCODING 42476
SWIDTH 960 0
DWIDTH 24 0
BBX 24 24 0 -4
BITMAP
000000
003000
001C10
100C38
1FFFFC
181800
181C00
181980
1818E0
181860
18180C
1BFFFE
181800
181830
180C78
180CC0
180780
180310
180790
101DD0
3070F8
21C070
470030
000000
ENDCHAR

STARTCHAR A5ED
ENCODING 42477
SWIDTH 960 0
DWIDTH 24 0
BBX 24 24 0 -4
BITMAP
000000
003000
001808
080C1C
0FFFFE
0C0000
0C0000
0C0C00
0C0E00
0C0C00
0C0C00
0C0C60
0DFFF0
0C0C00
0C0C00
0C0C00
0C0C00
180D80
180CE0
100C60
300C00
200C0C
4FFFFE
000000
ENDCHAR

STARTCHAR A5EE
ENCODING 42478
SWIDTH 960 0
DWIDTH 24 0
BBX 24 24 0 -4
BITMAP
000000
003800
001C08
100C1C
1FFFFE
180000
180070
1801F8
188FC0
18FE00
18C008
18FFFC
18C018
18C018
18C018
18FFF8
18C010
18C000
198000
118000
330000
260000
480000
000000
ENDCHAR

STARTCHAR A5EF
ENCODING 42479
SWIDTH 960 0
DWIDTH 24 0
BBX 24 24 0 -4
BITMAP
000000
006000
003000
00180C
7FFFFE
00C000
018040
030060
060030
0FFFF8
060018
00C308
00E380
00C304
7FFFFE
00C300
00C300
018300
018300
030300
060300
180300
600300
000000
ENDCHAR

STARTCHAR A5F0
ENCODING 42480
SWIDTH 960 0
DWIDTH 24 0
BBX 24 24 0 -4
BITMAP
000000
030300
7F8380
030300
030308
03031C
433FFE
7F0300
620300
600600
6006C0
630CE0
7F8DC0
231980
031980
031B00
033310
036608
03CC0C
03DFFE
070F06
3E0602
0C0000
000000
ENDCHAR

STARTCHAR A5F1
ENCODING 42481
SWIDTH 960 0
DWIDTH 24 0
BBX 24 24 0 -4
BITMAP
000000
030600
7F8700
030600
030600
030600
430C04
7F0FFE
62198C
603198
604190
600180
630180
7F8380
2303C0
0303C0
030360
030660
030630
030C30
071818
3E301E
0CE00C
000000
ENDCHAR

STARTCHAR A5F2
ENCODING 42482
SWIDTH 960 0
DWIDTH 24 0
BBX 24 24 0 -4
BITMAP
000000
060004
030006
018C0E
7FFE1C
101818
181C38
181830
0C3064
0C70C6
0C610E
06C00C
06C018
038030
018064
03C186
06C00E
06601C
0C6038
0C3060
181DC0
200FFE
4003FC
000000
ENDCHAR

STARTCHAR A5F3
ENCODING 42483
SWIDTH 960 0
DWIDTH 24 0
BBX 24 24 0 -4
BITMAP
000000
0C0000
0E0300
0C00C0
0C1860
0C1C60
0C1800
2F1800
2D9800
2D9800
6C5810
6C580C
0C580C
0CD806
0CD806
0CD806
0CD800
0C9800
0C9808
0C1808
0C1818
0C1FFC
0C0FF8
000000
ENDCHAR

STARTCHAR A5F4
ENCODING 42484
SWIDTH 960 0
DWIDTH 24 0
BBX 24 24 0 -4
BITMAP
000000
0C0600
0E0760
0C0630
0C0630
0C0608
0C061C
2F7FFE
2D8600
2D8600
6C0600
6C0600
0C0600
0C0600
0C0F00
0C0F00
0C1B00
0C1B00
0C3304
0C3304
0C630C
0CC3FE
0D01FC
000000
ENDCHAR

STARTCHAR A5F5
ENCODING 42485
SWIDTH 960 0
DWIDTH 24 0
BBX 24 24 0 -4
BITMAP
000000
0C0C00
0E0E08
0C0C1C
0C1FFE
0C1800
0C300C
2F6FFE
2DC000
2DC010
6C9FF8
6C001C
0C0018
0C0030
0C0060
0C00C0
0C0180
0C0300
0C0604
0C0C04
0C0C0C
0C0FFE
0C07FC
000000
ENDCHAR

STARTCHAR A5F6
ENCODING 42486
SWIDTH 960 0
DWIDTH 24 0
BBX 24 24 0 -4
BITMAP
000000
0C0300
0E0380
0C0700
0C0780
0C0CC0
0C1860
2F1830
2DB01C
2DE00E
6C8C64
6C0E70
0C0C60
0C0C60
0C0C60
0C0C60
0C0C60
0C0C60
0C0C60
0C1C60
0C1860
0C3060
0CC060
000000
ENDCHAR

STARTCHAR A5F7
ENCODING 42487
SWIDTH 960 0
DWIDTH 24 0
BBX 24 24 0 -4
BITMAP
000000
003000
001808
200C1C
3FFFFE
300000
300000
300000
306400
307600
316300
316300
316100
336010
336018
37600C
36602E
346026
306026
307070
307FE0
203FC0
400000
000000
ENDCHAR

STARTCHAR A5F8
ENCODING 42488
SWIDTH 960 0
DWIDTH 24 0
BBX 24 24 0 -4
BITMAP
000000
000300
000F80
007FC0
0FF800
001800
001C08
00181C
7FFFFE
001800
001800
001800
001800
001800
001800
000000
099830
09CC18
098C4C
19804E
3980C6
31FFE0
00FFC0
000000
ENDCHAR

STARTCHAR A5F9
ENCODING 42489
SWIDTH 960 0
DWIDTH 24 0
BBX 24 24 0 -4
BITMAP
000000
0C0000
0E0300
0C0180
0C00C0
0C00CC
0C7FFE
2F0600
2D8600
2D8600
6C0618
6C07FC
4C0618
0C0618
0C0618
0C0618
0C0C18
0C0C18
0C1818
0C1818
0C3038
0C61F0
0C8060
000000
ENDCHAR

STARTCHAR A5FA
ENCODING 42490
SWIDTH 960 0
DWIDTH 24 0
BBX 24 24 0 -4
BITMAP
000000
0C0C00
0E0708
0C031C
0CFFFE
0C0000
2E0000
2D0860
2D8FF0
6D8C60
6C0C60
6C0C60
0C0C60
0C0C60
0C0C60
0C0C60
0C0C60
0C0C64
0C0C64
0C1864
0C186C
0C307E
0CC03C
000000
ENDCHAR

STARTCHAR A5FB
ENCODING 42491
SWIDTH 960 0
DWIDTH 24 0
BBX 24 24 0 -4
BITMAP
000000
060800
070600
060300
060180
160184
173FFE
178018
36C018
36C830
660C30
660430
060660
060360
0603C0
060180
0601C0
060360
060360
060630
060C38
06181E
06600C
000000
ENDCHAR

STARTCHAR A5FC
ENCODING 42492
SWIDTH 960 0
DWIDTH 24 0
BBX 24 24 0 -4
BITMAP
000000
060008
070FFC
06000E
06001C
170330
1781E0
16C0E0
36C064
363FFE
6600C6
6600CC
0600D0
0600C0
0600C0
0600C0
0600C0
0600C0
0600C0
0600C0
0607C0
0601C0
060180
000000
ENDCHAR

STARTCHAR A5FD
ENCODING 42493
SWIDTH 960 0
DWIDTH 24 0
BBX 24 24 0 -4
BITMAP
000000
0C0000
0E0020
0C0070
0C3FF8
0C0000
2E0000
2D0000
2D8008
6D801C
6C7FFE
6C0300
0C0300
0C0600
0C0600
0C0C00
0C0C20
0C1810
0C3018
0C60FC
0CFF8E
0CFC0E
0C6006
000000
ENDCHAR

STARTCHAR A5FE
ENCODING 42494
SWIDTH 960 0
DWIDTH 24 0
BBX 24 24 0 -4
BITMAP
000000
060330
070398
06030C
06030C
060300
06030C
173FFE
178300
16C300
36C300
360300
660380
660380
0606C0
0606C0
060C60
061870
063030
066038
06C01C
07800E
060004
000000
ENDCHAR

STARTCHAR A6A1
ENCODING 42657
SWIDTH 960 0
DWIDTH 24 0
BBX 24 24 0 -4
BITMAP
000000
060300
070380
060300
060300
070300
178300
16C300
16C308
36031C
76FFFE
660300
060300
060300
060380
0606C0
060660
060C60
060C30
061E38
06331C
06630E
068004
000000
ENDCHAR

STARTCHAR A6A2
ENCODING 42658
SWIDTH 960 0
DWIDTH 24 0
BBX 24 24 0 -4
BITMAP
000000
0C0600
0E0700
0C0600
0C0660
0C3FF0
2E0660
2D0664
2D8664
6D8C64
6C1866
6C307E
0CC33C
0C0380
0C0300
0C0304
0CFFFE
0C0300
0C0300
0C0300
0C0300
0C0300
0C0300
000000
ENDCHAR

STARTCHAR A6A3
ENCODING 42659
SWIDTH 960 0
DWIDTH 24 0
BBX 24 24 0 -4
BITMAP
000000
060020
070070
0603F8
063F00
060300
170300
178300
16C300
36C308
36031C
66FFFE
660300
060300
060300
060300
060300
060300
060300
060310
060338
063FFC
060000
000000
ENDCHAR

STARTCHAR A6A4
ENCODING 42660
SWIDTH 960 0
DWIDTH 24 0
BBX 24 24 0 -4
BITMAP
000000
060200
070100
060180
060D80
060EC0
070CC0
179870
16F038
16E01E
36C00C
370030
663FF8
660630
060630
060630
060630
060C30
060C30
061830
063030
0661F0
068060
000000
ENDCHAR

STARTCHAR A6A5
ENCODING 42661
SWIDTH 960 0
DWIDTH 24 0
BBX 24 24 0 -4
BITMAP
000000
001800
001D00
0018C0
001848
00181C
7FFFFE
001800
001820
001870
001870
30CC60
3FECE0
30CCC0
30C780
30C780
3FC300
108784
000DC4
0018EC
00707C
00C03E
07000E
000000
ENDCHAR

STARTCHAR A6A6
ENCODING 42662
SWIDTH 960 0
DWIDTH 24 0
BBX 24 24 0 -4
BITMAP
000000
000C00
000EC0
000C70
000C30
000C00
000C0C
7FFFFE
000C00
0C0C00
0E0C18
1C0E1C
18C630
306660
7FF3C0
3831C0
000180
01F3C4
7F86E4
7C0C74
30383E
00601E
03C004
000000
ENDCHAR

STARTCHAR A6A7
ENCODING 42663
SWIDTH 960 0
DWIDTH 24 0
BBX 24 24 0 -4
BITMAP
000000
0006C0
000770
000630
000600
10060C
1FFFFE
180600
180600
180618
18261C
1FF618
198618
198630
198330
198330
1983E0
1981C0
1981C4
1F83E4
33067C
201C3E
40E01C
000000
ENDCHAR

STARTCHAR A6A8
ENCODING 42664
SWIDTH 960 0
DWIDTH 24 0
BBX 24 24 0 -4
BITMAP
000000
0001E0
080FF0
0FFE00
0C0000
0C000C
0FFFFE
0C000C
0C000C
0C000C
0FFFFC
0C0C00
0C0E00
0C0C0C
0FFFFE
0C0E00
0C1B00
0C1980
1830C0
186078
30C03E
21801C
4E0008
000000
ENDCHAR

STARTCHAR A6A9
ENCODING 42665
SWIDTH 960 0
DWIDTH 24 0
BBX 24 24 0 -4
BITMAP
000000
00C40C
7FE7FE
00C600
00C600
00C600
40C604
7FC7FE
60C60C
60C60C
60C60C
60C60C
60C60C
7FC7FC
20C608
00C600
00C600
00C600
018600
018600
030600
060600
180600
000000
ENDCHAR

STARTCHAR A6AA
ENCODING 42666
SWIDTH 960 0
DWIDTH 24 0
BBX 24 24 0 -4
BITMAP
000000
060008
07001C
063FFE
060180
064180
7FE180
060180
060180
060180
064190
0681B8
071FFC
0E0180
7E0180
760180
260180
060180
060180
060188
3E019C
0E7FFE
0C0000
000000
ENDCHAR

STARTCHAR A6AB
ENCODING 42667
SWIDTH 960 0
DWIDTH 24 0
BBX 24 24 0 -4
BITMAP
000000
060008
073FFC
060C60
060C60
068C60
7FCC60
060C60
060C60
060C60
064C64
069FFE
070860
0E00E0
7E01E0
760360
260660
060C60
063860
06E060
3E00E0
0E03E0
0C00C0
000000
ENDCHAR

STARTCHAR A6AC
ENCODING 42668
SWIDTH 960 0
DWIDTH 24 0
BBX 24 24 0 -4
BITMAP
000000
060180
0701C0
0601B0
060198
064198
7FE180
060188
06019C
063FFE
064180
068180
070180
0E0180
7E0380
7603C0
260340
060360
060630
060C38
3E181C
0E300E
0C6004
000000
ENDCHAR

STARTCHAR A6AD
ENCODING 42669
SWIDTH 960 0
DWIDTH 24 0
BBX 24 24 0 -4
BITMAP
000000
060030
0700FC
0607C0
067F00
068300
7FC300
060310
063FF8
060300
064300
068308
077FFC
0E0300
7E0300
760300
260300
060304
060304
060304
3E038C
0E03FE
0C01FC
000000
ENDCHAR

STARTCHAR A6AE
ENCODING 42670
SWIDTH 960 0
DWIDTH 24 0
BBX 24 24 0 -4
BITMAP
000000
0C180C
0E1C0E
0C180C
0C180C
0D180C
7F980C
0C180C
0C1FFC
0C1808
0C1800
0D1800
0E180C
7C1FFE
7C180C
2C180C
0C180C
0C180C
0C180C
0C300C
0C300C
7C600C
19800C
000000
ENDCHAR

STARTCHAR A6AF
ENCODING 42671
SWIDTH 960 0
DWIDTH 24 0
BBX 24 24 0 -4
BITMAP
000000
060000
070180
0600C0
060060
064060
7FE660
060700
060600
061600
065618
06960C
073606
0E3606
7E7606
766600
266608
060608
060608
06071C
3E07FC
0E03F8
0C0000
000000
ENDCHAR

STARTCHAR A6B0
ENCODING 42672
SWIDTH 960 0
DWIDTH 24 0
BBX 24 24 0 -4
BITMAP
000000
060000
070300
060180
0600C0
0680CC
7FDFFE
060300
060300
060300
06430C
0683FE
07030C
0E030C
7E030C
76030C
26060C
06060C
060C0C
060C0C
3E181C
0E30F8
0C4030
000000
ENDCHAR

STARTCHAR A6B1
ENCODING 42673
SWIDTH 960 0
DWIDTH 24 0
BBX 24 24 0 -4
BITMAP
000000
061018
071FFC
061818
061818
069818
7FD818
061818
061FF8
065810
069C00
071A00
0E1A00
7E1B00
761900
263180
0630C0
0630E0
066070
066078
3E403E
0E801C
0D0008
000000
ENDCHAR

STARTCHAR A6B2
ENCODING 42674
SWIDTH 960 0
DWIDTH 24 0
BBX 24 24 0 -4
BITMAP
000000
06080C
070FFE
060C0C
060C0C
064C0C
7FEC0C
060C1C
060C7C
064C18
068C04
070FFE
0E0E0C
7E0E0C
760D0C
260D18
060D98
060C60
060C70
060CF8
3E0D9C
0E0F0E
0C0E04
000000
ENDCHAR

STARTCHAR A6B3
ENCODING 42675
SWIDTH 960 0
DWIDTH 24 0
BBX 24 24 0 -4
BITMAP
000000
0C3060
0E3870
0C3060
0D3060
7FB660
0CFF6C
0C37FE
0C366C
0C366C
0DB66C
0E366C
1C366C
7C36CC
2C36CC
0C378C
0C371C
0C6678
0C6634
0CC604
7CC60C
1D87FE
1A03FC
000000
ENDCHAR

STARTCHAR A6B4
ENCODING 42676
SWIDTH 960 0
DWIDTH 24 0
BBX 24 24 0 -4
BITMAP
000000
060600
070700
060600
060608
06861C
7FDFFE
060600
060608
0647FC
068618
070618
0E0618
7E0618
760F30
260DB0
060CE0
0618C0
0631E0
066370
3E4638
0E8C1E
0D300C
000000
ENDCHAR

STARTCHAR A6B5
ENCODING 42677
SWIDTH 960 0
DWIDTH 24 0
BBX 24 24 0 -4
BITMAP
000000
0C0060
0E01F0
0C3FC0
0C0300
0D0300
7F8300
0C0330
0C3FF8
0C0300
0C0300
0D0308
0E031C
7CFFFE
7C0300
2C0300
0C0300
0C0300
0C0300
0C0300
0C0300
7C1F00
180600
000000
ENDCHAR

STARTCHAR A6B6
ENCODING 42678
SWIDTH 960 0
DWIDTH 24 0
BBX 24 24 0 -4
BITMAP
000000
060660
070F70
061C60
063C60
06EC60
064C60
7FEC60
060C60
064C60
068C6C
077FFE
0E0C60
7E0C60
760C60
260C60
061860
061860
063060
063060
3E6060
0EC060
0D0060
000000
ENDCHAR

STARTCHAR A6B7
ENCODING 42679
SWIDTH 960 0
DWIDTH 24 0
BBX 24 24 0 -4
BITMAP
000000
0C0200
0E0700
0C0600
0D0C00
7F980C
0C1FFE
0C300C
0C600C
0C820C
0C070C
0D0E0C
0E180C
7C320C
7C610C
2CC38C
0CFED8
0C78D8
0C3018
0C0018
0C01F0
7C0060
180000
000000
ENDCHAR

STARTCHAR A6B8
ENCODING 42680
SWIDTH 960 0
DWIDTH 24 0
BBX 24 24 0 -4
BITMAP
000000
0C0000
0E0C00
0C0E00
0C8C0C
7FD9FE
0C300C
0C630C
0CC38C
0C630C
0CB60C
0D3C0C
0E180C
1C180C
7C300C
6C620C
4CC30C
0DFF8C
0CF18C
0C418C
7C001C
1C0078
180030
000000
ENDCHAR

STARTCHAR A6B9
ENCODING 42681
SWIDTH 960 0
DWIDTH 24 0
BBX 24 24 0 -4
BITMAP
000000
060000
070180
0601C0
060380
068380
7FC6C0
060660
060C30
061818
06700E
068604
070380
0E01C0
7E00C0
7600C0
260000
060000
060300
0601C0
3E00E0
0E0060
0C0060
000000
ENDCHAR

STARTCHAR A6BA
ENCODING 42682
SWIDTH 960 0
DWIDTH 24 0
BBX 24 24 0 -4
BITMAP
000000
004300
3FE380
060300
060300
060300
06060C
0607FE
062C30
7FFA38
062230
060230
060260
060160
060160
0601C0
0600C0
0601C0
060360
060630
0E0C1C
3E180E
0C6004
000000
ENDCHAR

STARTCHAR A6BB
ENCODING 42683
SWIDTH 960 0
DWIDTH 24 0
BBX 24 24 0 -4
BITMAP
000000
003008
00181C
7FFFFE
0600C0
030180
00C600
007C00
003800
00EE00
038780
0F31FC
7C38F0
003060
1FFFF0
003000
00300C
7FFFFE
003000
003000
003000
003000
003000
000000
ENDCHAR

STARTCHAR A6BC
ENCODING 42684
SWIDTH 960 0
DWIDTH 24 0
BBX 24 24 0 -4
BITMAP
000000
000600
418700
7FC600
618608
618E1C
618FFE
619800
61B000
61E008
618FFC
7F8018
618030
618060
6180C0
618180
618300
618600
618C04
7F9804
21300C
003FFE
001FFC
000000
ENDCHAR

STARTCHAR A6BD
ENCODING 42685
SWIDTH 960 0
DWIDTH 24 0
BBX 24 24 0 -4
BITMAP
000000
000060
418070
7FC060
618060
618060
618064
61FFFE
618060
618060
619860
7F8E60
618660
618660
618060
618060
618060
618060
618060
7F8060
2107E0
0001E0
0000C0
000000
ENDCHAR

STARTCHAR A6BE
ENCODING 42686
SWIDTH 960 0
DWIDTH 24 0
BBX 24 24 0 -4
BITMAP
000000
080030
0FFFF8
0C0030
0C0030
0C0030
0FFFF0
0C0030
0C0030
0C0030
0FFFF0
040020
00000C
7FFFFE
00C600
00C600
00C600
018600
018600
030600
060700
1C07FE
7003FC
000000
ENDCHAR

STARTCHAR A6BF
ENCODING 42687
SWIDTH 960 0
DWIDTH 24 0
BBX 24 24 0 -4
BITMAP
000000
100018
1FFFFC
180018
180018
180018
1FFFF8
180018
180018
180018
1FFFF8
080010
003000
003800
003000
003000
003010
003FF8
003000
003000
003000
00300C
7FFFFE
000000
ENDCHAR

STARTCHAR A6C0
ENCODING 42688
SWIDTH 960 0
DWIDTH 24 0
BBX 24 24 0 -4
BITMAP
000000
080030
0FFFF8
0C0030
0C0030
0FFFF0
0C0030
0C0030
0FFFF0
040020
0000C0
03FFE0
0001C0
000300
000A00
000C18
3FFFFC
000C00
000C00
000C00
007C00
001C00
001800
000000
ENDCHAR

STARTCHAR A6C1
ENCODING 42689
SWIDTH 960 0
DWIDTH 24 0
BBX 24 24 0 -4
BITMAP
000000
001980
001CE0
001860
101818
1FFFFC
181818
181818
181818
1FFFF8
181818
181818
181818
1FFFF8
080C10
000C38
000660
0006C0
000388
000388
000ED8
00F07C
0F0038
000000
ENDCHAR

STARTCHAR A6C2
ENCODING 42690
SWIDTH 960 0
DWIDTH 24 0
BBX 24 24 0 -4
BITMAP
000000
0C000C
0E1FFE
0C000C
0C000C
0C000C
0D040C
7F87FC
0C0604
1E0C00
1F0C00
1D980C
3D9FFE
3C800C
6C000C
4C000C
0C000C
0C000C
0C000C
0C000C
0C001C
0C00F8
0C0030
000000
ENDCHAR

STARTCHAR A6C3
ENCODING 42691
SWIDTH 960 0
DWIDTH 24 0
BBX 24 24 0 -4
BITMAP
000000
0600C0
0700E0
0600C0
0600C0
0600C0
0680C0
3FC0C0
0600C0
0E0CD0
0F8EC8
0EDCCC
1ED8CC
1E70C6
3620C6
2640C6
4600C0
0600C0
0600C0
0600C0
0607C0
0601C0
060180
000000
ENDCHAR

STARTCHAR A6C4
ENCODING 42692
SWIDTH 960 0
DWIDTH 24 0
BBX 24 24 0 -4
BITMAP
000000
0C0010
0E0078
0C03FC
0C3F00
0C0300
0D0300
7F8300
0C0300
1E0300
1F0308
1D831C
3DBFFE
3C8300
6C0300
4C0300
0C0300
0C0304
0C0304
0C0304
0C030E
0C03FE
0C01FC
000000
ENDCHAR

STARTCHAR A6C5
ENCODING 42693
SWIDTH 960 0
DWIDTH 24 0
BBX 24 24 0 -4
BITMAP
000000
060000
070018
061FFC
060318
060318
06C318
7FE318
060318
0E3318
0F9B18
0ECF18
1EC718
1E4318
360318
260618
460618
060630
060C30
060C30
061870
0633E0
06C0C0
000000
ENDCHAR

STARTCHAR A6C6
ENCODING 42694
SWIDTH 960 0
DWIDTH 24 0
BBX 24 24 0 -4
BITMAP
000000
060000
070060
063FF0
060660
060660
06C660
7FE660
060660
0E0660
0F8660
0EC660
1EFFE0
1E4660
360660
260660
460660
060664
060664
060664
060666
06067E
06063C
000000
ENDCHAR

STARTCHAR A6C7
ENCODING 42695
SWIDTH 960 0
DWIDTH 24 0
BBX 24 24 0 -4
BITMAP
000000
080018
0FFFFC
0C0018
0C0018
0C0018
0FFFF8
0C0010
0C0600
0C0700
0C0600
0C0608
0DFFFC
0C0E00
0C0F00
0C1F80
0C1EC0
0C3660
186638
18C61E
33060C
200600
400600
000000
ENDCHAR

STARTCHAR A6C8
ENCODING 42696
SWIDTH 960 0
DWIDTH 24 0
BBX 24 24 0 -4
BITMAP
000000
0C0020
0E0070
0C01F8
0C0F80
0C0180
0D0180
7F8180
0C0180
1E0180
1F018C
1DBFFE
3D8180
3C8180
6C0180
4C0180
0C0180
0C0180
0C0180
0C0180
0C0180
0C0180
0C0180
000000
ENDCHAR

STARTCHAR A6C9
ENCODING 42697
SWIDTH 960 0
DWIDTH 24 0
BBX 24 24 0 -4
BITMAP
000000
0C0000
0E0C0C
0C0E0E
0C0CCC
0C0CEC
0D0CCC
7F8CCC
0C0CCC
1E0CCC
1F0CCC
1D8CCC
3D8CCC
3C8CCC
6C0CCC
4C0CCC
0C0CCC
0C18CC
0C18CC
0C18CC
0C300C
0C200C
0C400C
000000
ENDCHAR

STARTCHAR A6CA
ENCODING 42698
SWIDTH 960 0
DWIDTH 24 0
BBX 24 24 0 -4
BITMAP
000000
00C000
00E000
00C000
018180
03FFC0
06C180
0C6300
303600
001C00
007780
01C1F8
07007E
1C001C
601800
001C00
00180C
7FFFFE
001800
011980
0398E0
071878
1C1818
000000
ENDCHAR

STARTCHAR A6CB
ENCODING 42699
SWIDTH 960 0
DWIDTH 24 0
BBX 24 24 0 -4
BITMAP
000000
000060
100070
0C1860
0E0E60
060660
000060
400060
301860
380C60
180660
020660
020060
040064
04FFFE
0C0060
180060
780060
380060
1C0060
0C0060
0C0060
0C0060
000000
ENDCHAR

STARTCHAR A6CC
ENCODING 42700
SWIDTH 960 0
DWIDTH 24 0
BBX 24 24 0 -4
BITMAP
000000
000020
10FFF0
0C0078
0E0060
061980
000600
400300
300300
38010C
18FFFE
02030E
020318
040300
040300
0C0300
180300
780300
380300
1C0300
0C0700
0C1F00
0C0600
000000
ENDCHAR

STARTCHAR A6CD
ENCODING 42701
SWIDTH 960 0
DWIDTH 24 0
BBX 24 24 0 -4
BITMAP
000000
000000
100030
0C7FF8
0E0638
060630
000630
400630
300630
380630
180634
023FFE
020630
040C60
040C60
0C0C60
180C60
780C60
380C60
1C0C60
0C0C60
0C0C6C
0DFFFE
000000
ENDCHAR

STARTCHAR A6CE
ENCODING 42702
SWIDTH 960 0
DWIDTH 24 0
BBX 24 24 0 -4
BITMAP
000000
000000
100008
0C001C
0EFFFE
060300
000300
404318
307FFC
386318
186318
026318
026318
046318
046318
0C6318
186378
786330
380300
1C0300
0C0300
0C0300
0C0300
000000
ENDCHAR

STARTCHAR A6CF
ENCODING 42703
SWIDTH 960 0
DWIDTH 24 0
BBX 24 24 0 -4
BITMAP
000000
000600
100660
0C0730
0E0300
060318
00FFFC
400300
300300
380300
180330
020338
020130
040160
0401E0
0C01C0
180380
780684
380CC4
1C3068
0C4078
0C003C
0C001C
000000
ENDCHAR

STARTCHAR A6D0
ENCODING 42704
SWIDTH 960 0
DWIDTH 24 0
BBX 24 24 0 -4
BITMAP
000000
000800
101E00
0C1C00
0E1800
061800
00300C
403FFE
30600C
38400C
18800C
02018C
023FCC
04000C
04000C
0C018C
183FCC
78000C
38000C
1C000C
0C001C
0C01F8
0C0030
000000
ENDCHAR

STARTCHAR A6D1
ENCODING 42705
SWIDTH 960 0
DWIDTH 24 0
BBX 24 24 0 -4
BITMAP
000000
000300
100380
0C6300
0E7300
066300
006330
407FF8
306300
38C300
190300
020308
02031C
05FFFE
040300
0C0300
180300
780300
380300
1C0300
0C0300
0C0300
0C0300
000000
ENDCHAR

STARTCHAR A6D2
ENCODING 42706
SWIDTH 960 0
DWIDTH 24 0
BBX 24 24 0 -4
BITMAP
000000
000C00
100E00
0C0C00
0E0C00
06180C
001FFE
40300C
30200C
38400C
188C0C
020E0C
021C0C
04198C
0430CC
0C6FEC
18FE6C
78F06C
38400C
1C000C
0C001C
0C00F8
0C0030
000000
ENDCHAR

STARTCHAR A6D3
ENCODING 42707
SWIDTH 960 0
DWIDTH 24 0
BBX 24 24 0 -4
BITMAP
000000
000200
100700
0C0680
0E0C40
060C60
001838
40301C
30602E
399FF4
180000
020018
023FFC
040018
040018
0C0018
180030
780030
380030
1C0060
0C00C0
0C0180
0C0600
000000
ENDCHAR

STARTCHAR A6D4
ENCODING 42708
SWIDTH 960 0
DWIDTH 24 0
BBX 24 24 0 -4
BITMAP
000000
003000
003800
081818
1FFFFC
380018
301820
001C00
001800
0058C0
1FD9E0
01DBC0
019B00
019A00
019A00
031B00
031980
0318C0
0C18C0
0C1860
18F870
307020
003000
000000
ENDCHAR

STARTCHAR A6D5
ENCODING 42709
SWIDTH 960 0
DWIDTH 24 0
BBX 24 24 0 -4
BITMAP
000000
001800
181C18
1C181C
181818
181818
181818
1FFFF8
080010
001800
001CC0
0098E0
1FD980
00DB00
019A00
019B00
031980
0319C0
0618E0
0C1878
18183E
60781C
003000
000000
ENDCHAR

STARTCHAR A6D6
ENCODING 42710
SWIDTH 960 0
DWIDTH 24 0
BBX 24 24 0 -4
BITMAP
000000
00100C
101FFE
0C180C
0E180C
06180C
00180C
40180C
301FFC
381C08
181A00
021A00
021B00
041B00
041980
0C1180
1811C0
7830C0
3830E0
1C2070
0C6038
0CC01E
0D000C
000000
ENDCHAR

STARTCHAR A6D7
ENCODING 42711
SWIDTH 960 0
DWIDTH 24 0
BBX 24 24 0 -4
BITMAP
000000
002018
10D036
0CF036
0ED836
06D866
00CC66
40CC66
30C6C6
38C6C6
18C786
02C386
02C3C6
04C666
04CC66
0CD836
18F03E
78E00E
38C006
1CC006
0CC006
0CFFFE
0C4004
000000
ENDCHAR

STARTCHAR A6D8
ENCODING 42712
SWIDTH 960 0
DWIDTH 24 0
BBX 24 24 0 -4
BITMAP
000000
000600
100700
0C0600
0E0E00
060C10
001838
401FFC
303860
383860
184860
0288C0
0208C0
0405C0
040780
0C0300
180380
7807C0
3806E0
1C0C70
0C187E
0C203C
0CC018
000000
ENDCHAR

STARTCHAR A6D9
ENCODING 42713
SWIDTH 960 0
DWIDTH 24 0
BBX 24 24 0 -4
BITMAP
000000
0010C0
101FE0
0C18C0
0E18C0
0618C0
0018C0
4018C0
3030C0
3860FE
19807C
020010
02FFF8
046038
043070
0C18E0
180CC0
780780
380380
1C07C0
0C0E70
0C383E
0DE01C
000000
ENDCHAR

STARTCHAR A6DA
ENCODING 42714
SWIDTH 960 0
DWIDTH 24 0
BBX 24 24 0 -4
BITMAP
000000
000800
100E00
0C1C00
0E1800
061800
00300C
403FFE
30661C
384638
184720
028700
020D00
040D00
040D80
0C1980
1818C0
7830C0
383060
1C6070
0CC038
0D801E
0C000C
000000
ENDCHAR

STARTCHAR A6DB
ENCODING 42715
SWIDTH 960 0
DWIDTH 24 0
BBX 24 24 0 -4
BITMAP
000000
000070
1000F8
0C0380
0E160C
061FFE
00180C
40180C
30180C
38180C
18180C
021FFC
021808
041800
041800
0C1800
183000
783000
383000
1C3000
0C6000
0CC000
0D0000
000000
ENDCHAR

STARTCHAR A6DC
ENCODING 42716
SWIDTH 960 0
DWIDTH 24 0
BBX 24 24 0 -4
BITMAP
000000
0000E0
1087F0
0CFE00
0EC000
06CC80
00CE80
40CC80
30CC80
38CC80
18CCC0
02CCC0
02CC40
04CC40
04CC60
0CCC60
18CC60
78CC30
38CC30
1D8C1C
0D8C0E
0D0C04
0C0C00
000000
ENDCHAR

STARTCHAR A6DD
ENCODING 42717
SWIDTH 960 0
DWIDTH 24 0
BBX 24 24 0 -4
BITMAP
000000
000000
100000
0C0080
0E0880
061840
001840
403060
302030
38403C
19841E
020708
020600
040600
040C00
0C0C80
180860
781830
381038
1C23DC
0CFF1C
0C7018
0C0000
000000
ENDCHAR

STARTCHAR A6DE
ENCODING 42718
SWIDTH 960 0
DWIDTH 24 0
BBX 24 24 0 -4
BITMAP
000000
060020
0700F0
0607F8
063F00
460600
262600
367600
3EE600
178600
060600
06060C
06FFFE
060600
060600
060600
070600
0D8604
0CC604
186604
10660E
2003FE
4001F8
000000
ENDCHAR

STARTCHAR A6DF
ENCODING 42719
SWIDTH 960 0
DWIDTH 24 0
BBX 24 24 0 -4
BITMAP
000000
003000
083820
0C3070
0630C0
073980
026C00
00C600
018380
0700F0
0C007E
70001C
00C180
00E1C0
00C18C
3FFFFE
00C180
00C180
00C180
00C180
00C180
018180
060180
000000
ENDCHAR

STARTCHAR A6E0
ENCODING 42720
SWIDTH 960 0
DWIDTH 24 0
BBX 24 24 0 -4
BITMAP
000000
006000
003800
081804
1FFFFE
30000C
600018
001800
001C00
001800
081830
061878
0398E0
019980
001C00
003600
003600
003300
006180
00C0C0
018078
07003E
78000C
000000
ENDCHAR

STARTCHAR A6E1
ENCODING 42721
SWIDTH 960 0
DWIDTH 24 0
BBX 24 24 0 -4
BITMAP
000000
060300
070380
060300
060700
068600
06CC0C
678FFE
66180C
76300C
366C18
168618
160318
0601B0
0600F0
070060
0D80C0
0CC0C0
08C180
18C300
100600
201800
402000
000000
ENDCHAR

STARTCHAR A6E2
ENCODING 42722
SWIDTH 960 0
DWIDTH 24 0
BBX 24 24 0 -4
BITMAP
000000
000060
07FFF0
000060
000060
000060
00006C
7FFFFE
000060
000060
000060
000060
07FFE0
000040
001800
001C00
061860
0398F0
00FB80
003700
00E1E0
03807E
3E000C
000000
ENDCHAR

STARTCHAR A6E3
ENCODING 42723
SWIDTH 960 0
DWIDTH 24 0
BBX 24 24 0 -4
BITMAP
000000
001800
001C00
001800
001860
0FFFF0
001800
001800
001800
001800
001800
00180C
7FFFFE
000000
001800
001C00
061860
0398F0
00FB80
003700
00E1E0
03807E
3E000C
000000
ENDCHAR

STARTCHAR A6E4
ENCODING 42724
SWIDTH 960 0
DWIDTH 24 0
BBX 24 24 0 -4
BITMAP
000000
030000
038000
030180
1B00C0
1B0060
1B6060
1FF06C
331FFE
330600
230600
436600
03C600
070600
3F0600
7B0600
330600
030600
030600
030600
0307FE
0303FC
030000
000000
ENDCHAR

STARTCHAR A6E5
ENCODING 42725
SWIDTH 960 0
DWIDTH 24 0
BBX 24 24 0 -4
BITMAP
000000
030010
038038
031FFC
1B0180
1B0180
1B6180
1FF988
33019C
333FFE
230180
433180
03C180
070180
3F0180
7B0180
330180
030180
030180
030180
030180
030180
030180
000000
ENDCHAR

STARTCHAR A6E6
ENCODING 42726
SWIDTH 960 0
DWIDTH 24 0
BBX 24 24 0 -4
BITMAP
000000
020300
430380
670308
36031C
1CFFFE
1C0300
360300
464318
067FFC
076318
0F6318
1B6318
336318
236318
436318
036318
036378
036338
030310
070300
3E0300
0C0300
000000
ENDCHAR

STARTCHAR A6E7
ENCODING 42727
SWIDTH 960 0
DWIDTH 24 0
BBX 24 24 0 -4
BITMAP
000000
010130
41BFB8
3383B0
1B0330
0E0630
0C0C30
1E0C30
330C30
430C30
038C30
078DB0
0D8E30
0DFC30
19EC30
198C30
318C30
418C32
018C32
030C32
070C36
7E7C3E
0C181C
000000
ENDCHAR

STARTCHAR A6E8
ENCODING 42728
SWIDTH 960 0
DWIDTH 24 0
BBX 24 24 0 -4
BITMAP
000000
020300
430380
670300
360300
1C0308
1C031C
36FFFE
460700
060780
070F80
0F0FC0
1B1BC0
333360
233338
43631E
03830C
030300
030300
030300
070300
3E0300
0C0300
000000
ENDCHAR

STARTCHAR A6E9
ENCODING 42729
SWIDTH 960 0
DWIDTH 24 0
BBX 24 24 0 -4
BITMAP
000000
020180
4381A0
670198
360198
1C0180
1C7FFE
360180
460180
060180
070380
0F0380
1B0380
3306C0
2306C0
4306C0
030CC0
030CC0
0318C4
0318C4
0730CC
3E60FE
0D807C
000000
ENDCHAR

STARTCHAR A6EA
ENCODING 42730
SWIDTH 960 0
DWIDTH 24 0
BBX 24 24 0 -4
BITMAP
000000
020400
430700
670640
360660
1C0630
1C0630
360600
46060C
06FFFE
070700
0F0780
1B0E80
330CC0
230CC0
430C60
031860
031830
033030
033018
07200C
3E400E
0C8006
000000
ENDCHAR

STARTCHAR A6EB
ENCODING 42731
SWIDTH 960 0
DWIDTH 24 0
BBX 24 24 0 -4
BITMAP
000000
018300
018300
018340
018320
418330
318300
198300
0DBFF8
078300
038300
018380
018380
038680
0786C0
0D86C0
198660
718C60
618C30
018C38
01981C
01B00E
01C004
000000
ENDCHAR

STARTCHAR A6EC
ENCODING 42732
SWIDTH 960 0
DWIDTH 24 0
BBX 24 24 0 -4
BITMAP
000000
020180
4301CC
6701BE
360FF0
1C7D80
1C0180
360180
461998
061D9C
071998
0F1998
1B1998
331998
231FF8
430990
030180
030180
030184
030184
07018C
3E01FE
0C00FC
000000
ENDCHAR

STARTCHAR A6ED
ENCODING 42733
SWIDTH 960 0
DWIDTH 24 0
BBX 24 24 0 -4
BITMAP
000000
020038
4308FC
670FC0
360C00
1C0C00
1C0C08
360C1C
460FFE
060C60
070C60
0F0C60
1B0C60
330C60
230C60
430C60
030C60
031860
031860
033060
073060
3E6060
0C8060
000000
ENDCHAR

STARTCHAR A6EE
ENCODING 42734
SWIDTH 960 0
DWIDTH 24 0
BBX 24 24 0 -4
BITMAP
000000
00000C
011FFE
7F800C
0C000C
0C000C
0C000C
0C000C
0C000C
0D100C
7FDFFC
0C1808
0C1800
0C1800
0C1800
0C1800
0FD800
7C1804
781804
201804
001C1E
001FFC
000FF8
000000
ENDCHAR

STARTCHAR A6EF
ENCODING 42735
SWIDTH 960 0
DWIDTH 24 0
BBX 24 24 0 -4
BITMAP
000000
00000C
011FFE
7F800C
0C0018
0C0030
0C0060
0C0380
0C0180
0D0188
7FC19C
0C3FFE
0C0180
0C0180
0C0180
0C0180
0FC180
7C0180
780180
200180
000F80
000380
000300
000000
ENDCHAR

STARTCHAR A6F0
ENCODING 42736
SWIDTH 960 0
DWIDTH 24 0
BBX 24 24 0 -4
BITMAP
000000
000010
010038
7F9FFC
0C0000
0C0000
0C0008
0C001C
0C3FFE
0D0300
7FC700
0C0600
0C0C0C
0C1FFE
0C080C
0C000C
0FC00C
7C000C
78000C
20000C
00001C
0000F8
000030
000000
ENDCHAR

STARTCHAR A6F1
ENCODING 42737
SWIDTH 960 0
DWIDTH 24 0
BBX 24 24 0 -4
BITMAP
000000
000030
011FF8
7F8630
0C0630
0C0630
0C0630
0C0630
0C3630
0D1E30
7FCE30
0C0730
0C0630
0C0630
0C0630
0C0630
0FCC30
7C0C30
781834
201834
003036
00603E
01801C
000000
ENDCHAR

STARTCHAR A6F2
ENCODING 42738
SWIDTH 960 0
DWIDTH 24 0
BBX 24 24 0 -4
BITMAP
000000
000600
000700
000600
406600
7FF600
666600
666600
666600
666600
7FE600
666700
666700
666D80
666CC0
7FF8C0
205860
003060
006030
00C030
01801C
03000E
0C0004
000000
ENDCHAR

STARTCHAR A6F3
ENCODING 42739
SWIDTH 960 0
DWIDTH 24 0
BBX 24 24 0 -4
BITMAP
000000
001800
000E00
04060C
07FFFE
460000
660000
360060
36FFF0
061860
061860
1E1860
7618CC
2619FE
06188C
06180C
06180C
0C180C
0C300C
0C300C
18601C
30C0F8
410030
000000
ENDCHAR

STARTCHAR A6F4
ENCODING 42740
SWIDTH 960 0
DWIDTH 24 0
BBX 24 24 0 -4
BITMAP
000000
00C000
01E000
270018
3FFFFC
300018
300018
3FFFF8
300018
300018
3FFFF8
100010
000000
300000
380180
3003E0
301F80
31F000
3F0000
300010
380038
3FFFFC
1FFFF8
000000
ENDCHAR

STARTCHAR A6F5
ENCODING 42741
SWIDTH 960 0
DWIDTH 24 0
BBX 24 24 0 -4
BITMAP
000000
018000
01C000
030000
160010
1FFFF8
180030
180030
180030
1FFFF0
180030
180030
180030
1FFFF0
006020
007000
006000
00C180
0180E0
070070
1C0038
3FFFF8
1F0018
000000
ENDCHAR

STARTCHAR A6F6
ENCODING 42742
SWIDTH 960 0
DWIDTH 24 0
BBX 24 24 0 -4
BITMAP
000000
00C000
00E000
098030
0FFFF8
0C0030
0C0030
0C0030
0FFFF0
0C0030
0C0030
0C0030
0FFFF0
04C620
00C600
018600
018600
030600
030604
060604
0C060C
1807FE
6003FC
000000
ENDCHAR

STARTCHAR A6F7
ENCODING 42743
SWIDTH 960 0
DWIDTH 24 0
BBX 24 24 0 -4
BITMAP
000000
003000
003800
003000
003000
003000
003C00
003700
003380
0031C0
0030C0
003000
003000
003000
183030
1FFFF8
18C630
18C630
18C630
18C630
18C630
18C634
7FFFFE
000000
ENDCHAR

STARTCHAR A6F8
ENCODING 42744
SWIDTH 960 0
DWIDTH 24 0
BBX 24 24 0 -4
BITMAP
000000
000040
3FFFE0
0300C0
0300C0
0300C0
0300CC
0300FE
03000C
03000C
06000C
06000C
0C00F8
180030
700030
1FFFF8
18C630
18C630
18C630
18C630
18C630
18C634
7FFFFE
000000
ENDCHAR

STARTCHAR A6F9
ENCODING 42745
SWIDTH 960 0
DWIDTH 24 0
BBX 24 24 0 -4
BITMAP
000000
000000
00000C
41BFFE
7FC180
618180
618300
618300
618600
7F8600
618C0C
619FFE
61980C
61800C
7F800C
61800C
61800C
61800C
61800C
7F801C
210038
0003F0
0000E0
000000
ENDCHAR

STARTCHAR A6FA
ENCODING 42746
SWIDTH 960 0
DWIDTH 24 0
BBX 24 24 0 -4
BITMAP
000000
010C00
038E00
7FCC00
0C0C00
0C0C00
0C0C0C
180C1E
180C3C
180CE0
30CF80
3FEC00
38CC00
38CC00
58CC00
18CC00
18CC04
18CC04
18CC04
1FCC0E
0887FE
0003FC
000000
000000
ENDCHAR

STARTCHAR A6FB
ENCODING 42747
SWIDTH 960 0
DWIDTH 24 0
BBX 24 24 0 -4
BITMAP
000000
000008
01801C
7FDFFE
0600C0
0600C0
0C00C0
0C00C0
1800C0
1980C0
3FC0C0
3980C0
5980C0
1980C0
1980C0
1980C0
1980C0
1980C0
1980C0
1980C0
1F81C0
0907C0
000180
000000
ENDCHAR

STARTCHAR A6FC
ENCODING 42748
SWIDTH 960 0
DWIDTH 24 0
BBX 24 24 0 -4
BITMAP
000000
000018
01801C
7FF018
060018
060318
0C0398
0C0318
180318
18C318
3FE318
38C318
58C318
18C318
18C318
18C318
18C318
18C018
18C018
18C018
1FC038
0880F8
000030
000000
ENDCHAR

STARTCHAR A6FD
ENCODING 42749
SWIDTH 960 0
DWIDTH 24 0
BBX 24 24 0 -4
BITMAP
000000
018060
0FDFF0
7E0C60
060C60
060C60
064C60
7FEC60
060CCC
0E0DFE
0F0C8C
1F8C0C
1ECC0C
36CC0C
360C0C
260C0C
460C0C
060C0C
06180C
06181C
063038
0661F0
068060
000000
ENDCHAR

STARTCHAR A6FE
ENCODING 42750
SWIDTH 960 0
DWIDTH 24 0
BBX 24 24 0 -4
BITMAP
000000
000460
0007F0
180660
0C0660
060660
064660
7FE660
018660
21C660
118660
118660
198660
198660
1B0660
1B0660
1B0660
0A0660
0FCC64
7F0C64
3C086C
18107E
00203C
000000
ENDCHAR

STARTCHAR A7A1
ENCODING 42913
SWIDTH 960 0
DWIDTH 24 0
BBX 24 24 0 -4
BITMAP
000000
0000C0
0000E0
1800C0
0C00C0
0600C0
0640C0
7FE0C0
0180C0
21C0CC
119FFE
1180C0
1980C0
1980C0
1B00C0
1B00C0
1B00C0
0A00C0
0FC0C0
7F00C0
3C00C0
1800C0
0000C0
000000
ENDCHAR

STARTCHAR A7A2
ENCODING 42914
SWIDTH 960 0
DWIDTH 24 0
BBX 24 24 0 -4
BITMAP
000000
020600
070700
060600
0C0600
188600
30E600
19C600
0D8600
070600
0C4600
382600
7FF600
3C3600
000600
144604
166604
366604
77760C
63361E
6337FE
4113FC
000000
000000
ENDCHAR

STARTCHAR A7A3
ENCODING 42915
SWIDTH 960 0
DWIDTH 24 0
BBX 24 24 0 -4
BITMAP
000000
118000
1FC030
198FF8
198000
198000
1D8008
1F801C
1BBFFE
198600
198600
198C00
1B8C18
1F8FFC
1D8418
198018
198018
198018
198018
318038
378070
2383E0
4300C0
000000
ENDCHAR

STARTCHAR A7A4
ENCODING 42916
SWIDTH 960 0
DWIDTH 24 0
BBX 24 24 0 -4
BITMAP
000000
118C00
1FCE00
198C00
198C0C
199FFE
1D980C
1FB00C
1BA00C
19C00C
19860C
19830C
1B818C
1F81CC
1D80CC
19800C
19800C
19800C
19800C
31801C
378038
2381F0
430060
000000
ENDCHAR

STARTCHAR A7A5
ENCODING 42917
SWIDTH 960 0
DWIDTH 24 0
BBX 24 24 0 -4
BITMAP
000000
118600
1FC700
198600
198600
198620
1D8634
1FFFFE
1B8C30
198C30
198C60
199860
1B9860
1FB0C0
1DBEC0
198380
1981C0
198360
198330
318638
378C1C
23980C
436000
000000
ENDCHAR

STARTCHAR A7A6
ENCODING 42918
SWIDTH 960 0
DWIDTH 24 0
BBX 24 24 0 -4
BITMAP
000000
118180
1FC1C0
198180
199980
199D80
199980
1D998C
1F99FE
1B9F8C
19F98C
199998
1B9998
1F9990
1D9990
199980
199980
199804
199804
119804
37980C
239FFE
430FFC
000000
ENDCHAR

STARTCHAR A7A7
ENCODING 42919
SWIDTH 960 0
DWIDTH 24 0
BBX 24 24 0 -4
BITMAP
000000
0600C0
0700E0
0640C4
7FE7FE
0600C0
0600C0
000000
000000
001800
001C00
001800
001800
011900
0398C0
071870
0E1838
18181C
30180C
40180C
00F800
003800
003000
000000
ENDCHAR

STARTCHAR A7A8
ENCODING 42920
SWIDTH 960 0
DWIDTH 24 0
BBX 24 24 0 -4
BITMAP
000000
0600C0
0700E0
0640C4
7FE7FE
0600C0
0600C0
000000
000000
043818
061830
030C60
0184C0
00C180
006300
003600
001C00
001E00
003700
0063C0
0181F0
0600FE
78003C
000000
ENDCHAR

STARTCHAR A7A9
ENCODING 42921
SWIDTH 960 0
DWIDTH 24 0
BBX 24 24 0 -4
BITMAP
000000
018180
01C1C8
01819C
7FE7FE
018180
018180
000000
000180
03FFC0
000000
000018
3FFFFC
00C000
00C000
018180
01FFC0
000180
000180
000180
000380
003F00
000E00
000000
ENDCHAR

STARTCHAR A7AA
ENCODING 42922
SWIDTH 960 0
DWIDTH 24 0
BBX 24 24 0 -4
BITMAP
000000
0600C0
0700E0
0640C4
7FE7FE
0600C0
0600C0
000000
000030
1FFFF8
000030
000030
180030
180030
1FFFF0
180020
180000
180000
180004
180004
18001C
1FFFFE
0FFFFC
000000
ENDCHAR

STARTCHAR A7AB
ENCODING 42923
SWIDTH 960 0
DWIDTH 24 0
BBX 24 24 0 -4
BITMAP
000000
018180
01C1C8
01819C
7FE7FE
018180
01B180
003800
007060
00FFF0
00C060
018060
03C0C0
0660C0
183180
001B80
000F00
000E00
001C00
003800
00E000
038000
3C0000
000000
ENDCHAR

STARTCHAR A7AC
ENCODING 42924
SWIDTH 960 0
DWIDTH 24 0
BBX 24 24 0 -4
BITMAP
000000
0600C0
0700E0
0640C4
7FE7FE
0600C0
0600C0
00C000
00E000
018000
03FFF8
070030
0D8060
30C0C0
006180
003300
001E00
001C00
001F00
003380
00C1E0
0300FC
1C0078
000000
ENDCHAR

STARTCHAR A7AD
ENCODING 42925
SWIDTH 960 0
DWIDTH 24 0
BBX 24 24 0 -4
BITMAP
000000
0C0600
0E0700
0C0600
0C0600
0C0600
4D8600
7FC600
6D8600
6D8600
6D8600
6D8600
6D8600
6D8600
7F8600
2D0600
0C0604
0D0604
0C8604
0FC604
7CC60C
78C7FE
3003FC
000000
ENDCHAR

STARTCHAR A7AE
ENCODING 42926
SWIDTH 960 0
DWIDTH 24 0
BBX 24 24 0 -4
BITMAP
000000
0001F0
000FF8
01FF00
3FF000
003000
203030
3FFFF8
303030
303030
303030
303030
303030
3FFFF0
103020
003000
003000
003040
003030
003018
7FFFFC
00000E
000006
000000
ENDCHAR

STARTCHAR A7AF
ENCODING 42927
SWIDTH 960 0
DWIDTH 24 0
BBX 24 24 0 -4
BITMAP
000000
000C00
001E00
007000
01C180
0707C0
001E00
0070C0
0383E0
001F80
00FC00
079800
181800
031820
039870
031FF8
031800
031800
061800
071800
0D9800
18FFFE
603FFC
000000
ENDCHAR

STARTCHAR A7B0
ENCODING 42928
SWIDTH 960 0
DWIDTH 24 0
BBX 24 24 0 -4
BITMAP
000000
180300
0C0380
0C0300
000308
02031C
3F7FFE
060300
060300
0C0380
180780
1A06C0
3F06C0
160C60
060C60
061830
0C303C
0C601E
0D800C
1E0000
1BC000
30FFFE
403FFC
000000
ENDCHAR

STARTCHAR A7B1
ENCODING 42929
SWIDTH 960 0
DWIDTH 24 0
BBX 24 24 0 -4
BITMAP
000000
180060
0C0070
0C0060
000060
020060
3F0064
067FFE
060060
0C0060
181860
1A0E60
3F0660
160660
060060
060060
0C0060
0C03E0
0C00E0
1E00C0
1BC000
30FFFE
403FFC
000000
ENDCHAR

STARTCHAR A7B2
ENCODING 42930
SWIDTH 960 0
DWIDTH 24 0
BBX 24 24 0 -4
BITMAP
000000
180010
0C7FF8
0C001C
000030
020060
3F0280
060300
06030C
0CFFFE
180300
1A0300
3F0300
160300
060300
060300
0C0300
0C1F00
0C0700
1E0600
1BC000
30FFFE
403FFC
000000
ENDCHAR

STARTCHAR A7B3
ENCODING 42931
SWIDTH 960 0
DWIDTH 24 0
BBX 24 24 0 -4
BITMAP
000000
180060
0C01F0
0C07F8
003F00
020300
3F0300
060308
06031C
0CFFFE
180300
1A0300
3F0300
160300
060300
060300
0C0300
0C0300
0C0300
1E0300
1BC000
30FFFE
403FFC
000000
ENDCHAR

STARTCHAR A7B4
ENCODING 42932
SWIDTH 960 0
DWIDTH 24 0
BBX 24 24 0 -4
BITMAP
000000
000218
0603FC
070318
060318
060310
060330
062320
266340
366330
36C318
16C30C
17830C
0F030C
06030C
05030C
05831C
0D8378
0CC330
0CC320
184300
100300
200300
000000
ENDCHAR

STARTCHAR A7B5
ENCODING 42933
SWIDTH 960 0
DWIDTH 24 0
BBX 24 24 0 -4
BITMAP
000000
00620C
00F3FE
13C30C
1E030C
180318
180330
180320
183340
1FFB30
18C318
18C30C
18C30E
18C306
18C306
18C30E
18C31C
18C378
18C330
10C300
30C300
20C300
40C300
000000
ENDCHAR

STARTCHAR A7B6
ENCODING 42934
SWIDTH 960 0
DWIDTH 24 0
BBX 24 24 0 -4
BITMAP
000000
00020C
0023FE
1FF30C
00030C
000318
000330
000320
001B40
7FFF30
030318
03030C
06030E
060306
0C0306
0C430E
18231C
183378
33FB30
7F3B00
3C1B00
100300
000300
000000
ENDCHAR

STARTCHAR A7B7
ENCODING 42935
SWIDTH 960 0
DWIDTH 24 0
BBX 24 24 0 -4
BITMAP
000000
03020C
0383FE
03030C
03030C
030318
031330
7FFB20
030340
030330
078318
07C30C
0F630E
0F3306
1B3B06
1B1B0E
33031C
230378
430330
030300
030300
030300
030300
000000
ENDCHAR

STARTCHAR A7B8
ENCODING 42936
SWIDTH 960 0
DWIDTH 24 0
BBX 24 24 0 -4
BITMAP
000000
10320C
1FFBFE
18330C
18330C
183318
1A3330
193320
19B340
19B330
183318
18330C
7FFF0E
183306
183306
18330E
18331C
183378
183330
103300
31F300
207300
406300
000000
ENDCHAR

STARTCHAR A7B9
ENCODING 42937
SWIDTH 960 0
DWIDTH 24 0
BBX 24 24 0 -4
BITMAP
000000
030218
0383FC
033318
7FFB18
030310
030330
333320
3B3B40
333330
333318
33330C
33330C
33330C
3FF30C
03030C
03031C
030378
030330
030320
030300
03FB00
01F300
000000
ENDCHAR

STARTCHAR A7BA
ENCODING 42938
SWIDTH 960 0
DWIDTH 24 0
BBX 24 24 0 -4
BITMAP
000000
430060
7F8070
631860
660E60
640660
680060
680060
641860
660C60
630660
630660
630064
637FFE
670060
7E0060
6C0060
600060
600060
600060
600060
600060
600060
000000
ENDCHAR

STARTCHAR A7BB
ENCODING 42939
SWIDTH 960 0
DWIDTH 24 0
BBX 24 24 0 -4
BITMAP
000000
430300
7F8380
630300
66030C
64430E
68430C
68231C
643318
663B30
631B60
630300
630300
630300
670380
7E0380
6C06C0
6006C0
600C60
601870
603038
60601E
61C00C
000000
ENDCHAR

STARTCHAR A7BC
ENCODING 42940
SWIDTH 960 0
DWIDTH 24 0
BBX 24 24 0 -4
BITMAP
000000
410008
7F801C
63BFFE
630180
6601C0
640180
680380
640380
620380
6307A0
618798
618D8C
61998E
63B18E
6F4186
660180
600180
600180
600180
600180
600180
600180
000000
ENDCHAR

STARTCHAR A7BD
ENCODING 42941
SWIDTH 960 0
DWIDTH 24 0
BBX 24 24 0 -4
BITMAP
000000
43100C
7F9FFE
63180C
66180C
64180C
68180C
68180C
64180C
66180C
63180C
631FFC
63180C
63180C
67180C
7E180C
6C180C
60180C
60180C
60180C
60180C
601FFC
601004
000000
ENDCHAR

STARTCHAR A7BE
ENCODING 42942
SWIDTH 960 0
DWIDTH 24 0
BBX 24 24 0 -4
BITMAP
000000
43100C
7F9FFE
63180C
66180C
64180C
68180C
681FFC
64180C
66180C
63180C
63180C
63180C
631FFC
67180C
7E180C
6C180C
60180C
60180C
60300C
60300C
60607C
608018
000000
ENDCHAR

STARTCHAR A7BF
ENCODING 42943
SWIDTH 960 0
DWIDTH 24 0
BBX 24 24 0 -4
BITMAP
000000
430230
7F8738
630FB0
667C30
640C30
680C30
680C30
640C30
660C34
637FFE
630C30
630C30
630C30
670C30
7E0C30
6C0C30
600C30
601830
601830
603030
606030
608030
000000
ENDCHAR

STARTCHAR A7C0
ENCODING 42944
SWIDTH 960 0
DWIDTH 24 0
BBX 24 24 0 -4
BITMAP
000000
008008
01C01C
7FE7FE
000000
000000
40C40C
7FE7FE
60C60C
60C60C
60C60C
78C78C
6CC6CC
66C66C
66C66C
66C66C
60C60C
60C60C
60C60C
60C60C
60C60C
67C67C
618618
000000
ENDCHAR

STARTCHAR A7C1
ENCODING 42945
SWIDTH 960 0
DWIDTH 24 0
BBX 24 24 0 -4
BITMAP
000000
004008
7FEFFC
00C018
018030
1B0360
0E01C0
030060
032064
7FFFFE
0660CC
06C0D8
0680D0
0600C0
0600C0
0600C0
0600C0
0600C0
0600C0
0600C0
3E07C0
0E01C0
0C0180
000000
ENDCHAR

STARTCHAR A7C2
ENCODING 42946
SWIDTH 960 0
DWIDTH 24 0
BBX 24 24 0 -4
BITMAP
000000
006000
00F200
01C100
031F80
07F9C0
03C0C0
000000
030030
078078
0E00E0
188188
33C33C
7EE7EE
386386
000000
000000
000180
03FFC0
000000
000008
00001C
7FFFFE
000000
ENDCHAR

STARTCHAR A7C3
ENCODING 42947
SWIDTH 960 0
DWIDTH 24 0
BBX 24 24 0 -4
BITMAP
000000
060600
070700
060630
067FF8
0C0630
0C0634
1DFFFE
1C0630
3C0630
2C7FF0
4C0620
0C0610
0CFFF8
0C0600
0C060C
0DFFFE
0C0600
0C0600
0C0600
0C0600
0C0600
0C0600
000000
ENDCHAR

STARTCHAR A7C4
ENCODING 42948
SWIDTH 960 0
DWIDTH 24 0
BBX 24 24 0 -4
BITMAP
000000
060300
070380
060318
06631C
0C3338
0C3330
1C1B60
1C1B40
3C0B98
2CFFFC
4C0CC0
0C0CC0
0C0CC0
0C0CC0
0C0CC0
0C0CC0
0C18C0
0C18C4
0C30C4
0C30CC
0C60FE
0D807C
000000
ENDCHAR

STARTCHAR A7C5
ENCODING 42949
SWIDTH 960 0
DWIDTH 24 0
BBX 24 24 0 -4
BITMAP
000000
060600
070700
0606C0
0607E0
0C3E00
0C0600
1C0620
1C7FF0
3C0600
2C0600
4C0610
0CFFF8
0C0600
0C0F00
0C0F80
0C1EC0
0C3670
0C6638
0CC61E
0F060C
0C0600
0C0600
000000
ENDCHAR

STARTCHAR A7C6
ENCODING 42950
SWIDTH 960 0
DWIDTH 24 0
BBX 24 24 0 -4
BITMAP
000000
068030
07FFF8
06C030
06C030
0CC0B0
0CFFF0
1CCC30
1CCE30
3CCC30
2CCCB0
4CCFF0
0CD9B0
0CD9B0
0CDDB0
0CF7B0
0CE730
0CC330
0CC634
0CCC34
0D983C
0D303E
0E401C
000000
ENDCHAR

STARTCHAR A7C7
ENCODING 42951
SWIDTH 960 0
DWIDTH 24 0
BBX 24 24 0 -4
BITMAP
000000
060C00
070E00
060C20
060FF0
0C1C60
0C1AC0
1C3180
1CC3C0
3C0670
2C0D9E
4C31CC
0CE190
0C3FF8
0C3180
0C3180
0C3184
0C3FFE
0C1180
0C0180
0C0180
0C0180
0C0180
000000
ENDCHAR

STARTCHAR A7C8
ENCODING 42952
SWIDTH 960 0
DWIDTH 24 0
BBX 24 24 0 -4
BITMAP
000000
060300
070380
060300
064308
0C231C
0C3330
1C1B60
1C1B48
3C031C
2DFFFE
4C0300
0C0300
0C1340
0C3B20
0C3330
0C2318
0C431C
0C830C
0D0300
0E0300
0C0300
0C0300
000000
ENDCHAR

STARTCHAR A7C9
ENCODING 42953
SWIDTH 960 0
DWIDTH 24 0
BBX 24 24 0 -4
BITMAP
000000
060600
070700
060600
060610
0DFFF8
0C0600
1D8630
1D8630
3CC638
2C6660
4C66C0
0C0608
0DFFFC
0C0C00
0C0C00
0C0E00
0C1980
0C18C0
0C3060
0C6038
0CC01E
0F000C
000000
ENDCHAR

STARTCHAR A7CA
ENCODING 42954
SWIDTH 960 0
DWIDTH 24 0
BBX 24 24 0 -4
BITMAP
000000
060000
070030
067FF8
060300
0C0300
0C2310
1C3FF8
1C3330
3C3330
2C3334
4DFFFE
0C3330
0C3330
0C3334
0DFFFE
0C3030
0C3030
0C3030
0C3030
0C31F0
0C3070
0C3060
000000
ENDCHAR

STARTCHAR A7CB
ENCODING 42955
SWIDTH 960 0
DWIDTH 24 0
BBX 24 24 0 -4
BITMAP
000000
060000
07000C
06FFFE
060CC0
0C0CC0
0C0CC0
1C0CC0
1C8CCC
3CFFFE
2CCCCC
4CCCCC
0CCCCC
0CCCCC
0CCCCC
0CCCCC
0CCCCC
0CCCCC
0CCCCC
0CCCCC
0CCCCC
0CFFFC
0C4008
000000
ENDCHAR

STARTCHAR A7CC
ENCODING 42956
SWIDTH 960 0
DWIDTH 24 0
BBX 24 24 0 -4
BITMAP
000000
060600
070700
060604
06060E
0CFFFE
0C0C00
1C0C08
1C1BFC
3C1818
2C3830
4C3860
0C7830
0C5830
0C9834
0C1FFE
0C1830
0C1830
0C1830
0C1830
0C19F0
0C1870
0C1860
000000
ENDCHAR

STARTCHAR A7CD
ENCODING 42957
SWIDTH 960 0
DWIDTH 24 0
BBX 24 24 0 -4
BITMAP
000000
064018
077FFC
066018
066018
0C6018
0C6018
1C6018
1C7FF8
3C2010
2C0000
4C0000
0C0000
0C800C
0CFFFE
0CC00C
0CC00C
0CC00C
0CC00C
0CC00C
0CC00C
0CFFFC
0C4008
000000
ENDCHAR

STARTCHAR A7CE
ENCODING 42958
SWIDTH 960 0
DWIDTH 24 0
BBX 24 24 0 -4
BITMAP
000000
06400C
077FFE
06600C
06600C
0C600C
0C600C
1C600C
1C7FFC
3C2008
2C0000
4C318C
0C39CE
0C739C
0C6318
0CC630
0D8C60
0D8C60
0D8C60
0CC630
0C6318
0C318C
0C18C6
000000
ENDCHAR

STARTCHAR A7CF
ENCODING 42959
SWIDTH 960 0
DWIDTH 24 0
BBX 24 24 0 -4
BITMAP
000000
060C00
070E00
060C0C
061FFE
0C181C
0C3018
1C6C30
1D8660
3C06C0
2C0380
4C0300
0C0600
0C0C0C
0C1FFE
0C380C
0C780C
0CD80C
0F180C
0C180C
0C180C
0C1FFC
0C0808
000000
ENDCHAR

STARTCHAR A7D0
ENCODING 42960
SWIDTH 960 0
DWIDTH 24 0
BBX 24 24 0 -4
BITMAP
000000
061800
071C00
061800
063000
0C600C
0C7FFE
1C600C
1C600C
3C600C
2C600C
4C7FFC
0C600C
0C600C
0C600C
0C600C
0C7FFC
0C600C
0C600C
0C600C
0C600C
0C7FFC
0C2008
000000
ENDCHAR

STARTCHAR A7D1
ENCODING 42961
SWIDTH 960 0
DWIDTH 24 0
BBX 24 24 0 -4
BITMAP
000000
003000
007800
00EC00
01C600
030380
0630F0
1C18BE
73FFCC
000180
000300
000660
0FFFF0
000000
000018
3FFFFC
006000
00C000
018030
070018
1FFFFC
0FE00C
06000C
000000
ENDCHAR

STARTCHAR A7D2
ENCODING 42962
SWIDTH 960 0
DWIDTH 24 0
BBX 24 24 0 -4
BITMAP
000000
006000
003800
00180C
7FFFFE
00C300
018180
0300C0
066060
0C7038
18E21E
61818C
0700C0
0FFFE0
076660
006660
006600
00C600
00C604
018604
03060C
0E07FE
3803FC
000000
ENDCHAR

STARTCHAR A7D3
ENCODING 42963
SWIDTH 960 0
DWIDTH 24 0
BBX 24 24 0 -4
BITMAP
000000
000080
0FFFE0
0030E0
0070C0
00C0C0
018DC0
030790
140030
1FFFF0
183030
183030
183030
1FFFF0
003620
003600
006680
0066E0
00C664
018604
03060C
0E07FE
7803FC
000000
ENDCHAR

STARTCHAR A7D4
ENCODING 42964
SWIDTH 960 0
DWIDTH 24 0
BBX 24 24 0 -4
BITMAP
000000
0200C0
03FFE0
0300C0
0300C0
0300C0
03FFC0
0300C0
0300C0
0300C0
03FFC0
0300C0
0300C0
0300C0
03FFC0
010080
000008
00001C
7FFFFE
006200
00F1C0
038070
0F0030
000000
ENDCHAR

STARTCHAR A7D5
ENCODING 42965
SWIDTH 960 0
DWIDTH 24 0
BBX 24 24 0 -4
BITMAP
000000
200018
3FFFFC
300018
300018
3FFFF8
300018
300018
3FFFF8
100010
080060
0FFFF0
0C0060
0C0060
0FFFE0
0C0060
0C0060
0FFFE0
0C0060
180060
180060
3003E0
6000C0
000000
ENDCHAR

STARTCHAR A7D6
ENCODING 42966
SWIDTH 960 0
DWIDTH 24 0
BBX 24 24 0 -4
BITMAP
000000
0018C0
301CE0
1C18C0
0C18C0
0C18C0
0018D8
00FFFC
0018C0
0218C0
0218C0
0218C0
0618C0
0418CC
0DFFFE
0C0000
180000
781900
183CC0
187070
19C038
1B001C
1C000C
000000
ENDCHAR

STARTCHAR A7D7
ENCODING 42967
SWIDTH 960 0
DWIDTH 24 0
BBX 24 24 0 -4
BITMAP
000000
01000C
31FFFE
1D800C
0D800C
0D800C
01818C
01BFEC
01800C
01800C
0190CC
019FEC
0598CC
0598CC
0D98CC
0D98CC
199FCC
79888C
19800C
19800C
19807C
19801C
198018
000000
ENDCHAR

STARTCHAR A7D8
ENCODING 42968
SWIDTH 960 0
DWIDTH 24 0
BBX 24 24 0 -4
BITMAP
000000
000C00
300600
1C0300
0C0780
0C0CC0
001860
003038
00601E
02C02C
033FF0
020300
060300
040300
0C0300
0C0310
183FF8
780300
180300
180300
180300
180304
18FFFE
000000
ENDCHAR

STARTCHAR A7D9
ENCODING 42969
SWIDTH 960 0
DWIDTH 24 0
BBX 24 24 0 -4
BITMAP
000000
060060
073FF0
060300
0C0300
0E030C
1DFFFE
3C0300
2C0300
4C0300
0C0330
0C3FF8
000000
008300
00FF80
00C300
00C300
00C300
00C304
018304
01830C
0603FE
7801FC
000000
ENDCHAR

STARTCHAR A7DA
ENCODING 42970
SWIDTH 960 0
DWIDTH 24 0
BBX 24 24 0 -4
BITMAP
000000
000180
3FFFC0
000380
000E00
003800
60C006
61F006
603026
69BFF6
6FB466
6DB2C6
6DB3C6
6DB186
6DB1C6
6FB376
65363E
603C16
603006
61F006
606006
600006
7FFFFE
000000
ENDCHAR

STARTCHAR A7DB
ENCODING 42971
SWIDTH 960 0
DWIDTH 24 0
BBX 24 24 0 -4
BITMAP
000000
00000C
00000E
000C0C
7FFE0C
00000C
1018CC
1FFCEC
1818CC
1818CC
1818CC
1FF8CC
1818CC
1818CC
1818CC
1FF8CC
0810CC
00000C
00000C
007C0C
7FC00C
3C007C
000018
000000
ENDCHAR

STARTCHAR A7DC
ENCODING 42972
SWIDTH 960 0
DWIDTH 24 0
BBX 24 24 0 -4
BITMAP
000000
00000C
02040E
3F7E0C
0C180C
0C18CC
0C18EC
0C18CC
0C18CC
0C1ACC
0F7FCC
7C18CC
6C18CC
0C18CC
0C18CC
0C18CC
0C18CC
0C180C
18180C
18180C
30187C
20181C
001818
000000
ENDCHAR

STARTCHAR A7DD
ENCODING 42973
SWIDTH 960 0
DWIDTH 24 0
BBX 24 24 0 -4
BITMAP
000000
060018
071FFC
060198
060198
060198
06C198
3FE198
060198
060D98
060798
066398
7FF1D8
0E0378
0C031C
18031E
308318
60C618
7FC618
78CC18
205818
0030F8
00C030
000000
ENDCHAR

STARTCHAR A7DE
ENCODING 42974
SWIDTH 960 0
DWIDTH 24 0
BBX 24 24 0 -4
BITMAP
000000
00300C
7FF80E
0C700C
0C600C
0CC4CC
0DFEEC
180CCC
180CCC
300CCC
307CCC
2198CC
41C0CC
018CCC
7FFECC
0980CC
0DA0CC
19980C
318E0C
41860C
01801C
01807C
018018
000000
ENDCHAR

STARTCHAR A7DF
ENCODING 42975
SWIDTH 960 0
DWIDTH 24 0
BBX 24 24 0 -4
BITMAP
000000
00100C
30380E
0E70CC
03E0EC
01C0CC
0370CC
061CCC
198CCC
61C0CC
0180CC
018CCC
7FFECC
0180CC
0DB0CC
0DB8CC
0DB0CC
0DB0CC
19B00C
19B00C
31BE0C
619C3C
018018
000000
ENDCHAR

STARTCHAR A7E0
ENCODING 42976
SWIDTH 960 0
DWIDTH 24 0
BBX 24 24 0 -4
BITMAP
000000
0400C0
0600E0
0300C0
0118C0
7FF8C0
0000CC
0C67FE
0E30CC
1838CC
3058CC
6040CC
0840CC
0C80CC
0680CC
0300CC
0380CC
06C18C
0C618C
18218C
300318
4006F0
000860
000000
ENDCHAR

STARTCHAR A7E1
ENCODING 42977
SWIDTH 960 0
DWIDTH 24 0
BBX 24 24 0 -4
BITMAP
000000
001000
081C40
0C18E0
0631C0
023300
1FFFE0
006400
006400
00C218
7FFFFC
01A300
0331C0
0632F0
0FFF7E
18631C
606308
004300
00C300
008300
018600
033E00
0C0C00
000000
ENDCHAR

STARTCHAR A7E2
ENCODING 42978
SWIDTH 960 0
DWIDTH 24 0
BBX 24 24 0 -4
BITMAP
000000
060180
0701C0
060180
064190
7FEFF8
0601B0
06CDB0
0F07B0
7E0330
7603B4
2606F4
060C3E
3E301C
0C3800
003030
1FFFF8
003030
003030
006030
00C070
0387E0
1E00C0
000000
ENDCHAR

STARTCHAR A7E3
ENCODING 42979
SWIDTH 960 0
DWIDTH 24 0
BBX 24 24 0 -4
BITMAP
000000
0400C0
0300E0
0180C0
01C180
00C300
100460
1FFFF8
181830
181830
1FFFF0
181830
181830
1FFFF0
081820
001800
00180C
7FFFFE
001800
001800
001800
001800
001800
000000
ENDCHAR

STARTCHAR A7E4
ENCODING 42980
SWIDTH 960 0
DWIDTH 24 0
BBX 24 24 0 -4
BITMAP
000000
003000
003840
0030E0
003FF0
003000
203008
3FFFFC
300018
300018
320198
33FFD8
330198
330198
330198
330198
330198
33FF98
310118
300018
300018
3FFFF8
100008
000000
ENDCHAR

STARTCHAR A7E5
ENCODING 42981
SWIDTH 960 0
DWIDTH 24 0
BBX 24 24 0 -4
BITMAP
000000
018000
01820C
030BFE
07FF0C
0C1B0C
32330C
03E30C
01830C
03030C
0E630C
38E30C
018B0C
03FF0C
061B0C
0E330C
1B637C
61C318
018310
070300
0E0300
180300
600300
000000
ENDCHAR

STARTCHAR A7E6
ENCODING 42982
SWIDTH 960 0
DWIDTH 24 0
BBX 24 24 0 -4
BITMAP
000000
000100
03FF80
000310
00A478
3FD9E0
019F00
0319C0
0C18FC
70F870
003004
7FFFFE
000000
0000C0
0FFFE0
0C00C0
0C00C0
0C07C0
0C0184
0C0004
0C000C
0FFFFE
07FFFC
000000
ENDCHAR

STARTCHAR A7E7
ENCODING 42983
SWIDTH 960 0
DWIDTH 24 0
BBX 24 24 0 -4
BITMAP
000000
08000C
0FFFFE
0C0000
0C0000
0C0600
0C0620
0CFFF0
0C0600
0C0600
0C0618
0DFFFC
0C0000
0C0600
0C0600
0C0610
0C7FF8
0C0600
180600
18060C
33FFFE
200000
400000
000000
ENDCHAR

STARTCHAR A7E8
ENCODING 42984
SWIDTH 960 0
DWIDTH 24 0
BBX 24 24 0 -4
BITMAP
000000
000008
08001C
0FFFFE
0C0000
0C0C00
0C0700
0C0304
0DFFFE
0C0C00
0C1E00
0C3830
0CF078
0FBCE0
0C3680
0C3300
0C3180
0C30C0
0C3070
183038
183E1E
307808
403000
000000
ENDCHAR

STARTCHAR A7E9
ENCODING 42985
SWIDTH 960 0
DWIDTH 24 0
BBX 24 24 0 -4
BITMAP
000000
003000
003800
006000
00C100
0380C0
07FFE0
03C070
019830
003000
003000
7FFFFC
006C00
00C300
0300C0
060038
19FFCE
600000
000100
00FF80
000000
000060
07FFF0
000000
ENDCHAR

STARTCHAR A7EA
ENCODING 42986
SWIDTH 960 0
DWIDTH 24 0
BBX 24 24 0 -4
BITMAP
000000
00C000
03E000
070030
1C0018
3FFFFC
1FC00C
061800
001C0C
7FFFFE
003300
006180
00CCC0
018E60
071D38
1C739E
71C70C
0F0E60
0038F0
01E1E0
0F0F80
007C00
07C000
000000
ENDCHAR

STARTCHAR A7EB
ENCODING 42987
SWIDTH 960 0
DWIDTH 24 0
BBX 24 24 0 -4
BITMAP
000000
002004
7FFFFE
403406
30660C
18C318
0D81B0
0700E0
07C0F8
0CE19C
18730E
703606
002004
7FFFFE
403406
30660C
18C318
0D81B0
0700E0
07C0F8
0CE19C
18730E
703606
000000
ENDCHAR

STARTCHAR A7EC
ENCODING 42988
SWIDTH 960 0
DWIDTH 24 0
BBX 24 24 0 -4
BITMAP
000000
006000
003000
001820
001870
0FFFF8
010180
0181C0
00C180
006308
00661C
3FFFFE
000000
000000
080030
0FFFF8
0C0030
0C0030
0C0030
0C0030
0C0030
0FFFF0
040020
000000
ENDCHAR

STARTCHAR A7ED
ENCODING 42989
SWIDTH 960 0
DWIDTH 24 0
BBX 24 24 0 -4
BITMAP
000000
000600
000300
000188
40C19C
7FFFFE
60C000
60C000
60C018
60C81C
60CC18
60C618
60C618
60C318
60C318
7FC330
208330
000330
000130
000160
000060
00004C
003FFE
000000
ENDCHAR

STARTCHAR A7EE
ENCODING 42990
SWIDTH 960 0
DWIDTH 24 0
BBX 24 24 0 -4
BITMAP
000000
000400
000600
430300
7F810C
637FFE
630200
630600
630C00
631800
633030
636038
633060
6318C0
630780
630600
630C00
7F1810
223008
007FFC
007E0E
003006
000006
000000
ENDCHAR

STARTCHAR A7EF
ENCODING 42991
SWIDTH 960 0
DWIDTH 24 0
BBX 24 24 0 -4
BITMAP
000000
000008
00001C
437FFE
7F9800
631800
631800
631860
631FF0
631870
631860
631860
631E60
631B60
631960
631860
631860
7F1860
221A64
007C64
00706E
00407E
00003C
000000
ENDCHAR

STARTCHAR A7F0
ENCODING 42992
SWIDTH 960 0
DWIDTH 24 0
BBX 24 24 0 -4
BITMAP
000000
000180
0001C0
418180
7FC180
619198
619FFC
619998
619998
619998
619998
619998
619998
619998
7FBFFE
210180
000180
000300
000320
000618
000C0C
00180E
00E006
000000
ENDCHAR

STARTCHAR A7F1
ENCODING 42993
SWIDTH 960 0
DWIDTH 24 0
BBX 24 24 0 -4
BITMAP
000000
000180
0001C0
001980
40DD80
7FD980
60D998
60DFFC
60D980
60D180
60E180
60C184
60FFFE
60C380
60C340
7FC340
208660
000660
000C30
000C38
00181C
00300E
01C006
000000
ENDCHAR

STARTCHAR A7F2
ENCODING 42994
SWIDTH 960 0
DWIDTH 24 0
BBX 24 24 0 -4
BITMAP
000000
080030
0FFFF8
0C0030
0C0030
0C0030
0FFFF0
043020
003000
60300C
7FFFFE
60300C
60300C
7FFFFC
60300C
60300C
7FFFFC
203008
003000
003008
00301C
003FFE
001FFC
000000
ENDCHAR

STARTCHAR A7F3
ENCODING 42995
SWIDTH 960 0
DWIDTH 24 0
BBX 24 24 0 -4
BITMAP
000000
000800
000600
430300
7F8300
630000
630300
633F80
630300
630308
63131E
637B70
631B00
631B40
631B60
633360
633330
7F6338
22431E
01830C
000300
001F00
000600
000000
ENDCHAR

STARTCHAR A7F4
ENCODING 42996
SWIDTH 960 0
DWIDTH 24 0
BBX 24 24 0 -4
BITMAP
000000
000000
000030
000FF8
418000
7FC000
618000
618000
618008
61801C
619FFE
618180
618180
618180
6199A0
7F9D90
413198
00618C
00C18E
018186
020180
000180
000180
000000
ENDCHAR

STARTCHAR A7F5
ENCODING 42997
SWIDTH 960 0
DWIDTH 24 0
BBX 24 24 0 -4
BITMAP
000000
000198
0019DC
431D98
7F9998
631998
631998
637FFE
631998
631998
631998
631998
631998
631998
631998
6319F8
631800
7F1800
221800
001800
001800
001FFE
000FFC
000000
ENDCHAR

STARTCHAR A7F6
ENCODING 42998
SWIDTH 960 0
DWIDTH 24 0
BBX 24 24 0 -4
BITMAP
000000
20C418
3FE7FC
30C618
30C618
30C618
30C618
3FC7F8
108210
000000
000008
00001C
7FFFFE
060000
060030
07FFF8
020018
000018
000018
000018
000030
0003E0
0000C0
000000
ENDCHAR

STARTCHAR A7F7
ENCODING 42999
SWIDTH 960 0
DWIDTH 24 0
BBX 24 24 0 -4
BITMAP
000000
000600
000700
000610
4307F8
7F8600
630600
630600
63060C
63FFFE
630600
630680
630660
630630
630638
630618
630618
7F0600
220600
000600
000600
000600
000600
000000
ENDCHAR

STARTCHAR A7F8
ENCODING 43000
SWIDTH 960 0
DWIDTH 24 0
BBX 24 24 0 -4
BITMAP
000000
000000
002010
433FFC
7FB018
633018
633018
633018
633018
633018
633FF8
632CD8
630CC0
630CC0
630CC0
6318C2
6318C2
7F30C2
2260C6
01C0FE
06007C
000000
000000
000000
ENDCHAR

STARTCHAR A7F9
ENCODING 43001
SWIDTH 960 0
DWIDTH 24 0
BBX 24 24 0 -4
BITMAP
000000
000060
0003F0
433F80
7F8300
630300
63030C
637FFE
630300
630780
630780
630FC0
630F60
630B38
631B1C
63130E
633306
7F2300
224300
008300
000300
000300
000300
000000
ENDCHAR

STARTCHAR A7FA
ENCODING 43002
SWIDTH 960 0
DWIDTH 24 0
BBX 24 24 0 -4
BITMAP
000000
000300
000380
000300
000700
430600
7FAC0C
633FFE
63300C
63300C
63300C
63300C
63300C
63300C
633FFC
63300C
63300C
7F300C
22300C
00300C
00300C
003FFC
001008
000000
ENDCHAR

STARTCHAR A7FB
ENCODING 43003
SWIDTH 960 0
DWIDTH 24 0
BBX 24 24 0 -4
BITMAP
000000
40000C
7FFFFE
60000C
6000CC
6FFFEC
60300C
60300C
60300C
60300C
60300C
60318C
67FFCC
60300C
60320C
60330C
60310C
60300C
6030CC
6FFFEC
60000C
7FFFFC
200008
000000
ENDCHAR

STARTCHAR A7FC
ENCODING 43004
SWIDTH 960 0
DWIDTH 24 0
BBX 24 24 0 -4
BITMAP
000000
40000C
7FFFFE
60000C
64018C
67FFCC
66018C
66018C
66018C
67FF8C
66190C
66180C
6618CC
67FFEC
66180C
660C0C
66064C
67E34C
6F81EC
6300CC
60000C
7FFFFC
200008
000000
ENDCHAR

STARTCHAR A7FD
ENCODING 43005
SWIDTH 960 0
DWIDTH 24 0
BBX 24 24 0 -4
BITMAP
000000
40000C
7FFFFE
60000C
60000C
67FFCC
60180C
60180C
60180C
60180C
60190C
631FCC
63980C
63180C
63180C
63180C
63180C
63180C
6FFFEC
60000C
60000C
7FFFFC
200008
000000
ENDCHAR

STARTCHAR A7FE
ENCODING 43006
SWIDTH 960 0
DWIDTH 24 0
BBX 24 24 0 -4
BITMAP
000000
40000C
7FFFFE
60000C
6800CC
6FFFEC
6C30CC
6C30CC
6C30CC
6FFFCC
6C30CC
6C30CC
6C30CC
6FFFCC
64308C
60300C
60300C
60300C
60300C
60300C
60300C
7FFFFC
200008
000000
ENDCHAR

STARTCHAR A8A1
ENCODING 43169
SWIDTH 960 0
DWIDTH 24 0
BBX 24 24 0 -4
BITMAP
000000
40000C
7FFFFE
60000C
60C00C
60E00C
60C00C
61830C
63018C
6600CC
67FFEC
63C06C
60000C
64018C
67FFCC
66018C
66018C
66018C
67FF8C
62010C
60000C
7FFFFC
200008
000000
ENDCHAR

STARTCHAR A8A2
ENCODING 43170
SWIDTH 960 0
DWIDTH 24 0
BBX 24 24 0 -4
BITMAP
000000
40000C
7FFFFE
60C60C
60C60C
60C60C
60C60C
60C60C
60C60C
6183FC
6319EC
6C180C
60180C
60190C
61FF8C
60180C
60180C
60180C
60184C
67FFEC
60000C
7FFFFC
200008
000000
ENDCHAR

STARTCHAR A8A3
ENCODING 43171
SWIDTH 960 0
DWIDTH 24 0
BBX 24 24 0 -4
BITMAP
000000
0C2030
0E3FF8
0C3030
0C3030
0C3030
0D3030
7FB030
0C3FF0
0C3030
0C3030
0C3030
0C3030
0C3030
0C3FF0
0C3030
0C3030
0FB030
7E3030
383030
103030
003034
01FFFE
000000
ENDCHAR

STARTCHAR A8A4
ENCODING 43172
SWIDTH 960 0
DWIDTH 24 0
BBX 24 24 0 -4
BITMAP
000000
0C1800
0E1C00
0C1800
0C1800
0C3008
0C3FFC
7FB180
0C6180
0CC180
0D0180
0C0180
0C0180
0C7FFE
0C0180
0C0180
0C03C0
0F86C0
7E0C60
381870
103038
00E01E
03800C
000000
ENDCHAR

STARTCHAR A8A5
ENCODING 43173
SWIDTH 960 0
DWIDTH 24 0
BBX 24 24 0 -4
BITMAP
000000
000000
001800
021C80
0118E0
0199C0
00D900
085A18
1FFFFE
18001C
380030
300000
001800
001C00
001800
0018C0
07FFE0
001800
001800
001800
00180C
7FFFFE
000000
000000
ENDCHAR

STARTCHAR A8A6
ENCODING 43174
SWIDTH 960 0
DWIDTH 24 0
BBX 24 24 0 -4
BITMAP
000000
000008
0C001C
0E3FFE
0C01C0
0C0180
0C0180
0D0300
7F8300
0C0600
0C0600
0C0C0C
0C1FFE
0C3C0C
0CEC0C
0C0C0C
0C0C0C
0C0C0C
0F8C0C
7E0C0C
780C0C
300FFC
000408
000000
ENDCHAR

STARTCHAR A8A7
ENCODING 43175
SWIDTH 960 0
DWIDTH 24 0
BBX 24 24 0 -4
BITMAP
000000
0C0300
0E0380
0C0300
0C2330
0C3FF8
0D3330
7FB330
0C3330
0CFFFC
0C3330
0C3330
0C3334
0DFFFE
0C3030
0C3030
0C3030
0FB030
7E3030
783030
3030F0
003070
003020
000000
ENDCHAR

STARTCHAR A8A8
ENCODING 43176
SWIDTH 960 0
DWIDTH 24 0
BBX 24 24 0 -4
BITMAP
000000
000300
0C0380
0E0300
0C0610
0C0C08
0C180C
0D3FFE
7F9F06
0C0C00
0C0000
0C0000
0C1018
0C1FFC
0C1818
0C1818
0C1818
0C1818
0F9818
7E1818
781818
301FF8
000810
000000
ENDCHAR

STARTCHAR A8A9
ENCODING 43177
SWIDTH 960 0
DWIDTH 24 0
BBX 24 24 0 -4
BITMAP
000000
000300
0C0380
0E0700
0C060C
0C0FFE
0C180C
0D600C
7F800C
0C08CC
0C0FEC
0C0CCC
0C0CCC
0C0CCC
0C0CCC
0C0CCC
0C0FCC
0C048C
0F800C
7E000C
78001C
3000F8
000030
000000
ENDCHAR

STARTCHAR A8AA
ENCODING 43178
SWIDTH 960 0
DWIDTH 24 0
BBX 24 24 0 -4
BITMAP
000000
000C30
0C0E38
0E0C30
0C0830
0C1830
0C1034
0D37FE
7FB830
0C5830
0C1830
0C1A30
0C1930
0C19B0
0C19B0
0C18B0
0C1830
0C1830
0F9830
7E1830
781830
3018F0
001820
000000
ENDCHAR

STARTCHAR A8AB
ENCODING 43179
SWIDTH 960 0
DWIDTH 24 0
BBX 24 24 0 -4
BITMAP
000000
00C600
00C700
00C600
18C618
3FC7FC
00C600
00C600
00C604
00C60C
0FC7FE
7C83FC
001000
001C00
001800
001830
1FFFF8
001800
001800
001800
001800
00180C
7FFFFE
000000
ENDCHAR

STARTCHAR A8AC
ENCODING 43180
SWIDTH 960 0
DWIDTH 24 0
BBX 24 24 0 -4
BITMAP
000000
001800
001C00
001800
0018C0
20D8E0
3FF8C0
30D8C0
30D8C0
30D9E0
30D9B8
30DB1C
3FDE0C
109800
001820
001870
1FFFF8
001800
001800
001800
001808
00181C
7FFFFE
000000
ENDCHAR

STARTCHAR A8AD
ENCODING 43181
SWIDTH 960 0
DWIDTH 24 0
BBX 24 24 0 -4
BITMAP
000000
001800
001C08
00181C
7FFFFE
001800
001860
0FFFF0
000000
100004
1FFFFE
30000C
700188
67FFD0
000000
010300
01FF80
018300
018304
030304
03030C
0E03FE
3801FC
000000
ENDCHAR

STARTCHAR A8AE
ENCODING 43182
SWIDTH 960 0
DWIDTH 24 0
BBX 24 24 0 -4
BITMAP
000000
003000
003808
00301C
7FFFFE
003000
006C00
00C600
018300
030180
0600E0
0C01F8
3FFFFE
761878
061860
061860
07FFE0
061860
061860
061860
061860
07FFE0
020040
000000
ENDCHAR

STARTCHAR A8AF
ENCODING 43183
SWIDTH 960 0
DWIDTH 24 0
BBX 24 24 0 -4
BITMAP
000000
001800
001C00
001860
001FF0
001800
081830
0FFFF8
0C0030
0C0030
0C0030
0C0030
0FFFF0
041820
001C08
00181C
7FFFFE
003000
006200
00C180
0180E0
070070
1C0030
000000
ENDCHAR

STARTCHAR A8B0
ENCODING 43184
SWIDTH 960 0
DWIDTH 24 0
BBX 24 24 0 -4
BITMAP
000000
180018
1C3FFC
180180
180180
198180
199188
7FD998
198DB0
198DB0
1985A0
198180
19818C
33FFFE
330180
7F0180
238180
07C180
06E180
0C6180
186180
300180
400180
000000
ENDCHAR

STARTCHAR A8B1
ENCODING 43185
SWIDTH 960 0
DWIDTH 24 0
BBX 24 24 0 -4
BITMAP
000000
180008
1C001C
183FFE
180060
198070
198060
7FC0E0
1980C0
1981C0
1981E0
1983F0
1983D8
3386CC
330CC6
7F18C2
23B0C0
07E0C0
06E0C0
0C60C0
1860C0
3000CC
403FFE
000000
ENDCHAR

STARTCHAR A8B2
ENCODING 43186
SWIDTH 960 0
DWIDTH 24 0
BBX 24 24 0 -4
BITMAP
000000
180180
1C01C0
180180
18038C
199FFE
1983C0
7FC6C0
198EC0
198CC0
1998CC
19BFFE
19ECCC
338CCC
330CCC
7FCCCC
238CCC
07CCCC
06ECCC
0C6CDC
1860C8
3000C0
4000C0
000000
ENDCHAR

STARTCHAR A8B3
ENCODING 43187
SWIDTH 960 0
DWIDTH 24 0
BBX 24 24 0 -4
BITMAP
000000
180340
1C0330
180318
180300
19830C
19BFFE
7FC300
198300
198308
19871C
198618
198718
338530
330DB0
7F0CE0
238C60
07C8E0
06F9B0
0C7318
18760C
302406
400802
000000
ENDCHAR

STARTCHAR A8B4
ENCODING 43188
SWIDTH 960 0
DWIDTH 24 0
BBX 24 24 0 -4
BITMAP
000000
180000
1C000C
187FFE
18000C
19800C
1980CC
7FFFEC
19800C
19A0CC
19BFEC
19B0CC
19B0CC
33B0CC
3330CC
7F3FCC
23908C
07C00C
06E00C
0C600C
18607C
30001C
400018
000000
ENDCHAR

STARTCHAR A8B5
ENCODING 43189
SWIDTH 960 0
DWIDTH 24 0
BBX 24 24 0 -4
BITMAP
000000
0C1FFC
0E180C
0C180C
0C180C
0C180C
0D9FFC
7FD8C4
0D98C0
1998C0
1998C4
199FFE
1B18C0
3318C0
3318C0
3E1860
061860
0D1822
099832
18983A
10199E
201F0E
400E04
000000
ENDCHAR

STARTCHAR A8B6
ENCODING 43190
SWIDTH 960 0
DWIDTH 24 0
BBX 24 24 0 -4
BITMAP
000000
180000
1C0000
18200C
183FFE
19B18C
19B18C
7FF18C
19B18C
19B18C
19B18C
19B18C
19B18C
33BFFC
33318C
7F318C
23B18C
07B18C
06F18C
0C718C
18718C
303FFC
401008
000000
ENDCHAR

STARTCHAR A8B7
ENCODING 43191
SWIDTH 960 0
DWIDTH 24 0
BBX 24 24 0 -4
BITMAP
000000
0C0018
0E01FC
0C07FE
0C7E00
0C0300
0D8380
7FC18C
0DBFFE
19800E
19801C
198038
1B0070
6300E0
6301C0
7E0180
060300
0D0600
098C00
189800
103C06
2067FC
40C3F8
000000
ENDCHAR

STARTCHAR A8B8
ENCODING 43192
SWIDTH 960 0
DWIDTH 24 0
BBX 24 24 0 -4
BITMAP
000000
180C00
1C0E00
180C00
181808
19981C
199FFE
7FF300
19A300
198318
1983FC
198300
198300
338300
33030C
7F03FE
238300
07C300
06C300
0C4300
184300
300300
400300
000000
ENDCHAR

STARTCHAR A8B9
ENCODING 43193
SWIDTH 960 0
DWIDTH 24 0
BBX 24 24 0 -4
BITMAP
000000
180C00
1C0E00
180C00
180C0C
198FFE
19980C
7F980C
19B0CC
19DFEC
1998CC
1998CC
1998CC
3398CC
331FCC
7F189C
239878
079830
06F804
0C7804
18780C
301FFE
400FFC
000000
ENDCHAR

STARTCHAR A8BA
ENCODING 43194
SWIDTH 960 0
DWIDTH 24 0
BBX 24 24 0 -4
BITMAP
000000
180600
1C0700
180610
180FF8
19981C
199818
7FFC30
19E660
1983C0
198180
1983C0
198670
338C38
33181C
7F638E
2380E0
07C030
06E600
0C6180
1860E0
300070
400030
000000
ENDCHAR

STARTCHAR A8BB
ENCODING 43195
SWIDTH 960 0
DWIDTH 24 0
BBX 24 24 0 -4
BITMAP
000000
180018
1C003C
180070
1809C0
198F80
198C00
7FCC04
198FFE
198C30
198C30
198C30
198C30
338C30
330C30
7F0C30
238C30
07CC30
06EC30
0C6C30
186C30
300C34
407FFE
000000
ENDCHAR

STARTCHAR A8BC
ENCODING 43196
SWIDTH 960 0
DWIDTH 24 0
BBX 24 24 0 -4
BITMAP
000000
000008
06001C
7F7FFE
180600
180C00
18180C
181FFE
18080C
1F800C
7F000C
300078
006030
007088
0060DC
7FFFFE
00C180
018300
03FE00
001F80
0071E0
01C070
1E0030
000000
ENDCHAR

STARTCHAR A8BD
ENCODING 43197
SWIDTH 960 0
DWIDTH 24 0
BBX 24 24 0 -4
BITMAP
000000
030000
03320C
3FFBFE
03330C
03330C
06330C
06330C
0C330C
18730C
63E3FC
00C108
006000
007180
00618C
7FFFFE
00C300
018700
03FE00
010F00
0039C0
00E0F0
078030
000000
ENDCHAR

STARTCHAR A8BE
ENCODING 43198
SWIDTH 960 0
DWIDTH 24 0
BBX 24 24 0 -4
BITMAP
000000
080030
0FFFF8
0C1830
0C1830
0C1830
0FFFF0
0C1830
0C1830
0C1830
0FFFF0
040020
006000
007088
0060DC
7FFFFE
00C180
018300
03FE00
001F80
0071E0
01C070
1E0030
000000
ENDCHAR

STARTCHAR A8BF
ENCODING 43199
SWIDTH 960 0
DWIDTH 24 0
BBX 24 24 0 -4
BITMAP
000000
0C0600
0E0300
0C018C
0C3FFE
0C0180
0D8180
7FF18C
0DBFFE
19B18C
19B18C
19B18C
1B318C
33318C
33318C
3E318C
06318C
0D318C
09B1BC
18B198
100180
200180
400180
000000
ENDCHAR

STARTCHAR A8C0
ENCODING 43200
SWIDTH 960 0
DWIDTH 24 0
BBX 24 24 0 -4
BITMAP
000000
0C000C
0E3FFE
0C0018
0C0018
0D8018
0D8018
7FC018
0D90D8
199FF8
1998D8
1998D8
1B18D8
3318D8
331FD8
3E0898
060018
0D0018
098018
188018
1000F8
200038
400030
000000
ENDCHAR

STARTCHAR A8C1
ENCODING 43201
SWIDTH 960 0
DWIDTH 24 0
BBX 24 24 0 -4
BITMAP
000000
0C0000
0E0008
0C001C
0CFFFE
0C0600
0D8700
7FC600
0D8600
198400
198C18
198FFC
1B0E18
331E18
331E18
3E1618
063618
0D2618
09A618
18E618
104618
2087F8
400210
000000
ENDCHAR

STARTCHAR A8C2
ENCODING 43202
SWIDTH 960 0
DWIDTH 24 0
BBX 24 24 0 -4
BITMAP
000000
181800
1C1C00
181800
18184C
199B7E
19FFEC
7FDB6C
199B6C
199B6C
199B6C
199B6C
199B6C
339B6C
331B6C
7F336C
23B36C
07F36C
06E36C
0C636C
18677C
30DE28
410C00
000000
ENDCHAR

STARTCHAR A8C3
ENCODING 43203
SWIDTH 960 0
DWIDTH 24 0
BBX 24 24 0 -4
BITMAP
000000
18100C
1C1FFE
18180C
18180C
19980C
19980C
7FD80C
19980C
199FFE
199808
199800
199800
33980C
331FFE
7B180C
2F180C
07180C
07980C
0DD80C
18D80C
30DFFC
400808
000000
ENDCHAR

STARTCHAR A8C4
ENCODING 43204
SWIDTH 960 0
DWIDTH 24 0
BBX 24 24 0 -4
BITMAP
000000
180060
1C3FF0
180C60
180C6C
198C7E
198C0C
7FCC0C
19980C
19981C
19B0F8
19C030
198000
338FF8
330030
7F00C0
238060
07DFFE
06E060
0C6060
186060
3007E0
4000C0
000000
ENDCHAR

STARTCHAR A8C5
ENCODING 43205
SWIDTH 960 0
DWIDTH 24 0
BBX 24 24 0 -4
BITMAP
000000
0C0180
0E01C0
0C0980
0C0D80
0C0D80
0D9998
7FDFFC
0DB180
19A180
198180
19818C
1B7FFE
330180
330380
3E03C0
060340
0D0660
098660
188C30
100C38
20181E
40600C
000000
ENDCHAR

STARTCHAR A8C6
ENCODING 43206
SWIDTH 960 0
DWIDTH 24 0
BBX 24 24 0 -4
BITMAP
000000
18134C
1C1FFE
181B6C
181B6C
199B6C
199B6C
7FFB6C
199B6C
199B6C
199B6C
19FFFE
199B6C
339B6C
331B6C
7F1B6C
231B6C
079B6C
06FB6C
0C734C
1873CC
30279C
404308
000000
ENDCHAR

STARTCHAR A8C7
ENCODING 43207
SWIDTH 960 0
DWIDTH 24 0
BBX 24 24 0 -4
BITMAP
000000
180300
1C0380
180700
180680
198CC0
199860
7FF030
19A338
19C39E
19830C
198300
198300
33B360
333B30
7B3318
2F630C
07830C
070300
0DC300
18DF00
30C700
400600
000000
ENDCHAR

STARTCHAR A8C8
ENCODING 43208
SWIDTH 960 0
DWIDTH 24 0
BBX 24 24 0 -4
BITMAP
000000
000018
3FFFFC
000018
0FFF98
000018
040118
07FF98
060318
07FF18
020218
000018
0000F8
0001B0
03FFC0
000380
000600
000C0C
7FFFFE
000C00
000C00
007C00
001800
000000
ENDCHAR

STARTCHAR A8C9
ENCODING 43209
SWIDTH 960 0
DWIDTH 24 0
BBX 24 24 0 -4
BITMAP
000000
103004
1FFBFE
18300C
183018
1E30B0
1B3060
19B060
19B060
183060
7FF860
306064
306FFE
3C6060
366060
636060
636060
606060
7FF860
406060
00E3E0
07C0E0
0180C0
000000
ENDCHAR

STARTCHAR A8CA
ENCODING 43210
SWIDTH 960 0
DWIDTH 24 0
BBX 24 24 0 -4
BITMAP
000000
006000
003000
101808
1FFFFC
30000E
700018
60C190
1FE1C0
00C1C0
00C180
08C380
0FC300
180300
302300
3FF300
007700
006620
006610
006618
00EE0C
03DFFE
018406
000000
ENDCHAR

STARTCHAR A8CB
ENCODING 43211
SWIDTH 960 0
DWIDTH 24 0
BBX 24 24 0 -4
BITMAP
000000
003000
001C00
080C08
1FFFFC
30000E
601818
661C10
039800
019800
001800
0C1800
071800
031800
00180C
7FFFFE
003800
006600
00C300
0181C0
0300F0
0E003E
380018
000000
ENDCHAR

STARTCHAR A8CC
ENCODING 43212
SWIDTH 960 0
DWIDTH 24 0
BBX 24 24 0 -4
BITMAP
000000
006000
003800
101808
1FFFFC
30000E
700018
603010
001C00
000C30
0FFFF8
001800
001800
001800
001800
001830
0FFFF8
001800
001800
001800
001800
00180C
3FFFFE
000000
ENDCHAR

STARTCHAR A8CD
ENCODING 43213
SWIDTH 960 0
DWIDTH 24 0
BBX 24 24 0 -4
BITMAP
000000
006000
003800
101808
3FFFFC
301006
70186C
6FFFF8
001800
001860
0FFFF0
001808
00181C
7FFFFE
001800
003400
003600
006300
00C180
0180E0
070078
1C003E
70001C
000000
ENDCHAR

STARTCHAR A8CE
ENCODING 43214
SWIDTH 960 0
DWIDTH 24 0
BBX 24 24 0 -4
BITMAP
000000
006000
003800
101818
3FFFFE
30000C
700018
000180
0FFFC0
003000
003000
003000
003000
003180
0FFFC0
003000
003000
003100
003180
0030C0
003008
00301C
7FFFFE
000000
ENDCHAR

STARTCHAR A8CF
ENCODING 43215
SWIDTH 960 0
DWIDTH 24 0
BBX 24 24 0 -4
BITMAP
000000
006000
003800
101808
1FFFFC
30000E
700018
601810
001C00
001800
001820
0FFFF0
001800
001800
001800
041860
07FFF0
060060
060060
060060
060060
07FFE0
020040
000000
ENDCHAR

STARTCHAR A8D0
ENCODING 43216
SWIDTH 960 0
DWIDTH 24 0
BBX 24 24 0 -4
BITMAP
000000
403030
7FF838
600030
600030
600034
686FFE
6FF030
6C6030
6C6430
6C6230
6C6330
6C6330
6C6130
6C6030
6FE030
644030
600030
600030
600030
603030
7FF9F0
000060
000000
ENDCHAR

STARTCHAR A8D1
ENCODING 43217
SWIDTH 960 0
DWIDTH 24 0
BBX 24 24 0 -4
BITMAP
000000
001800
001C00
019900
03D8C0
071870
0C1838
101818
00F800
20300C
3FFFFE
30000C
30000C
31018C
31FFCC
31818C
31818C
31818C
31FF8C
30810C
30000C
30007C
300018
000000
ENDCHAR

STARTCHAR A8D2
ENCODING 43218
SWIDTH 960 0
DWIDTH 24 0
BBX 24 24 0 -4
BITMAP
000000
080030
0FFFF8
0C0030
0C0030
0C0030
0FFFF0
0C0020
0C0000
0C1800
0C0E10
0C0638
0DFFFC
0C0060
0C0070
0CC060
0C6060
0C60C0
0C60C0
183188
18131C
33FFFE
400000
000000
ENDCHAR

STARTCHAR A8D3
ENCODING 43219
SWIDTH 960 0
DWIDTH 24 0
BBX 24 24 0 -4
BITMAP
000000
100018
1FFFFC
180018
180018
180018
1FFFF8
180010
180C00
180E00
180C00
184C20
1BEDF0
180C00
180C00
184C20
1BEDF0
180C00
180C04
300C04
300E0C
200FFE
400FFC
000000
ENDCHAR

STARTCHAR A8D4
ENCODING 43220
SWIDTH 960 0
DWIDTH 24 0
BBX 24 24 0 -4
BITMAP
000000
080018
0FFFFC
0C0018
0C0018
0C0018
0FFFF8
0C0010
0C8880
0CEEE0
0CCCC0
0CCCC0
0CCCC8
1BFFFC
18CCC0
18CCC0
18CCC0
18CCC0
18CFC0
18C480
30C000
20FFFE
407FFC
000000
ENDCHAR

STARTCHAR A8D5
ENCODING 43221
SWIDTH 960 0
DWIDTH 24 0
BBX 24 24 0 -4
BITMAP
000000
080018
0FFFFC
0C0018
0C0018
0C0018
0FFFF8
0C0010
0C0600
0C0700
0C0600
0C0600
0D0618
19FFFC
198618
198618
198618
19FFF8
198618
198618
318618
21FFF8
408010
000000
ENDCHAR

STARTCHAR A8D6
ENCODING 43222
SWIDTH 960 0
DWIDTH 24 0
BBX 24 24 0 -4
BITMAP
000000
06080C
070FFE
060C0C
060C0C
060C0C
666C0C
667FFC
666C08
666D80
666DC0
666D80
666D80
666D98
666DFC
666D80
666D80
666D80
7FED84
205984
00198C
0031FE
0060FC
000000
ENDCHAR

STARTCHAR A8D7
ENCODING 43223
SWIDTH 960 0
DWIDTH 24 0
BBX 24 24 0 -4
BITMAP
000000
060010
070078
0601FC
060FC0
060CC0
666CC0
667CC0
666CC0
666CCC
666FFE
666CC0
666CC0
666CC0
666CC0
666CC2
666C62
666C64
7FEC34
204CDC
000F9E
000F0E
0006F4
000000
ENDCHAR

STARTCHAR A8D8
ENCODING 43224
SWIDTH 960 0
DWIDTH 24 0
BBX 24 24 0 -4
BITMAP
000000
001800
0C1C30
0E1838
0C1830
0C1830
0FFFF0
040020
00C000
17E00C
1F0FFE
18030C
18030C
18C30C
18E30C
18C30C
18C31C
7FC378
3CC330
10C300
018300
030300
0C0300
000000
ENDCHAR

STARTCHAR A8D9
ENCODING 43225
SWIDTH 960 0
DWIDTH 24 0
BBX 24 24 0 -4
BITMAP
000000
000700
001FC0
03FE00
001808
00181C
7FFFFE
003C00
007A00
007B00
00D980
0199C0
0318E0
061878
181830
000000
001800
181C18
1C181C
181818
181818
1FFFF8
080010
000000
ENDCHAR

STARTCHAR A8DA
ENCODING 43226
SWIDTH 960 0
DWIDTH 24 0
BBX 24 24 0 -4
BITMAP
000000
0C100C
0E1FFE
0C1800
0C1800
0C1808
6D9BFC
6DD860
6D9860
6D9860
6D9864
6D9FFE
6D9860
6D9860
6D9860
6D9860
6D9860
6D9860
7FB060
213060
006060
00C060
010060
000000
ENDCHAR

STARTCHAR A8DB
ENCODING 43227
SWIDTH 960 0
DWIDTH 24 0
BBX 24 24 0 -4
BITMAP
000000
0C0008
0E001C
0CFFFE
0C0030
0C0030
6D8030
6DC030
6DA330
6DBFB0
6DB330
6DB330
6DB330
6DB330
6DB330
6DBF30
6D9230
6D8030
7F8030
210030
0001F0
000070
000060
000000
ENDCHAR

STARTCHAR A8DC
ENCODING 43228
SWIDTH 960 0
DWIDTH 24 0
BBX 24 24 0 -4
BITMAP
000000
00000C
0C3FFE
0E038C
0C030C
0C030C
6D860C
6DC60C
6D8C1C
6D98F8
6DA030
6D8000
6DA00C
6DBFFE
6DB00C
6DB00C
6DB00C
7FB00C
21300C
00300C
00300C
003FFC
001008
000000
ENDCHAR

STARTCHAR A8DD
ENCODING 43229
SWIDTH 960 0
DWIDTH 24 0
BBX 24 24 0 -4
BITMAP
000000
000C00
0C0E00
0E0C00
0C1808
0C181C
6D9FFE
6DF600
6DA600
6DC618
6D87FC
6D8600
6D8600
6D8600
6D860C
6D87FE
6D8600
7F8600
210600
000600
000600
000600
000600
000000
ENDCHAR

STARTCHAR A8DE
ENCODING 43230
SWIDTH 960 0
DWIDTH 24 0
BBX 24 24 0 -4
BITMAP
000000
060018
07003C
0604F0
0607C0
060600
666600
66760C
6667FE
666630
666630
666630
666630
666630
666630
666630
666630
666630
7FE630
204630
000630
000634
007FFE
000000
ENDCHAR

STARTCHAR A8DF
ENCODING 43231
SWIDTH 960 0
DWIDTH 24 0
BBX 24 24 0 -4
BITMAP
000000
003000
303818
38301C
303018
3FFFF8
103010
003800
007600
00E380
0180E0
033038
0C181E
70080C
0FFFF0
000060
0000C0
00C180
007300
003E00
001C00
000C00
000600
000000
ENDCHAR

STARTCHAR A8E0
ENCODING 43232
SWIDTH 960 0
DWIDTH 24 0
BBX 24 24 0 -4
BITMAP
000000
00C000
7FE818
0CCFFC
0CCC18
0CCC18
0CCC18
18CC18
18CC18
31CC18
478FF8
030C10
40CC00
7FEC00
60CC00
60CC00
60CC00
60CC00
60CC04
60CC04
60CC0C
7FCFFE
2087FC
000000
ENDCHAR

STARTCHAR A8E1
ENCODING 43233
SWIDTH 960 0
DWIDTH 24 0
BBX 24 24 0 -4
BITMAP
000000
0C0180
0E01C0
0C0180
0C018C
4DBFFE
7FC180
6D8180
6D8188
6D9FFC
6D8180
6D83C0
6D83E0
6D87E0
6D87B0
6D8DB0
6F8D9C
6D198E
0C3184
0CC180
0C0180
0C0180
0C0180
000000
ENDCHAR

STARTCHAR A8E2
ENCODING 43234
SWIDTH 960 0
DWIDTH 24 0
BBX 24 24 0 -4
BITMAP
000000
030CC0
038E60
070C60
0E0C0C
1DFFFE
3C0C00
6C0600
0C0620
0C0320
0C01A0
0C18F0
0C1C60
001800
081830
0FFFF8
0C1830
0C1830
0C1830
0C19F0
0C1860
001800
001800
000000
ENDCHAR

STARTCHAR A8E3
ENCODING 43235
SWIDTH 960 0
DWIDTH 24 0
BBX 24 24 0 -4
BITMAP
000000
018030
01C038
038070
030060
0600C0
0C8188
3FC7FC
0600C0
0600C0
0600C0
0600C0
0600C0
0640C4
7FEFFE
0600C0
0600C0
0600C0
0600C0
0C00C0
0C00C0
1800C0
6000C0
000000
ENDCHAR

STARTCHAR A8E4
ENCODING 43236
SWIDTH 960 0
DWIDTH 24 0
BBX 24 24 0 -4
BITMAP
000000
003800
001C10
100C38
1FFFFC
180000
188060
18FFF0
18C060
18C060
18C060
18C060
18FFE0
18C060
18C060
18C060
18C060
18FFE0
18C060
10C060
30C060
20C06C
47FFFE
000000
ENDCHAR

STARTCHAR A8E5
ENCODING 43237
SWIDTH 960 0
DWIDTH 24 0
BBX 24 24 0 -4
BITMAP
000000
003000
001C10
100C38
1FFFFC
180000
190060
19FFF0
198C60
198C60
198C60
19FFE0
198C60
198C60
198C60
19FFE0
188C40
180C00
180C00
100C00
300C00
200C00
400C00
000000
ENDCHAR

STARTCHAR A8E6
ENCODING 43238
SWIDTH 960 0
DWIDTH 24 0
BBX 24 24 0 -4
BITMAP
000000
003800
001C08
100C1C
1FFFFE
182000
18710C
1AE1FE
1BD98C
1B1D8C
1B198C
1B198C
1B198C
1BF9BC
1B999C
1B3198
183180
186180
18C180
118180
330180
2C0180
400000
000000
ENDCHAR

STARTCHAR A8E7
ENCODING 43239
SWIDTH 960 0
DWIDTH 24 0
BBX 24 24 0 -4
BITMAP
000000
001800
000C08
08061C
0FFFFE
0C0000
0C0600
0C0700
0C0600
0C0600
0C0600
0C0600
0D0618
0DFFFC
0D8618
0D8618
0D8618
19FFF8
198618
118618
318618
21FFF8
408010
000000
ENDCHAR

STARTCHAR A8E8
ENCODING 43240
SWIDTH 960 0
DWIDTH 24 0
BBX 24 24 0 -4
BITMAP
000000
003800
001C08
100C1C
1FFFFE
183000
183800
186010
187FF8
18C060
19C060
1A30C0
1C1980
180F00
181B80
1860F8
19803E
1E180C
180700
100180
301C00
200700
400180
000000
ENDCHAR

STARTCHAR A8E9
ENCODING 43241
SWIDTH 960 0
DWIDTH 24 0
BBX 24 24 0 -4
BITMAP
000000
020000
7F0180
0601C0
0C0180
0C218C
183FFE
18318C
33318C
3FB18C
03318C
033FFC
03318C
46318C
26318C
36318C
1C318C
0C3FFC
0E1008
1B0000
1B8000
31FFFE
607FFC
000000
ENDCHAR

STARTCHAR A8EA
ENCODING 43242
SWIDTH 960 0
DWIDTH 24 0
BBX 24 24 0 -4
BITMAP
000000
000000
01200C
7FBFFE
03300C
03300C
06300C
06346C
0C37EC
0C366C
18B66C
3FF66C
11B66C
01B66C
3337EC
1B324C
1B300C
0E300C
0E307C
0F3018
1BC000
31FFFE
407FFC
000000
ENDCHAR

STARTCHAR A8EB
ENCODING 43243
SWIDTH 960 0
DWIDTH 24 0
BBX 24 24 0 -4
BITMAP
000000
020180
7F01C0
060300
0C1618
0C1FFC
181818
181818
331818
3F9818
031818
031FF8
031818
461818
261818
361818
1C1818
0C1818
0E1FF8
1B0810
1B8000
31FFFE
607FFC
000000
ENDCHAR

STARTCHAR A8EC
ENCODING 43244
SWIDTH 960 0
DWIDTH 24 0
BBX 24 24 0 -4
BITMAP
000000
198330
1DC3B8
198330
198330
19A334
7FF7FE
198330
198330
198330
198330
198330
19A334
7FF7FE
198330
198330
198330
198330
318630
318630
618C30
418830
018030
000000
ENDCHAR

STARTCHAR A8ED
ENCODING 43245
SWIDTH 960 0
DWIDTH 24 0
BBX 24 24 0 -4
BITMAP
000000
001800
001C00
001830
1FFFF8
001800
00180C
7FFFFE
001800
0061C0
00C070
1FFFB8
0FF018
00E380
00C30C
7FFFFE
00C300
00C300
018300
018300
030300
0E0300
700300
000000
ENDCHAR

STARTCHAR A8EE
ENCODING 43246
SWIDTH 960 0
DWIDTH 24 0
BBX 24 24 0 -4
BITMAP
000000
00C00C
3FEFFE
00C600
00C600
00C600
00C600
10C600
1FC60C
1887FE
30060C
30060C
60C60C
7FE60C
00C60C
00C7FC
00C604
00C600
00C600
00C600
01C600
0F860C
030FFE
000000
ENDCHAR

STARTCHAR A8EF
ENCODING 43247
SWIDTH 960 0
DWIDTH 24 0
BBX 24 24 0 -4
BITMAP
000000
031800
7F9C00
031800
03300C
033FFE
436000
7F4180
6299C0
601D80
60198C
6319FC
7F9F8C
23798C
03198C
031998
031998
0319B8
0319B4
031984
07180C
3E1FFE
0C0FF8
000000
ENDCHAR

STARTCHAR A8F0
ENCODING 43248
SWIDTH 960 0
DWIDTH 24 0
BBX 24 24 0 -4
BITMAP
000000
030000
7F8C00
030E00
030C00
03180C
431FFE
7F3180
622180
604180
600180
631180
7F9990
231988
031184
032186
032186
034186
038186
030180
070380
3E0F80
0C0300
000000
ENDCHAR

STARTCHAR A8F1
ENCODING 43249
SWIDTH 960 0
DWIDTH 24 0
BBX 24 24 0 -4
BITMAP
000000
0000C0
07FFE0
0000C0
0000C0
03FFC0
000180
00018C
7FFFFE
001800
181830
0F1878
0398E0
019B80
001800
007B00
00D980
0398C0
0F1870
3C1838
18381E
01F00C
006000
000000
ENDCHAR

STARTCHAR A8F2
ENCODING 43250
SWIDTH 960 0
DWIDTH 24 0
BBX 24 24 0 -4
BITMAP
000000
010004
038006
03800E
06001C
0C0030
0C0060
1870C0
183B04
3FFC06
7F1C0E
3C0C1C
000038
101860
1FFCC0
181B04
181806
18180E
18181C
181838
181860
1FF8C0
081300
000000
ENDCHAR

STARTCHAR A8F3
ENCODING 43251
SWIDTH 960 0
DWIDTH 24 0
BBX 24 24 0 -4
BITMAP
000000
186008
1C700C
18601C
186038
186860
7FFCC0
186180
186608
1E600C
1B601C
1B6038
186870
7FFCC0
186180
186608
18600C
18601C
186038
306070
3060C0
606180
406600
000000
ENDCHAR

STARTCHAR A8F4
ENCODING 43252
SWIDTH 960 0
DWIDTH 24 0
BBX 24 24 0 -4
BITMAP
000000
060180
0701C0
0E0180
0C0180
180180
33218C
43BFFE
07318C
06318C
0E318C
1E318C
36318C
46318C
063FFC
06318C
06318C
06318C
06318C
06318C
06318C
063FFC
061008
000000
ENDCHAR

STARTCHAR A8F5
ENCODING 43253
SWIDTH 960 0
DWIDTH 24 0
BBX 24 24 0 -4
BITMAP
000000
060018
077FFC
0E200C
0C3018
181830
330C60
4386C0
070380
060380
0E06C0
1E0C70
36333E
46E39C
060300
060330
067FF8
060300
060300
060300
060308
06031C
06FFFE
000000
ENDCHAR

STARTCHAR A8F6
ENCODING 43254
SWIDTH 960 0
DWIDTH 24 0
BBX 24 24 0 -4
BITMAP
000000
020180
0701C0
071980
0C1D80
181988
313FFC
43B180
032180
064180
0C0180
1E0180
360180
460190
061FF8
060180
060180
060180
060180
060180
060180
06018C
067FFE
000000
ENDCHAR

STARTCHAR A8F7
ENCODING 43255
SWIDTH 960 0
DWIDTH 24 0
BBX 24 24 0 -4
BITMAP
000000
0C0200
0E0300
0C0180
0C0084
0C7FFE
2E0100
2D0300
2D8600
6D8C00
6C1808
6C301C
0C1830
0C0CC0
0C0380
0C0600
0C0C00
0C1818
0C300C
0C7FFE
0C3F06
0C1806
0C0002
000000
ENDCHAR

STARTCHAR A8F8
ENCODING 43256
SWIDTH 960 0
DWIDTH 24 0
BBX 24 24 0 -4
BITMAP
000000
060010
070038
067FFC
061800
061800
061800
171800
179818
16DFFC
36D818
361818
661818
661818
061818
061FF8
061810
061800
061800
061800
061808
06181C
067FFE
000000
ENDCHAR

STARTCHAR A8F9
ENCODING 43257
SWIDTH 960 0
DWIDTH 24 0
BBX 24 24 0 -4
BITMAP
000000
061830
071C38
061830
061830
161834
177FFE
179830
36D830
36D830
661830
661830
061830
061FF0
061830
061830
061830
061830
061830
061830
061830
061FF0
061830
000000
ENDCHAR

STARTCHAR A8FA
ENCODING 43258
SWIDTH 960 0
DWIDTH 24 0
BBX 24 24 0 -4
BITMAP
000000
060180
0701C0
060180
062188
063FFC
06318E
173198
17B180
16F198
36FFFC
36341C
663418
663638
063230
063360
0631C0
0630C0
0661E0
066370
06C63C
07981E
06600C
000000
ENDCHAR

STARTCHAR A8FB
ENCODING 43259
SWIDTH 960 0
DWIDTH 24 0
BBX 24 24 0 -4
BITMAP
000000
000000
000060
1FFFF0
003000
003000
003008
00301C
7FFFFE
007800
00CC00
018380
0300F0
0E007E
784018
033000
139C40
130C30
130098
33008E
738086
63FFC0
41FF80
000000
ENDCHAR

STARTCHAR A8FC
ENCODING 43260
SWIDTH 960 0
DWIDTH 24 0
BBX 24 24 0 -4
BITMAP
000000
100060
1FFFF0
183000
183000
303000
603000
7FFFFE
003C00
006C00
00CC04
018C04
030C0C
0C0FFE
7047FC
003000
131C40
138C30
330058
73004E
6380E6
63FFE0
01FFC0
000000
ENDCHAR

STARTCHAR A8FD
ENCODING 43261
SWIDTH 960 0
DWIDTH 24 0
BBX 24 24 0 -4
BITMAP
000000
000060
1FFFF0
030060
030060
0300C8
0343FC
033018
031830
060C60
0606C0
0C0380
0C0EE0
18787E
23C038
001000
130C00
138720
330358
73004E
6380E6
63FFE0
01FFC0
000000
ENDCHAR

STARTCHAR A8FE
ENCODING 43262
SWIDTH 960 0
DWIDTH 24 0
BBX 24 24 0 -4
BITMAP
000000
008800
00C600
018300
030180
0620E0
0C307C
386030
00C000
018200
030180
0C00C0
1FFFE0
0FC060
000000
000000
099830
09CC18
098C4C
19804E
3980C6
31FFE0
00FFC0
000000
ENDCHAR

STARTCHAR A9A1
ENCODING 43425
SWIDTH 960 0
DWIDTH 24 0
BBX 24 24 0 -4
BITMAP
000000
0C0300
0E0380
0C0300
0C0300
0C0320
2E3FF0
2D0300
2D8300
6D830C
6C7FFE
6C0780
0C0780
0C0FC0
0C0F40
0C1B60
0C3330
0C233C
0C431E
0C8308
0C0300
0C0300
0C0300
000000
ENDCHAR

STARTCHAR A9A2
ENCODING 43426
SWIDTH 960 0
DWIDTH 24 0
BBX 24 24 0 -4
BITMAP
000000
0C0000
0E0198
0C19DC
0C1D98
0C1998
2E1998
2D1998
2D9998
6D9998
6C7FFE
6C1998
0C1998
0C1998
0C1998
0C1998
0C1998
0C19F8
0C1800
0C1800
0C1800
0C1FFE
0C0FFC
000000
ENDCHAR

STARTCHAR A9A3
ENCODING 43427
SWIDTH 960 0
DWIDTH 24 0
BBX 24 24 0 -4
BITMAP
000000
060300
070380
060300
060300
060308
06031C
17FFFE
170300
17C700
36C780
760F80
660FC0
061B60
061B60
063330
06631E
07832C
063FF0
060300
060300
060300
060300
000000
ENDCHAR

STARTCHAR A9A4
ENCODING 43428
SWIDTH 960 0
DWIDTH 24 0
BBX 24 24 0 -4
BITMAP
000000
040180
0701C0
060180
060180
060300
17030C
17BFFE
16C300
16C600
360600
360C00
66180C
061FFE
063C0C
066C0C
064C0C
068C0C
060C0C
060C0C
060C0C
060FFC
060408
000000
ENDCHAR

STARTCHAR A9A5
ENCODING 43429
SWIDTH 960 0
DWIDTH 24 0
BBX 24 24 0 -4
BITMAP
000000
060180
0701C0
060180
0601B0
064FF8
7FE180
060180
060188
06419C
06BFFE
070180
0E0180
7E0380
7603C0
2607E0
060DB8
06199E
06E18C
060180
3E0180
0E0180
0C0180
000000
ENDCHAR

STARTCHAR A9A6
ENCODING 43430
SWIDTH 960 0
DWIDTH 24 0
BBX 24 24 0 -4
BITMAP
000000
060000
07000C
067FFE
060018
068018
7FC018
060018
061198
061FD8
065998
069998
0F1998
7E1998
761998
261F98
060918
060018
060018
060018
3E0038
0E00F8
0C0030
000000
ENDCHAR

STARTCHAR A9A7
ENCODING 43431
SWIDTH 960 0
DWIDTH 24 0
BBX 24 24 0 -4
BITMAP
000000
0600C0
0700E0
0600C8
06019C
06BFFE
7FC300
060630
060C18
06180C
063FFE
069E6C
070660
0E0660
7E0660
760660
260660
060664
060C64
060C64
3E186C
1E307E
0CC03C
000000
ENDCHAR

STARTCHAR A9A8
ENCODING 43432
SWIDTH 960 0
DWIDTH 24 0
BBX 24 24 0 -4
BITMAP
000000
060008
07001C
063FFE
060060
068070
7FC060
0600E0
0600C0
0601C0
0641E0
0683F0
0703D8
0E06CC
7E0CC6
7618C2
2660C0
0600C0
0600C0
0600C0
3E00C0
0E00CC
0C3FFE
000000
ENDCHAR

STARTCHAR A9A9
ENCODING 43433
SWIDTH 960 0
DWIDTH 24 0
BBX 24 24 0 -4
BITMAP
000000
060300
070380
060300
060310
0643F8
7FE300
060300
06030C
067FFE
068300
070300
0E0380
7E0360
760338
26031C
06030C
060300
060300
060300
3E0300
0E0300
0C0300
000000
ENDCHAR

STARTCHAR A9AA
ENCODING 43434
SWIDTH 960 0
DWIDTH 24 0
BBX 24 24 0 -4
BITMAP
000000
0C100C
0E1FFE
0C180C
0C180C
0D180C
7F980C
0C180C
0C180C
0C180C
0C180C
0D180C
0E1FFC
7C0808
7C0000
2C0000
0C0660
0C0730
0C0E18
0C0C1C
0C180E
7C300E
18C006
000000
ENDCHAR

STARTCHAR A9AB
ENCODING 43435
SWIDTH 960 0
DWIDTH 24 0
BBX 24 24 0 -4
BITMAP
000000
060000
070030
063FF8
060C00
064C00
7FEC00
060C60
060FF0
064C60
068C60
070C60
0E0E60
7E1B60
761960
261860
061860
061860
0619E2
063E62
3E3866
0E107E
0C003C
000000
ENDCHAR

STARTCHAR A9AC
ENCODING 43436
SWIDTH 960 0
DWIDTH 24 0
BBX 24 24 0 -4
BITMAP
000000
0C0E00
0E5F8C
0C7EFE
0D66CC
7FE6CC
0C66CC
0C66CC
0C66CC
0C66CC
0D66CC
0E66CC
1C66CC
7C66CC
2C7ECC
0C76FC
0C26D8
0C06C0
0C0CC0
0C0CC0
7C18C0
1C30C0
18C0C0
000000
ENDCHAR

STARTCHAR A9AD
ENCODING 43437
SWIDTH 960 0
DWIDTH 24 0
BBX 24 24 0 -4
BITMAP
000000
060018
06007C
0613E0
061F00
069B30
7FFB30
061B30
061B30
065B30
069B30
071B30
0E1B30
7E1B30
761B30
263330
063630
063630
063618
066CD8
3E4C6C
0E9FEE
0D0C64
000000
ENDCHAR

STARTCHAR A9AE
ENCODING 43438
SWIDTH 960 0
DWIDTH 24 0
BBX 24 24 0 -4
BITMAP
000000
0C0000
0E01C0
0C0180
0C2180
0D318C
7FBFFE
0C300E
0C3018
0C0000
0C0C30
0D0C38
0E0870
7C0CC0
7C0F00
2C0C00
0C0C04
0C0C04
0C0C08
0C0C08
0C0C1C
7C0FFC
1807F0
000000
ENDCHAR

STARTCHAR A9AF
ENCODING 43439
SWIDTH 960 0
DWIDTH 24 0
BBX 24 24 0 -4
BITMAP
000000
060000
070300
060180
0610CC
065FFE
7FF800
061800
061800
065800
069818
07181C
0E1838
7E1830
761860
261860
0618C0
0618C0
061988
06330C
3E37FE
0E23CE
0C4186
000000
ENDCHAR

STARTCHAR A9B0
ENCODING 43440
SWIDTH 960 0
DWIDTH 24 0
BBX 24 24 0 -4
BITMAP
000000
060018
071FFC
060180
060180
0681B0
7FDFF8
060180
060180
0641B0
069FF8
070180
0E0180
7E018C
763FFE
260180
060180
060180
060180
060180
3E0180
0E0180
0C0180
000000
ENDCHAR

STARTCHAR A9B1
ENCODING 43441
SWIDTH 960 0
DWIDTH 24 0
BBX 24 24 0 -4
BITMAP
000000
0C0008
0E001C
0C7FFE
0C0180
0D0180
7FA18C
0C3FFE
0C318C
0C318C
0C318C
0D318C
0E314C
7C316C
7C322C
2C322C
0C340C
0C300C
0C300C
0C300C
0C300C
7C307C
183018
000000
ENDCHAR

STARTCHAR A9B2
ENCODING 43442
SWIDTH 960 0
DWIDTH 24 0
BBX 24 24 0 -4
BITMAP
000000
0C3000
0E3800
0C3046
0C337E
0DFFE6
7F3366
0C3366
0C3366
0C3366
0C3366
0D3366
0E3366
7C3366
7C3366
2C6666
0C6666
0C6666
0C6666
0CC666
0CCE7E
7DBC24
1A1800
000000
ENDCHAR

STARTCHAR A9B3
ENCODING 43443
SWIDTH 960 0
DWIDTH 24 0
BBX 24 24 0 -4
BITMAP
000000
0C0000
0E0000
0C2018
0C3FFC
0D3018
7FB018
0C3018
0C3018
0C3018
0C3FF8
0D3018
0E3018
7C3018
7C3018
2C3018
0C3FF8
0C1010
0C0000
0C0000
0C0000
7C000C
18FFFE
000000
ENDCHAR

STARTCHAR A9B4
ENCODING 43444
SWIDTH 960 0
DWIDTH 24 0
BBX 24 24 0 -4
BITMAP
000000
0C2018
0E3FFC
0C3018
0C3018
0D3018
7FB018
0C3018
0C3018
0C3018
0C3FF8
0D16D0
0E06C0
7C06C0
7C06C0
2C06C0
0C06C0
0C0CC0
0C0CC4
0C0CC4
0C18CC
7C30FE
18C07C
000000
ENDCHAR

STARTCHAR A9B5
ENCODING 43445
SWIDTH 960 0
DWIDTH 24 0
BBX 24 24 0 -4
BITMAP
000000
0C0030
0E6038
0C7030
0D6030
7FE030
0C6030
0C6030
0C6030
0C6030
0C6030
0D6230
0E6330
7C63B0
7C67B0
2C6CB0
0C7870
0C7070
0DE0D8
0CC18C
0C870E
7C0C06
187000
000000
ENDCHAR

STARTCHAR A9B6
ENCODING 43446
SWIDTH 960 0
DWIDTH 24 0
BBX 24 24 0 -4
BITMAP
000000
0C6000
0E7000
0C6000
0C6044
7F627E
0CFFEC
0CC36C
0CC36C
0D836C
0D866C
0ECC6C
1C6C6C
7C38CC
6C1D8E
4C3706
0C6300
0C6180
0CC1C0
0D80E0
1F0070
7C001E
18000C
000000
ENDCHAR

STARTCHAR A9B7
ENCODING 43447
SWIDTH 960 0
DWIDTH 24 0
BBX 24 24 0 -4
BITMAP
000000
0C0020
0E0070
0C13F8
0C1F00
0D1800
7F9808
0C1FFC
0C1830
0C1830
0C1830
0D1830
0E1830
7C1830
7C1830
2C1830
0C1830
0C1830
0C1830
0C1830
0C1830
7C1834
18FFFE
000000
ENDCHAR

STARTCHAR A9B8
ENCODING 43448
SWIDTH 960 0
DWIDTH 24 0
BBX 24 24 0 -4
BITMAP
000000
0C0038
0E00FC
0C27E0
0C3E00
0C300C
0D3FFE
7FB00C
0C300C
0CBFFC
0D3008
0E3010
1C37F8
7C3030
2C3060
0C30C0
0C3180
0C3304
0C6604
0C6C04
7CD80C
1D9FFE
1B0FFC
000000
ENDCHAR

STARTCHAR A9B9
ENCODING 43449
SWIDTH 960 0
DWIDTH 24 0
BBX 24 24 0 -4
BITMAP
000000
003000
00181C
7FFFFE
0600C0
030180
00C600
007C00
003800
00EE00
038780
0F01FC
7C00F0
060030
060030
07FFF0
060030
060030
0C0030
0FFFF0
180030
300030
400030
000000
ENDCHAR

STARTCHAR A9BA
ENCODING 43450
SWIDTH 960 0
DWIDTH 24 0
BBX 24 24 0 -4
BITMAP
000000
004030
00E038
1FF630
0003B0
0001B0
001030
003830
7FFC30
0CC030
0CC630
0CC3B0
0CC1B0
0CC034
0CC7FE
0CC030
0CC030
0CC030
18C030
18CC30
30F830
30F030
406030
000000
ENDCHAR

STARTCHAR A9BB
ENCODING 43451
SWIDTH 960 0
DWIDTH 24 0
BBX 24 24 0 -4
BITMAP
000000
00600C
00F01E
11E23C
1F83F0
180300
180300
180300
18630C
1FF3FE
18C318
18C318
18C318
18C318
18C318
18C318
18C318
18C318
18C318
10C218
30C618
20C418
40C818
000000
ENDCHAR

STARTCHAR A9BC
ENCODING 43452
SWIDTH 960 0
DWIDTH 24 0
BBX 24 24 0 -4
BITMAP
000000
0800C0
0600E0
0300C0
0320E0
7FF1E0
0C01B0
0C0318
0C031C
0C460E
0FEC04
0C7B18
0C639C
0C6318
0C6318
0C6318
186318
186318
186318
106218
30E618
27E418
418818
000000
ENDCHAR

STARTCHAR A9BD
ENCODING 43453
SWIDTH 960 0
DWIDTH 24 0
BBX 24 24 0 -4
BITMAP
000000
000300
418380
7FC300
618310
618338
61BFFC
618300
618300
618308
61831C
7FFFFE
618300
618300
618300
618680
6186C0
618C60
619870
7FB038
21601E
01800C
000000
000000
ENDCHAR

STARTCHAR A9BE
ENCODING 43454
SWIDTH 960 0
DWIDTH 24 0
BBX 24 24 0 -4
BITMAP
000000
000C00
000E00
430C00
7F9818
631FFC
633180
632180
634180
630180
630188
7F019C
637FFE
630180
630180
630180
630180
630180
7F0180
220180
000180
000180
000180
000000
ENDCHAR

STARTCHAR A9BF
ENCODING 43455
SWIDTH 960 0
DWIDTH 24 0
BBX 24 24 0 -4
BITMAP
000000
000008
00001C
3FFFFE
003C00
003E00
007B00
00D980
0398E0
0E1878
701818
001800
081830
0FFFF8
0C0030
0C0030
0C0030
0FFFF0
0C0030
0C0030
0C0030
0FFFF0
040020
000000
ENDCHAR

STARTCHAR A9C0
ENCODING 43456
SWIDTH 960 0
DWIDTH 24 0
BBX 24 24 0 -4
BITMAP
000000
040060
07FFF0
060060
060060
07FFE0
060060
060060
07FFE0
020040
000000
003000
001800
7FFFFE
000000
008000
01C300
01E1C0
038060
070030
0E0038
18001C
60000C
000000
ENDCHAR

ENDFONT
